<svg width="48" height="48" viewBox="0 0 302.27 492" fill="none" xmlns="http://www.w3.org/2000/svg"><defs><style>.cls-1{fill:none;stroke:#000;stroke-miterlimit:10;stroke-width:5px;}</style></defs><path class="cls-1" d="m74.24,470.27h0c0,10.57-8.65,19.23-19.23,19.23h0c-10.57,0-19.23-8.65-19.23-19.23h0"/><path class="cls-1" d="m267.21,470.27h0c0,10.57-8.65,19.23-19.23,19.23h0c-10.57,0-19.23-8.65-19.23-19.23h0"/><rect class="cls-1" x="2.5" y="297.08" width="297.27" height="173.93" rx="5.7" ry="5.7"/><rect class="cls-1" x="60.65" y="5.51" width="181.72" height="69.5" rx="2.57" ry="2.57"/><path class="cls-1" d="m229,86.55H74.02c-7.36,0-13.37,4.78-13.37,10.63v45.47c0,5.85,6.02,10.63,13.37,10.63h154.98c7.36,0,13.37-4.78,13.37-10.63v-45.47c0-5.85-6.02-10.63-13.37-10.63Z"/><path class="cls-1" d="m229,165.58H74.02c-7.36,0-13.37,4.73-13.37,10.51v44.96c0,5.78,6.02,10.51,13.37,10.51h154.98c7.36,0,13.37-4.73,13.37-10.51v-44.96c0-5.78-6.02-10.51-13.37-10.51Z"/><rect class="cls-1" x="249.48" y="2.5" width="49.66" height="228.88" rx="2.83" ry="2.83"/><rect class="cls-1" x="3.52" y="2.5" width="49.66" height="228.88" rx="2.83" ry="2.83"/><rect class="cls-1" x="3.52" y="241.32" width="295.61" height="45.78" rx="2.83" ry="2.83"/></svg>