<svg width="48" height="48" viewBox="0 0 283.5 283.5" fill="none" xmlns="http://www.w3.org/2000/svg" style="enable-background:new 0 0 283.5 283.5;" xml:space="preserve">
<style type="text/css">
	.st0{fill:#FFFFFF;stroke:#2B2B2B;stroke-width:5;stroke-miterlimit:10;}
	.st1{fill:none;stroke:#2B2B2B;stroke-width:5;stroke-miterlimit:10;}
</style>
<path class="st0" d="M119.7,200.2c0,3.2-2.6,5.7-5.7,5.7s-5.7-2.6-5.7-5.7"/>
<path class="st0" d="M172.2,200.2c0,3.2-2.6,5.7-5.7,5.7s-5.7-2.6-5.7-5.7"/>
<path class="st1" d="M178.3,200.5h-74.7c-1.6,0-2.8-1.3-2.8-2.8v-42.3c0-1.6,1.3-2.8,2.8-2.8h74.7c1.6,0,2.8,1.3,2.8,2.8v42.4
	C181.2,199.2,179.9,200.5,178.3,200.5z"/>
<path class="st0" d="M191.3,200.5h-3.9c-1.6,0-2.8-1.3-2.8-2.8v-49.3c0-1.6,1.3-2.8,2.8-2.8h3.9c1.6,0,2.8,1.3,2.8,2.8v49.3
	C194.1,199.2,192.9,200.5,191.3,200.5z"/>
<path class="st0" d="M178.5,149.4h-58.9c-1.6,0-2.8-1.3-2.8-2.8v-4.1c0-1.6,1.3-2.8,2.8-2.8h58.9c1.6,0,2.8,1.3,2.8,2.8v4.1
	C181.4,148.1,180.1,149.4,178.5,149.4z"/>
<path class="st0" d="M98.5,148.7L90.3,80c-0.1-1.1,0.7-2.2,1.8-2.3l14.1-1.7c1.1-0.1,2.2,0.7,2.3,1.8l8.2,68.7
	c0.1,1.1-0.7,2.2-1.8,2.3l-14.1,1.7C99.7,150.7,98.7,149.9,98.5,148.7z"/>
</svg>
