<svg width="48" height="48" viewBox="0 0 152 152" fill="none" xmlns="http://www.w3.org/2000/svg" style="shape-rendering:geometricPrecision; text-rendering:geometricPrecision; image-rendering:optimizeQuality; fill-rule:evenodd; clip-rule:evenodd" xmlns:xlink="http://www.w3.org/1999/xlink">
<g><path style="opacity:0.775" fill="#000000" d="M 75.5,-0.5 C 77.8333,-0.5 80.1667,-0.5 82.5,-0.5C 85.5,7.5 88.5,7.5 91.5,-0.5C 93.8333,-0.5 96.1667,-0.5 98.5,-0.5C 100.519,0.933421 102.686,2.26675 105,3.5C 105.07,6.77495 105.237,9.94161 105.5,13C 107.326,13.2917 109.159,13.125 111,12.5C 112.895,12.6148 114.562,13.2815 116,14.5C 118.156,18.2616 118.823,22.2616 118,26.5C 110.706,29.5956 110.706,32.5956 118,35.5C 118.698,39.7871 117.865,43.7871 115.5,47.5C 114.312,48.84 112.812,49.5066 111,49.5C 108.863,48.9233 106.696,48.59 104.5,48.5C 107.538,55.8824 105.205,60.3824 97.5,62C 95.5,62.6667 93.5,62.6667 91.5,62C 90.1111,60.0429 88.6111,58.2096 87,56.5C 85.0738,58.1314 83.2404,59.9647 81.5,62C 76.9145,62.4734 72.7478,61.3067 69,58.5C 68.7848,55.1965 68.6181,52.0299 68.5,49C 66.4731,48.5022 64.4731,48.6689 62.5,49.5C 60.8129,49.2395 59.3129,48.5728 58,47.5C 57.1275,44.3819 55.9608,41.3819 54.5,38.5C 55.9953,35.1728 58.3286,32.6728 61.5,31C 60.2247,28.9291 58.3914,27.4291 56,26.5C 55.6905,25.2341 55.1905,24.0674 54.5,23C 55.9108,19.5117 57.5775,16.1783 59.5,13C 62.7749,12.9295 65.9416,12.7629 69,12.5C 68.6799,9.53986 68.6799,6.53986 69,3.5C 71.1731,2.06723 73.3398,0.733895 75.5,-0.5 Z M 94.5,4.5 C 98.9896,5.39397 100.323,7.89397 98.5,12C 98.9668,16.235 101.3,18.735 105.5,19.5C 108.93,17.5558 111.264,18.3891 112.5,22C 104.537,27.884 104.537,33.7173 112.5,39.5C 111.96,40.7481 111.293,41.9148 110.5,43C 107.867,42.7468 105.2,42.7468 102.5,43C 98.5317,45.7701 97.5317,49.4368 99.5,54C 98.3619,56.0451 96.6953,56.7117 94.5,56C 92.0015,50.6583 88.0015,49.1583 82.5,51.5C 81.1621,53.3366 79.6621,55.0033 78,56.5C 76.1182,56.3122 74.9515,55.3122 74.5,53.5C 75.5826,51.1251 75.5826,48.7917 74.5,46.5C 71.6202,42.6308 67.9535,41.6308 63.5,43.5C 61.876,42.1311 61.376,40.4645 62,38.5C 67.1409,35.8823 68.6409,31.8823 66.5,26.5C 64.6634,25.1621 62.9967,23.6621 61.5,22C 61.6878,20.1182 62.6878,18.9515 64.5,18.5C 66.4731,19.3311 68.4731,19.4978 70.5,19C 72,17.5 73.5,16 75,14.5C 75.0511,11.7234 75.2178,9.05673 75.5,6.5C 76.7678,5.57211 78.1011,5.40544 79.5,6C 80.7485,9.5812 83.2485,11.0812 87,10.5C 91.4216,10.9124 93.9216,8.9124 94.5,4.5 Z"/></g>
<g><path style="opacity:0.741" fill="#000000" d="M 83.5,19.5 C 93.8114,18.6461 98.6447,23.3127 98,33.5C 94.2329,42.2014 88.0662,44.368 79.5,40C 78.5939,38.3005 78.2606,36.4672 78.5,34.5C 81.5772,34.3471 84.4105,35.0137 87,36.5C 91.5361,35.63 93.2028,32.9633 92,28.5C 90.1799,25.7972 87.6799,24.9639 84.5,26C 82.9716,27.3613 81.3049,28.528 79.5,29.5C 76.3053,28.1233 75.8053,26.1233 78,23.5C 79.8121,22.0229 81.6455,20.6896 83.5,19.5 Z"/></g>
<g><path style="opacity:0.766" fill="#000000" d="M 112.5,53.5 C 116.224,52.7731 118.891,54.1064 120.5,57.5C 122.909,53.231 126.242,52.3976 130.5,55C 134.203,56.9018 135.203,59.7352 133.5,63.5C 135.584,62.7517 137.584,62.7517 139.5,63.5C 141.363,65.8929 142.696,68.5596 143.5,71.5C 142.929,73.7414 141.596,75.4081 139.5,76.5C 144.098,80.5554 144.098,84.8888 139.5,89.5C 137.207,90.2357 134.874,90.4024 132.5,90C 133.576,91.7261 133.743,93.5594 133,95.5C 129.862,98.1735 126.362,99.1735 122.5,98.5C 121.416,97.3349 120.583,96.0016 120,94.5C 116.33,100.567 111.997,100.901 107,95.5C 106.505,93.5273 106.338,91.5273 106.5,89.5C 99.4354,89.4414 96.602,85.7747 98,78.5C 102.667,76.8333 102.667,75.1667 98,73.5C 97.1168,66.2577 100.284,62.2577 107.5,61.5C 106.339,59.7763 106.505,58.1096 108,56.5C 109.652,55.6006 111.152,54.6006 112.5,53.5 Z M 113.5,59.5 C 118.392,61.9129 118.392,63.5795 113.5,64.5C 113.5,62.8333 113.5,61.1667 113.5,59.5 Z M 126.5,59.5 C 127.289,59.7828 127.956,60.2828 128.5,61C 128.298,66.0067 126.632,66.6734 123.5,63C 124.71,61.9609 125.71,60.7942 126.5,59.5 Z M 108.5,69.5 C 108.719,70.675 108.386,71.675 107.5,72.5C 102.305,69.6933 102.639,68.6933 108.5,69.5 Z M 116.5,69.5 C 123.669,68.5131 127.169,71.5131 127,78.5C 124.051,83.6899 120.051,84.6899 115,81.5C 112.66,77.0521 113.16,73.0521 116.5,69.5 Z M 131.5,70.5 C 133.035,69.2121 134.701,69.2121 136.5,70.5C 134.082,71.7294 133.082,73.7294 133.5,76.5C 133.774,79.507 134.607,82.1736 136,84.5C 134.491,83.9103 132.991,83.2436 131.5,82.5C 132.796,78.3685 132.796,74.3685 131.5,70.5 Z M 106.5,78.5 C 111.116,83.2812 110.116,84.6145 103.5,82.5C 105.288,81.7174 106.288,80.3841 106.5,78.5 Z M 113.5,87.5 C 118.374,88.4359 118.374,90.1026 113.5,92.5C 112.566,90.9052 112.566,89.2385 113.5,87.5 Z M 125.5,87.5 C 126.649,87.7911 127.316,88.6244 127.5,90C 126.355,92.9949 125.021,92.8283 123.5,89.5C 124.243,88.8182 124.909,88.1515 125.5,87.5 Z"/></g>
<g><path style="opacity:0.771" fill="#000000" d="M 65.5,151.5 C 59.5,151.5 53.5,151.5 47.5,151.5C 46.2067,146.993 44.8734,142.493 43.5,138C 41.8333,137.333 40.1667,137.333 38.5,138C 35.2874,142.298 31.2874,143.631 26.5,142C 22.3995,138.573 19.0661,134.573 16.5,130C 17.924,126.908 19.7574,124.074 22,121.5C 22.9132,118.648 22.0799,116.481 19.5,115C 16.086,114.703 12.7527,114.036 9.5,113C 8.87424,112.25 8.37424,111.416 8,110.5C 7.10383,105.051 7.43716,99.7175 9,94.5C 10.1711,93.1068 11.6711,92.2735 13.5,92C 16.2263,91.8184 18.8929,91.3184 21.5,90.5C 22.5019,88.4899 23.5019,86.4899 24.5,84.5C 27.0572,83.1801 28.7239,84.0134 29.5,87C 28.3548,90.2904 26.6881,93.2904 24.5,96C 20.9137,97.1076 17.247,97.6076 13.5,97.5C 13.5,101.167 13.5,104.833 13.5,108.5C 17.6225,108.798 21.6225,109.631 25.5,111C 26.8333,113.667 28.1667,116.333 29.5,119C 27.9873,123.181 25.654,126.848 22.5,130C 25,132.5 27.5,135 30,137.5C 35.1836,131.108 41.3503,129.942 48.5,134C 50.4492,137.907 51.4492,142.073 51.5,146.5C 55.1667,146.5 58.8333,146.5 62.5,146.5C 61.0041,135.498 65.6708,130.664 76.5,132C 79,133.833 81.5,135.667 84,137.5C 86,135.5 88,133.5 90,131.5C 90.6667,130.5 90.6667,129.5 90,128.5C 87.5345,125.872 85.7012,122.872 84.5,119.5C 85.9835,111.242 90.9835,107.575 99.5,108.5C 99.5,104.833 99.5,101.167 99.5,97.5C 90.6652,98.926 85.6652,95.2593 84.5,86.5C 86.0651,82.9283 88.0651,79.595 90.5,76.5C 88.684,74.1831 86.684,72.0165 84.5,70C 81.1062,70.6758 78.1062,72.3424 75.5,75C 71.3909,75.3531 67.7242,74.1864 64.5,71.5C 63.3379,67.6776 62.3379,63.8442 61.5,60C 58.1832,59.5017 54.8499,59.335 51.5,59.5C 51.2189,63.1879 50.7189,66.8546 50,70.5C 46.1275,74.5421 41.6275,75.7088 36.5,74C 34.2406,72.2854 32.0739,70.4521 30,68.5C 27.6667,70.8333 25.3333,73.1667 23,75.5C 22.3828,76.4491 22.5494,77.2825 23.5,78C 21.5794,81.1477 19.4127,81.3143 17,78.5C 16.3653,76.3646 16.6986,74.3646 18,72.5C 20.8333,69.6667 23.6667,66.8333 26.5,64C 28.8333,63.3333 31.1667,63.3333 33.5,64C 35.8333,65.8333 38.1667,67.6667 40.5,69.5C 41.7362,68.7542 43.0695,68.4208 44.5,68.5C 45.0448,65.1869 45.5448,61.8536 46,58.5C 46.4652,57.0692 47.2986,55.9025 48.5,55C 54.1667,54.3333 59.8333,54.3333 65.5,55C 67.5401,58.8351 68.7068,63.0018 69,67.5C 70.3333,68.1667 71.6667,68.8333 73,69.5C 75.5,67.6667 78,65.8333 80.5,64C 83.4663,63.1048 86.1329,63.6048 88.5,65.5C 90.8167,68.3174 93.3167,70.9841 96,73.5C 96.6667,75.5 96.6667,77.5 96,79.5C 94.1667,82 92.3333,84.5 90.5,87C 91.1905,88.0674 91.6905,89.2341 92,90.5C 96.6272,90.8705 100.961,92.2038 105,94.5C 105.667,100.167 105.667,105.833 105,111.5C 100.892,113.942 96.3919,115.275 91.5,115.5C 91.5792,116.93 91.2458,118.264 90.5,119.5C 92.3333,121.833 94.1667,124.167 96,126.5C 96.755,129.303 96.4217,131.97 95,134.5C 91.857,138.487 88.0236,141.487 83.5,143.5C 79.6164,141.79 76.1164,139.457 73,136.5C 71.9326,137.191 70.7659,137.691 69.5,138C 68.7271,142.723 67.3938,147.223 65.5,151.5 Z"/></g>
<g><path style="opacity:0.755" fill="#000000" d="M 54.5,80.5 C 60.2465,80.5489 65.5798,82.0489 70.5,85C 73.887,87.0016 75.387,89.835 75,93.5C 74.2753,94.0585 73.4419,94.3918 72.5,94.5C 65.0282,85.8384 56.3615,84.3384 46.5,90C 40.8849,94.9683 39.0516,101.135 41,108.5C 45.9418,118.719 53.7751,121.885 64.5,118C 71.3643,113.596 74.6976,107.263 74.5,99C 78.126,98.1624 79.7927,99.6624 79.5,103.5C 76.9813,119.517 67.648,126.683 51.5,125C 38.4818,120.479 32.9818,111.312 35,97.5C 38.3307,87.9911 44.8307,82.3244 54.5,80.5 Z"/></g>
</svg>
