<svg width="48" height="48" viewBox="0 0 168 168" fill="none" xmlns="http://www.w3.org/2000/svg" style="shape-rendering:geometricPrecision; text-rendering:geometricPrecision; image-rendering:optimizeQuality; fill-rule:evenodd; clip-rule:evenodd" xmlns:xlink="http://www.w3.org/1999/xlink">
<g><path style="opacity:0.834" fill="#000000" d="M 30.5,15.5 C 66.1682,15.3333 101.835,15.5 137.5,16C 145.114,17.9471 149.614,22.7804 151,30.5C 151.667,66.1667 151.667,101.833 151,137.5C 149.053,145.114 144.22,149.614 136.5,151C 100.833,151.667 65.1667,151.667 29.5,151C 21.8858,149.053 17.3858,144.22 16,136.5C 15.3333,100.833 15.3333,65.1667 16,29.5C 18.1236,21.8739 22.957,17.2072 30.5,15.5 Z M 30.5,23.5 C 65.8349,23.3333 101.168,23.5 136.5,24C 138.624,25.1217 140.457,26.6217 142,28.5C 143.653,64.4152 143.987,100.415 143,136.5C 141.878,138.624 140.378,140.457 138.5,142C 102.585,143.653 66.5848,143.987 30.5,143C 28.3762,141.878 26.5429,140.378 25,138.5C 23.3467,102.585 23.0134,66.5848 24,30.5C 25.6941,27.6424 27.8607,25.309 30.5,23.5 Z"/></g>
<g><path style="opacity:0.832" fill="#000000" d="M 99.5,35.5 C 109.172,35.3335 118.839,35.5002 128.5,36C 129.308,36.3076 129.975,36.8076 130.5,37.5C 131.641,47.4527 131.808,57.4527 131,67.5C 129.419,70.5534 127.086,71.22 124,69.5C 123.667,62.8333 123.333,56.1667 123,49.5C 116.167,56.3333 109.333,63.1667 102.5,70C 97.3333,71.5 95.5,69.6667 97,64.5C 103.833,57.6667 110.667,50.8333 117.5,44C 110.833,43.6667 104.167,43.3333 97.5,43C 95.8397,39.7773 96.5064,37.2773 99.5,35.5 Z"/></g>
<g><path style="opacity:0.832" fill="#000000" d="M 37.5,96.5 C 39.4672,96.2606 41.3005,96.5939 43,97.5C 43.3333,104.167 43.6667,110.833 44,117.5C 50.8333,110.667 57.6667,103.833 64.5,97C 69.6667,95.5 71.5,97.3333 70,102.5C 63.1667,109.333 56.3333,116.167 49.5,123C 56.1667,123.333 62.8333,123.667 69.5,124C 70.8333,126 70.8333,128 69.5,130C 64.1068,131.12 58.6068,131.62 53,131.5C 37.5,135.333 31.6667,129.5 35.5,114C 35.6667,109.167 35.8333,104.333 36,99.5C 36.5133,98.4734 37.0133,97.4734 37.5,96.5 Z"/></g>
</svg>
