<svg width="48" height="48" viewBox="0 0 512 512" fill="none" xmlns="http://www.w3.org/2000/svg" style="enable-background:new 0 0 512 512;" xml:space="preserve">
<style type="text/css">
	.st0{fill:none;stroke:#000000;stroke-width:5;stroke-miterlimit:10;}
</style>
<path class="st0" d="M162.7,286.6l-65.3,7.3c-1.5,0.2-3-1-3.1-2.5L64.2,20.5c-0.2-1.5,1-3,2.5-3.1l65.3-7.3c1.5-0.2,3,1,3.1,2.5
	l30.1,270.8C165.4,285,164.3,286.4,162.7,286.6z"/>
<g>
	<path class="st0" d="M179.4,480.9L179.4,480.9c0,11-9,20.1-20.1,20.1h0c-11,0-20.1-9-20.1-20.1v0"/>
	<path class="st0" d="M380.9,480.9L380.9,480.9c0,11-9,20.1-20.1,20.1h0c-11,0-20.1-9-20.1-20.1v0"/>
	<path class="st0" d="M462.4,279.2v201.6c0,1.7-1.4,3.1-3.1,3.1h-29.7c-1.7,0-3.1-1.4-3.1-3.1V279.2c0-1.7,1.4-3.1,3.1-3.1h29.7
		C461,276.1,462.4,277.5,462.4,279.2z"/>
	<path class="st0" d="M409.6,291.5H167.4c-1.8,0-3.3-1.5-3.3-3.3v-29.3c0-1.8,1.5-3.3,3.3-3.3h242.2c1.8,0,3.3,1.5,3.3,3.3v29.3
		C412.9,290,411.4,291.5,409.6,291.5z"/>
	<path class="st0" d="M409.6,291.5H168.5c-1.8,0-3.3-1.5-3.3-3.3v-29.3c0-1.8,1.5-3.3,3.3-3.3h241.1c1.8,0,3.3,1.5,3.3,3.3v29.3
		C412.9,290,411.4,291.5,409.6,291.5z"/>
	<path class="st0" d="M409.2,481.7H110.1c-3.1,0-5.7-2.6-5.7-5.7V305.7c0-3.1,2.6-5.7,5.7-5.7h299.1c3.1,0,5.7,2.6,5.7,5.7V476
		C414.9,479.1,412.4,481.7,409.2,481.7z"/>
</g>
</svg>
