<svg width="16" height="16" viewBox="0 0 16 16" fill="none" xmlns="http://www.w3.org/2000/svg">
<g clip-path="url(#clip0_2845_11622)">
<path d="M15.4881 4.13004L15.9187 4.68954C15.976 4.76397 16.0049 4.86074 15.9993 4.95895C15.9937 5.05717 15.954 5.14897 15.8887 5.21454L8.22165 12.9051C8.16061 12.9662 8.08172 13 7.99998 13C7.91823 13 7.83934 12.9662 7.7783 12.9051L0.111205 5.21529C0.0458609 5.14959 0.00614548 5.05758 0.000655281 4.95919C-0.00483492 4.86079 0.0243418 4.76392 0.0818702 4.68954L0.511227 4.13229C0.540186 4.09484 0.575464 4.06424 0.615016 4.04225C0.654568 4.02025 0.697608 4.00731 0.74164 4.00417C0.785671 4.00103 0.829819 4.00776 0.871523 4.02396C0.913227 4.04016 0.951658 4.06551 0.984587 4.09854L7.7783 10.9161C7.83934 10.9772 7.91823 11.011 7.99998 11.011C8.08172 11.011 8.16061 10.9772 8.22165 10.9161L15.0147 4.09479C15.0477 4.0618 15.0861 4.03651 15.1279 4.02037C15.1696 4.00423 15.2138 3.99758 15.2578 4.00078C15.3018 4.00399 15.3448 4.01701 15.3844 4.03906C15.4239 4.06112 15.4591 4.09254 15.4881 4.13004Z" fill="#333232"/>
</g>
<defs>
<clipPath id="clip0_2845_11622">
<rect width="16" height="16" fill="white"/>
</clipPath>
</defs>
</svg>
