<svg width="18" height="10" viewBox="0 0 18 10" fill="none" xmlns="http://www.w3.org/2000/svg">
<path d="M17.3853 3.39866C17.4577 3.39866 17.5273 3.36987 17.5785 3.31861C17.6298 3.26735 17.6586 3.19782 17.6586 3.12533C17.6586 3.05283 17.6298 2.98331 17.5785 2.93205C17.5273 2.88079 17.4577 2.85199 17.3853 2.85199H16.2764V0.923164C16.2764 0.678327 16.1792 0.443519 16.0061 0.270394C15.8329 0.0972687 15.5981 8.02205e-06 15.3533 8.02205e-06H5.72462C5.57417 -0.00062088 5.42587 0.0357372 5.29277 0.105883C5.15968 0.176029 5.04586 0.277812 4.96134 0.402277L2.7798 3.62558C2.74581 3.67646 2.69978 3.71814 2.64579 3.74693C2.59181 3.77573 2.53155 3.79073 2.47037 3.79062H0.598268C0.51927 3.79062 0.441053 3.80626 0.368132 3.83665C0.295211 3.86703 0.229031 3.91156 0.173411 3.96766C0.11779 4.02376 0.0738318 4.09032 0.0440722 4.1635C0.0143126 4.23668 -0.000658791 4.31503 2.22319e-05 4.39402V7.85457C2.22319e-05 8.01323 0.0630515 8.1654 0.175244 8.27759C0.287437 8.38978 0.439603 8.45281 0.598268 8.45281H2.73339C2.73339 8.86315 2.89639 9.25669 3.18655 9.54684C3.4767 9.83699 3.87024 10 4.28058 10C4.69092 10 5.08445 9.83699 5.3746 9.54684C5.66476 9.25669 5.82776 8.86315 5.82776 8.45281H10.5209C10.5209 8.86315 10.6839 9.25669 10.9741 9.54684C11.2642 9.83699 11.6577 10 12.0681 10C12.4784 10 12.872 9.83699 13.1621 9.54684C13.4523 9.25669 13.6153 8.86315 13.6153 8.45281H16.0186C16.0545 8.45281 16.09 8.44574 16.1232 8.432C16.1563 8.41827 16.1865 8.39813 16.2119 8.37275C16.2372 8.34737 16.2574 8.31724 16.2711 8.28408C16.2848 8.25091 16.2919 8.21537 16.2919 8.17947C16.2919 8.14358 16.2848 8.10804 16.2711 8.07487C16.2574 8.04171 16.2372 8.01158 16.2119 7.9862C16.1865 7.96082 16.1563 7.94068 16.1232 7.92695C16.09 7.91321 16.0545 7.90614 16.0186 7.90614H13.605C13.605 7.4958 13.442 7.10227 13.1518 6.81211C12.8616 6.52196 12.4681 6.35895 12.0578 6.35895C11.6474 6.35895 11.2539 6.52196 10.9637 6.81211C10.6736 7.10227 10.5106 7.4958 10.5106 7.90614H5.83808C5.83808 7.4958 5.67507 7.10227 5.38492 6.81211C5.09476 6.52196 4.70123 6.35895 4.29089 6.35895C3.88055 6.35895 3.48702 6.52196 3.19686 6.81211C2.90671 7.10227 2.7437 7.4958 2.7437 7.90614H0.598268C0.58459 7.90614 0.571472 7.90071 0.561801 7.89103C0.552129 7.88136 0.546695 7.86824 0.546695 7.85457V4.39402C0.546695 4.38034 0.552129 4.36723 0.561801 4.35755C0.571472 4.34788 0.58459 4.34245 0.598268 4.34245H2.46521C2.61566 4.34308 2.76395 4.30672 2.89705 4.23657C3.03015 4.16643 3.14397 4.06464 3.22849 3.94018L5.41518 0.716872C5.44917 0.665999 5.4952 0.624315 5.54919 0.595523C5.60317 0.566731 5.66344 0.551725 5.72462 0.551838H15.3584C15.4565 0.553173 15.5502 0.592723 15.6195 0.662072C15.6889 0.731422 15.7284 0.825097 15.7298 0.923164V2.85199H10.2785C10.206 2.85199 10.1365 2.88079 10.0852 2.93205C10.034 2.98331 10.0052 3.05283 10.0052 3.12533C10.0052 3.19782 10.034 3.26735 10.0852 3.31861C10.1365 3.36987 10.206 3.39866 10.2785 3.39866H15.7298V5.46158H13.5585C13.4861 5.46158 13.4165 5.49038 13.3653 5.54164C13.314 5.5929 13.2852 5.66242 13.2852 5.73492C13.2852 5.80741 13.314 5.87694 13.3653 5.9282C13.4165 5.97946 13.4861 6.00825 13.5585 6.00826H17.3853C17.4212 6.00826 17.4567 6.00118 17.4899 5.98745C17.523 5.97371 17.5532 5.95358 17.5785 5.9282C17.6039 5.90281 17.6241 5.87268 17.6378 5.83952C17.6515 5.80636 17.6586 5.77081 17.6586 5.73492C17.6586 5.69902 17.6515 5.66348 17.6378 5.63032C17.6241 5.59715 17.6039 5.56702 17.5785 5.54164C17.5532 5.51626 17.523 5.49612 17.4899 5.48239C17.4567 5.46865 17.4212 5.46158 17.3853 5.46158H16.2764V3.39866H17.3853ZM12.0578 7.12223C12.2618 7.12223 12.4612 7.18272 12.6308 7.29606C12.8004 7.4094 12.9326 7.57049 13.0107 7.75897C13.0888 7.94744 13.1092 8.15483 13.0694 8.35492C13.0296 8.555 12.9314 8.73879 12.7871 8.88304C12.6429 9.02729 12.4591 9.12553 12.259 9.16533C12.0589 9.20513 11.8515 9.1847 11.6631 9.10663C11.4746 9.02856 11.3135 8.89636 11.2001 8.72674C11.0868 8.55711 11.0263 8.35769 11.0263 8.15369C11.0263 7.88013 11.135 7.61777 11.3284 7.42434C11.5219 7.2309 11.7842 7.12223 12.0578 7.12223ZM4.29089 7.12223C4.49489 7.12223 4.69432 7.18272 4.86394 7.29606C5.03356 7.4094 5.16576 7.57049 5.24383 7.75897C5.3219 7.94744 5.34233 8.15483 5.30253 8.35492C5.26273 8.555 5.16449 8.73879 5.02024 8.88304C4.87599 9.02729 4.6922 9.12553 4.49212 9.16533C4.29203 9.20513 4.08464 9.1847 3.89617 9.10663C3.70769 9.02856 3.5466 8.89636 3.43326 8.72674C3.31993 8.55711 3.25943 8.35769 3.25943 8.15369C3.25943 8.0178 3.28628 7.88325 3.33844 7.75777C3.39059 7.63229 3.46703 7.51836 3.56336 7.42251C3.65969 7.32666 3.774 7.25079 3.89974 7.19926C4.02548 7.14773 4.16016 7.12155 4.29605 7.12223H4.29089Z" fill="white"/>
</svg>
