<svg width="48" height="48" viewBox="0 0 48 48" fill="none" xmlns="http://www.w3.org/2000/svg">
<rect width="48" height="48" fill="white"/>
<path d="M16.2679 9.38593C15.4911 9.52745 14.4554 10.0936 13.6786 10.8012C12.3304 12.013 12.0357 12.1103 9.5 12.1103C7.74107 12.1103 7.73214 12.1103 7.51786 12.3314L7.29464 12.5437V17.329C7.29464 21.8755 7.28571 22.1055 7.13393 22.1055C6.8125 22.1055 5.85714 22.4858 5.33036 22.8219C4.34821 23.45 3.74107 24.2018 3.28571 25.3694L3.05357 25.9532L3.02679 32.2599L3 38.5577L3.22321 38.7789L3.44643 39H19.4375H35.4286L35.6428 38.7789C35.9375 38.4958 35.9375 38.0889 35.6428 37.8059L35.4286 37.5848H19.9286H4.4375V34.7543V31.9238H6.35714C8.28571 31.9238 8.28571 31.9238 8.5 31.7026C8.79464 31.4196 8.79464 31.0127 8.5 30.7296L8.28571 30.5085H6.35714H4.41964L4.45536 28.3149L4.48214 26.1301L4.76786 25.5374C5.16071 24.7148 5.66071 24.2018 6.47321 23.8038L7.15178 23.4765H23.7232H40.2946L40.9732 23.8038C41.7857 24.2018 42.2857 24.7148 42.6786 25.5374L42.9643 26.1301L42.9911 28.3149L43.0268 30.5085H27.5178H12.0179L11.8036 30.7296C11.5089 31.0127 11.5089 31.4196 11.8036 31.7026L12.0179 31.9238H27.5178H43.0089V34.7543V37.5848H41.0893C39.1607 37.5848 39.1607 37.5848 38.9464 37.8059C38.6518 38.0889 38.6518 38.4958 38.9464 38.7789L39.1607 39H41.5803H44L44.2232 38.7789L44.4464 38.5577L44.4196 32.2599L44.3928 25.9532L44.1607 25.3694C43.8214 24.5025 43.5268 24.0514 42.9107 23.4411C42.2946 22.8396 41.4286 22.362 40.6428 22.1851L40.1518 22.0789V17.329C40.1518 12.7825 40.1428 12.5614 39.9821 12.3668C39.8125 12.1545 39.7857 12.1545 37.7678 12.1103L35.7321 12.0661L35.1339 11.783C34.75 11.6061 34.2857 11.2788 33.8393 10.8542C33.4286 10.4827 32.8661 10.067 32.4911 9.87242C31.3928 9.29747 31.2053 9.27978 25.9732 9.27978H21.3036L21.0893 9.50092C20.9464 9.6336 20.8661 9.81935 20.8661 9.98741C20.8661 10.1555 20.9464 10.3412 21.0893 10.4739L21.3036 10.695H25.9286C31.7143 10.695 31.4911 10.6508 32.9643 12.0041C33.7768 12.7471 34.7678 13.2779 35.6339 13.4282C35.9286 13.4813 36.7411 13.5255 37.4464 13.5255H38.7232V17.7713V22.017H37.3036H35.8839L35.8571 20.531L35.8214 19.045L35.4911 18.3728C35.0893 17.5678 34.5714 17.0725 33.7411 16.6833L33.1428 16.4003H29.4375H25.7321L25.1428 16.6745C24.8214 16.8337 24.3661 17.1344 24.1339 17.3467L23.7232 17.7447L23.3125 17.3467C23.0803 17.1344 22.625 16.8337 22.3036 16.6745L21.7143 16.4003H18.0089H14.3036L13.7054 16.6833C12.875 17.0725 12.3571 17.5678 11.9554 18.3728L11.625 19.045L11.5893 20.531L11.5625 22.017H10.1429H8.72321V17.7713V13.5255H10.0446C10.8393 13.5255 11.5982 13.4725 11.9643 13.3928C12.8125 13.2159 13.6964 12.7295 14.5357 11.9599C15.4196 11.155 16.1161 10.8012 16.9911 10.7216C17.4554 10.6773 17.6518 10.6154 17.8036 10.4651C18.0804 10.1909 18.0714 9.77512 17.7857 9.50092C17.5446 9.25325 17.1161 9.22671 16.2679 9.38593ZM21.5268 17.8774C22.0179 18.0189 22.7589 18.7531 22.9018 19.2396C22.9643 19.4519 23.0089 20.1241 23.0089 20.8141V22.017H18.0089H13.0089V20.8141C13.0089 20.1241 13.0536 19.4519 13.1161 19.2396C13.25 18.7885 14 18.0278 14.4375 17.8863C14.8929 17.7447 21.0446 17.7359 21.5268 17.8774ZM32.9553 17.8774C33.4464 18.0189 34.1875 18.7531 34.3303 19.2396C34.3928 19.4519 34.4375 20.1241 34.4375 20.8141V22.017H29.4375H24.4375V20.8141C24.4375 20.1241 24.4821 19.4519 24.5446 19.2396C24.6786 18.7885 25.4286 18.0278 25.8661 17.8863C26.3214 17.7447 32.4732 17.7359 32.9553 17.8774Z" fill="black"/>
</svg>
