<svg width="48" height="48" viewBox="0 0 48 48" fill="none" xmlns="http://www.w3.org/2000/svg">
<path d="M24.062 7.23933L24.0619 7.23907C24.0723 7.23544 24.1085 7.22729 24.1815 7.21976C24.2497 7.21272 24.3373 7.20738 24.4414 7.20405C24.6493 7.1974 24.9147 7.19901 25.2057 7.20916H25.2057C32.2784 7.45235 38.5843 12.1889 40.855 18.9741C41.4971 20.8937 41.7196 22.3077 41.7196 24.4751C41.7196 26.1712 41.6457 26.8877 41.3144 28.3549L41.3143 28.3553C39.8888 34.726 34.7115 39.9033 28.3408 41.3288L28.3404 41.3288C26.8733 41.6601 26.1568 41.7341 24.4607 41.7341C22.7645 41.7341 22.048 41.6601 20.5809 41.3288L20.5806 41.3288C15.8521 40.2682 11.6207 37.0645 9.29656 32.7878L9.29645 32.7876C7.94377 30.3054 7.22194 27.6032 7.20169 25.0205L24.062 7.23933ZM24.062 7.23933L24.0518 7.24229M24.062 7.23933L24.0518 7.24229M24.0518 7.24229C23.937 7.27578 23.7803 7.38349 23.6344 7.53972C23.4902 7.69413 23.3847 7.86579 23.3482 7.9976M24.0518 7.24229L24.9665 9.71631C24.1394 9.66846 23.9616 9.64112 23.7429 9.5044C23.237 9.18995 22.9978 8.54737 23.155 7.9458L23.3485 7.99638C23.3484 7.99678 23.3483 7.99719 23.3482 7.9976M23.3482 7.9976C23.2121 8.5205 23.423 9.07002 23.8485 9.33454L23.8489 9.3348C24.0156 9.43901 24.136 9.46793 24.9781 9.51664L24.9784 9.51666C29.0506 9.75864 32.29 11.172 35.0269 13.9089C37.3405 16.2225 38.7543 19.0231 39.2667 22.2908M23.3482 7.9976L39.2667 22.2908M39.2667 22.2908C39.2666 22.2907 39.2666 22.2905 39.2666 22.2904L39.0691 22.3218L39.2667 22.2908ZM39.2667 22.2908C39.3511 22.8226 39.3921 23.6535 39.3921 24.4751C39.3921 25.2967 39.3511 26.1276 39.2667 26.6594M39.2667 22.2908L39.0691 26.6284M39.0691 26.6284L39.2667 26.6594M39.0691 26.6284L39.2666 26.6598C39.2666 26.6597 39.2666 26.6595 39.2667 26.6594M39.0691 26.6284C38.5632 29.855 37.1687 32.6167 34.8855 34.8999C32.6023 37.1831 29.8405 38.5776 26.614 39.0835C26.0808 39.1655 25.4519 39.1997 24.4607 39.1997C21.9861 39.1997 19.9353 38.728 17.8298 37.6685C15.0818 36.2876 12.6482 33.854 11.2673 31.106C10.3308 29.2397 9.84544 27.3394 9.70189 24.9741C9.65404 24.0923 9.62669 23.9692 9.46947 23.73C9.19603 23.313 8.85423 23.1421 8.32103 23.1421C7.95189 23.1421 7.82884 23.1763 7.59642 23.3267M39.2667 26.6594L17.74 37.8472M7.59642 23.3267L7.70909 23.4919C7.70845 23.4923 7.70782 23.4928 7.70718 23.4932M7.59642 23.3267L7.70507 23.4946C7.70578 23.4941 7.70648 23.4937 7.70718 23.4932M7.59642 23.3267C7.44603 23.4292 7.24779 23.6274 7.15892 23.771L7.20169 25.0204C7.19822 24.5492 7.19878 24.3142 7.21727 24.1647C7.23297 24.0378 7.25896 23.9859 7.32746 23.8787L7.32899 23.8763L7.32897 23.8763C7.40047 23.7608 7.57619 23.5831 7.70718 23.4932M7.70718 23.4932C7.81428 23.4241 7.88194 23.3911 7.95743 23.3716C8.03766 23.3509 8.13957 23.3421 8.32103 23.3421C8.5666 23.3421 8.75181 23.3815 8.90191 23.4579C9.05073 23.5337 9.18021 23.6536 9.30222 23.8397L9.30233 23.8398C9.37003 23.9428 9.40373 24.0091 9.43021 24.1484C9.45969 24.3036 9.47806 24.5404 9.50218 24.985L9.50225 24.9862C9.64723 27.3749 10.1384 29.3022 11.0886 31.1957L11.0886 31.1958C12.4888 33.9822 14.9535 36.447 17.74 37.8472M17.74 37.8472C17.74 37.8471 17.7399 37.8471 17.7399 37.8471L17.8297 37.6686L17.74 37.8472Z" fill="black" stroke="white" stroke-width="0.4"/>
<path d="M17.9267 8.45214C17.3286 8.69963 17.0058 8.84129 16.8036 8.95874C16.617 9.06717 16.5416 9.14968 16.443 9.29C16.0655 9.84643 16.2779 10.649 16.9167 10.9808C17.0977 11.0725 17.2689 11.1051 17.5365 11.059C17.8188 11.0104 18.1994 10.8757 18.7913 10.6259C19.367 10.3812 19.6733 10.2413 19.8629 10.1172C20.0341 10.0053 20.104 9.91075 20.1952 9.73452C20.5856 8.96421 20.0314 8.05933 19.1733 8.0638C18.9496 8.06994 18.6684 8.15 17.9267 8.45214Z" fill="black" stroke="white" stroke-width="0.4"/>
<path d="M13.3713 11.2925L13.3708 11.2926C13.2615 11.3309 13.0497 11.4534 12.9156 11.5551C12.7279 11.7077 12.3633 12.0666 12.0253 12.4225C11.857 12.5997 11.6984 12.773 11.5753 12.915C11.5136 12.9861 11.462 13.0482 11.4229 13.0983C11.381 13.1519 11.3617 13.1817 11.3566 13.1916L11.3566 13.1916C10.8625 14.1502 11.8517 15.2246 12.8104 14.8227L12.8108 14.8226C12.8264 14.8161 12.8691 14.7909 12.9433 14.735C13.0127 14.6826 13.0976 14.6127 13.1935 14.5292C13.3851 14.3624 13.6138 14.1474 13.839 13.9243C14.0642 13.7012 14.2838 13.4721 14.4572 13.2774C14.544 13.18 14.618 13.0926 14.6749 13.0198C14.7341 12.944 14.7669 12.894 14.7794 12.8685C14.996 12.4236 14.8817 11.8841 14.4653 11.5213L14.4649 11.5208C14.1267 11.2242 13.7644 11.1537 13.3713 11.2925Z" fill="black" stroke="white" stroke-width="0.4"/>
<path d="M10.7081 16.5763L10.708 16.5762C10.56 16.4394 10.3424 16.3386 10.1076 16.2953C9.87269 16.252 9.64196 16.27 9.46863 16.3456C9.24919 16.444 9.00458 16.6717 8.89618 16.882C8.84468 16.9855 8.62997 17.4882 8.41731 18.0026C8.12777 18.7058 8.04961 18.9909 8.04961 19.1979C8.04961 20.0426 8.95468 20.5943 9.72061 20.2092C9.89665 20.1181 9.99112 20.0481 10.103 19.8771C10.2271 19.6874 10.367 19.3811 10.6118 18.8053C10.8615 18.217 10.9962 17.8363 11.0448 17.5541C11.091 17.286 11.0581 17.1154 10.9671 16.9386C10.8983 16.8074 10.7745 16.6376 10.7081 16.5763Z" fill="black" stroke="white" stroke-width="0.4"/>
<path d="M24.0548 17.9056L24.0516 17.9065C23.9484 17.9363 23.7936 18.0428 23.6452 18.1984C23.498 18.3529 23.3931 18.5179 23.3614 18.6301L23.3614 18.6301L23.3603 18.6339C23.3603 18.6338 23.3603 18.6338 23.3603 18.634C23.3601 18.6348 23.3589 18.6395 23.3571 18.6494C23.3551 18.6607 23.3529 18.6757 23.3505 18.695C23.3457 18.7337 23.341 18.7848 23.3365 18.8483C23.3275 18.9753 23.3197 19.1453 23.3133 19.3526C23.3006 19.7668 23.2937 20.3234 23.2937 20.9683V23.1011V23.2993L23.0956 23.3011L20.826 23.3216C19.6901 23.3319 19.1301 23.337 18.8195 23.3595C18.6652 23.3707 18.5871 23.3854 18.5367 23.4015C18.4902 23.4163 18.4596 23.4344 18.3949 23.4753L18.3934 23.4762C18.2774 23.548 18.0987 23.7249 18.0092 23.856C17.9374 23.9622 17.9052 24.0288 17.8866 24.1037C17.8665 24.1847 17.8592 24.288 17.8592 24.4751C17.8592 24.6622 17.8665 24.7655 17.8866 24.8465C17.9052 24.9214 17.9374 24.988 18.0092 25.0942C18.0987 25.2253 18.2774 25.4022 18.3934 25.474L18.3934 25.474L18.3949 25.4749C18.4596 25.5158 18.4902 25.5339 18.5366 25.5487C18.587 25.5649 18.6648 25.5795 18.8187 25.5907C19.1284 25.6132 19.6867 25.6183 20.8192 25.6286C20.8192 25.6286 20.8192 25.6286 20.8192 25.6286L23.0887 25.6491L23.2851 25.6509L23.2869 25.8473L23.3074 28.1168C23.3177 29.2493 23.3229 29.8077 23.3453 30.1174C23.3565 30.2712 23.3712 30.3491 23.3873 30.3994C23.4022 30.4458 23.4202 30.4764 23.4611 30.5412L23.462 30.5427C23.5338 30.6586 23.7107 30.8373 23.8419 30.9268C23.9481 30.9987 24.0147 31.0308 24.0895 31.0494C24.1705 31.0695 24.2738 31.0769 24.4609 31.0769C24.6481 31.0769 24.7513 31.0695 24.8324 31.0494C24.9072 31.0308 24.9738 30.9987 25.08 30.9268C25.2112 30.8373 25.388 30.6586 25.4598 30.5427L25.4598 30.5427L25.4608 30.5412C25.5017 30.4764 25.5197 30.4458 25.5346 30.3994C25.5507 30.3491 25.5654 30.2712 25.5765 30.1174C25.599 29.8077 25.6042 29.2493 25.6145 28.1168L25.635 25.8473L25.6367 25.6509L25.8332 25.6491L28.1095 25.6286L30.3257 25.6087L30.5492 25.4578L30.5492 25.4577L30.552 25.4559C30.7463 25.3295 30.869 25.1995 30.9458 25.0513C31.0232 24.902 31.0627 24.7176 31.0627 24.4683C31.0627 24.2868 31.0539 24.1849 31.0332 24.1047C31.0137 24.0292 30.9807 23.9615 30.9116 23.8544C30.8217 23.7234 30.644 23.5477 30.5285 23.4762L30.5285 23.4762L30.527 23.4753C30.4623 23.4344 30.4317 23.4163 30.3852 23.4015C30.3349 23.3853 30.257 23.3707 30.1032 23.3595C29.7935 23.337 29.2352 23.3319 28.1027 23.3216L25.8332 23.3011L25.6367 23.2993L25.635 23.1029L25.6145 20.8334C25.6042 19.7009 25.599 19.1425 25.5765 18.8328C25.5654 18.679 25.5507 18.6011 25.5346 18.5508C25.5197 18.5044 25.5017 18.4738 25.4608 18.409L25.4608 18.409L25.4598 18.4074C25.189 17.9696 24.5744 17.7461 24.0548 17.9056ZM23.292 30.6479C23.3809 30.7915 23.5791 30.9897 23.7295 31.0923C23.9619 31.2495 24.085 31.2769 24.4609 31.2769C24.8369 31.2769 24.96 31.2495 25.1924 31.0923L23.292 30.6479Z" fill="black" stroke="white" stroke-width="0.4"/>
</svg>
