<?xml version="1.0" encoding="UTF-8"?>
<!DOCTYPE svg PUBLIC "-//W3C//DTD SVG 1.1//EN" "http://www.w3.org/Graphics/SVG/1.1/DTD/svg11.dtd">
<svg xmlns="http://www.w3.org/2000/svg" version="1.1" width="200px" height="200px" style="shape-rendering:geometricPrecision; text-rendering:geometricPrecision; image-rendering:optimizeQuality; fill-rule:evenodd; clip-rule:evenodd" xmlns:xlink="http://www.w3.org/1999/xlink">
<g><path style="opacity:0.817" fill="#000000" d="M 86.5,5.5 C 103.284,4.10425 119.617,6.10425 135.5,11.5C 135.287,14.475 134.287,17.1416 132.5,19.5C 92.9013,5.48247 59.2346,14.1491 31.5,45.5C 7.97775,78.5238 6.47775,112.524 27,147.5C 31.3845,147.594 35.8845,147.761 40.5,148C 46.5342,151.028 51.7009,155.195 56,160.5C 56.9439,163.347 56.4439,165.847 54.5,168C 57.3497,170.682 60.0164,173.516 62.5,176.5C 61.1667,178.5 59.5,180.167 57.5,181.5C 54.5157,179.016 51.6824,176.35 49,173.5C 47.8333,174.667 46.6667,175.833 45.5,177C 48.3497,179.682 51.0164,182.516 53.5,185.5C 52.1667,187.5 50.5,189.167 48.5,190.5C 45.5157,188.016 42.6824,185.35 40,182.5C 37.8474,185.352 35.3474,185.852 32.5,184C 28.2984,180.133 24.4651,175.967 21,171.5C 18.6341,165.335 19.1341,159.502 22.5,154C 7.15271,131.762 1.98604,107.262 7,80.5C 17.8746,38.7886 44.3746,13.7886 86.5,5.5 Z M 34.5,154.5 C 40.1758,155.501 44.5091,158.501 47.5,163.5C 43.8333,167.833 39.8333,171.833 35.5,175.5C 30.7322,172.571 27.7322,168.405 26.5,163C 27.3229,158.346 29.9895,155.512 34.5,154.5 Z"/></g>
<g><path style="opacity:0.817" fill="#000000" d="M 149.5,8.5 C 153.067,10.5566 156.234,13.2232 159,16.5C 161.153,13.6483 163.653,13.1483 166.5,15C 170.702,18.8666 174.535,23.0332 178,27.5C 180.366,33.6647 179.866,39.498 176.5,45C 193.47,69.9842 197.97,97.1509 190,126.5C 174.781,169.283 144.447,191.617 99,193.5C 86.7978,193.605 74.9645,191.605 63.5,187.5C 63.7134,184.525 64.7134,181.858 66.5,179.5C 106.099,193.518 139.765,184.851 167.5,153.5C 191.019,120.514 192.519,86.5142 172,51.5C 167.615,51.4056 163.115,51.239 158.5,51C 152.466,47.9716 147.299,43.8049 143,38.5C 142.056,35.6529 142.556,33.1529 144.5,31C 141.65,28.3176 138.984,25.4843 136.5,22.5C 137.833,20.5 139.5,18.8333 141.5,17.5C 144.484,19.9836 147.318,22.6503 150,25.5C 151.167,24.3333 152.333,23.1667 153.5,22C 150.65,19.3176 147.984,16.4843 145.5,13.5C 146.857,11.8144 148.19,10.1477 149.5,8.5 Z M 162.5,23.5 C 167.836,26.0087 171.169,30.1753 172.5,36C 169.783,43.6839 164.783,45.6839 157.5,42C 155.316,39.9835 153.316,37.8169 151.5,35.5C 155.189,31.4799 158.855,27.4799 162.5,23.5 Z"/></g>
<g><path style="opacity:0.816" fill="#000000" d="M 92.5,39.5 C 125.963,38.4672 147.797,53.8005 158,85.5C 162.863,114.951 152.696,137.451 127.5,153C 93.266,166.491 66.0993,157.991 46,127.5C 32.5087,93.266 41.0087,66.0993 71.5,46C 78.3848,43.0358 85.3848,40.8692 92.5,39.5 Z M 88.5,47.5 C 120.382,44.5793 141.216,58.2459 151,88.5C 154.54,116.928 143.373,137.095 117.5,149C 86.3677,156.681 63.8677,146.181 50,117.5C 42.2211,82.7183 55.0544,59.385 88.5,47.5 Z M 94.5,85.5 C 95.1982,88.8973 95.8648,92.3973 96.5,96C 101.489,96.4993 106.489,96.6659 111.5,96.5C 109.502,102.304 107.002,107.97 104,113.5C 103.793,109.911 103.293,106.411 102.5,103C 97.5111,102.501 92.5111,102.334 87.5,102.5C 89.6349,96.7647 91.9682,91.098 94.5,85.5 Z"/></g>
<g><path style="opacity:0.83" fill="#000000" d="M 97.5,64.5 C 99.7224,64.178 101.556,64.8446 103,66.5C 103.5,74.1594 103.666,81.8261 103.5,89.5C 109.176,89.3339 114.843,89.5006 120.5,90C 121.591,92.0639 121.758,94.2305 121,96.5C 114.883,109.236 108.383,121.736 101.5,134C 99.2992,134.825 97.4659,134.325 96,132.5C 95.5003,124.841 95.3336,117.174 95.5,109.5C 89.8236,109.666 84.1569,109.499 78.5,109C 77.9032,107.938 77.5698,106.772 77.5,105.5C 83.3689,91.4292 90.0355,77.7625 97.5,64.5 Z M 94.5,85.5 C 91.9682,91.098 89.6349,96.7647 87.5,102.5C 92.5111,102.334 97.5111,102.501 102.5,103C 103.293,106.411 103.793,109.911 104,113.5C 107.002,107.97 109.502,102.304 111.5,96.5C 106.489,96.6659 101.489,96.4993 96.5,96C 95.8648,92.3973 95.1982,88.8973 94.5,85.5 Z"/></g>
</svg>
