<svg width="48" height="48" viewBox="0 0 160 160" fill="none" style="shape-rendering:geometricPrecision; text-rendering:geometricPrecision; image-rendering:optimizeQuality; fill-rule:evenodd; clip-rule:evenodd" xmlns:xlink="http://www.w3.org/1999/xlink">
<g><path style="opacity:0.812" fill="#000000" d="M 27.5,6.5 C 39.5419,5.53549 44.5419,10.8688 42.5,22.5C 45.9655,20.5114 49.6322,19.0114 53.5,18C 55.5189,8.6419 61.1856,4.97524 70.5,7C 74.6331,9.30633 76.2998,12.8063 75.5,17.5C 78.9681,18.1516 82.1347,19.485 85,21.5C 86.6667,17.8333 88.3333,14.1667 90,10.5C 95.3971,5.60407 101.064,5.27073 107,9.5C 108.341,12.022 109.174,14.6887 109.5,17.5C 113.142,16.9196 116.809,16.4196 120.5,16C 124.369,6.04743 130.869,3.88076 140,9.5C 142.462,12.9324 142.962,16.5991 141.5,20.5C 146.522,21.756 150.022,24.756 152,29.5C 153.434,36.2061 150.934,40.7061 144.5,43C 142.005,43.1575 139.672,43.3241 137.5,43.5C 138.897,47.2944 140.564,50.9611 142.5,54.5C 151.189,57.2104 154.022,62.8771 151,71.5C 148.711,74.0624 145.877,75.7291 142.5,76.5C 141.171,79.1578 139.838,81.8244 138.5,84.5C 141.348,87.0932 144.681,88.9265 148.5,90C 153.833,95.6667 153.833,101.333 148.5,107C 146.323,108.202 143.989,108.702 141.5,108.5C 142.329,112.486 143.163,116.486 144,120.5C 152.299,124.426 154.299,130.426 150,138.5C 146.649,140.994 142.815,142.16 138.5,142C 136.174,150.35 130.841,153.684 122.5,152C 120.714,151.215 119.214,150.049 118,148.5C 116.561,144.356 116.061,140.356 116.5,136.5C 112.874,138.098 109.207,139.598 105.5,141C 103.504,150.328 97.8377,153.994 88.5,152C 84.3669,149.694 82.7002,146.194 83.5,141.5C 80.183,140.325 76.8496,139.492 73.5,139C 71.6176,141.978 70.1176,145.145 69,148.5C 65.2566,152.259 60.7566,153.426 55.5,152C 53.6667,150.833 52.1667,149.333 51,147.5C 50.885,144.992 49.885,142.992 48,141.5C 44.8725,142.204 41.7058,142.704 38.5,143C 34.6306,152.953 28.1306,155.119 19,149.5C 16.5381,146.068 16.0381,142.401 17.5,138.5C 8.2517,135.669 5.08503,129.669 8,120.5C 11.7345,116.315 16.2345,114.648 21.5,115.5C 20.0249,111.739 18.3582,108.073 16.5,104.5C 7.09777,101.363 4.59777,95.3633 9,86.5C 11.1345,84.5156 13.6345,83.1823 16.5,82.5C 17.9734,79.7204 19.3067,76.8871 20.5,74C 17.4456,71.8061 14.1122,70.1395 10.5,69C 5.16667,63.3333 5.16667,57.6667 10.5,52C 12.6775,50.7978 15.0108,50.2978 17.5,50.5C 16.6708,46.514 15.8374,42.514 15,38.5C 5.73857,33.7577 4.23857,27.2577 10.5,19C 13.7111,17.8468 17.0445,17.1802 20.5,17C 21.7427,12.655 24.0761,9.15497 27.5,6.5 Z M 30.5,12.5 C 36.8382,13.2748 38.1715,16.4414 34.5,22C 25.7088,21.7404 24.3755,18.5737 30.5,12.5 Z M 63.5,12.5 C 67.099,11.9376 69.099,13.4376 69.5,17C 68.7005,21.1003 67.2005,24.9336 65,28.5C 63.2299,35.4605 63.7299,42.2938 66.5,49C 63.2397,49.7835 60.0731,49.6168 57,48.5C 53.4791,35.4311 55.6458,23.4311 63.5,12.5 Z M 96.5,12.5 C 101.989,12.504 103.822,15.1707 102,20.5C 98.7441,22.4285 95.2441,22.9285 91.5,22C 92.8887,18.6509 94.5554,15.4842 96.5,12.5 Z M 129.5,12.5 C 132.9,12.0317 135.233,13.3651 136.5,16.5C 134.944,21.2785 133.11,25.9452 131,30.5C 130.333,35.1667 130.333,39.8333 131,44.5C 131.45,46.519 132.283,48.3523 133.5,50C 130.2,49.9545 126.866,49.7878 123.5,49.5C 119.896,36.2517 121.896,23.9184 129.5,12.5 Z M 115.5,22.5 C 116.376,22.3691 117.043,22.7025 117.5,23.5C 116.803,26.2903 115.803,28.9569 114.5,31.5C 99.7352,39.918 85.4019,39.418 71.5,30C 72.2146,27.3947 73.5479,25.228 75.5,23.5C 83.5638,28.217 92.2304,29.717 101.5,28C 106.168,25.8201 110.834,23.9867 115.5,22.5 Z M 14.5,23.5 C 19.8169,23.8184 24.8169,25.3184 29.5,28C 36.6836,28.831 43.6836,28.4977 50.5,27C 49.7178,29.7405 49.2178,32.5738 49,35.5C 41.595,37.9674 34.095,38.134 26.5,36C 22.3162,34.1626 18.1495,32.3293 14,30.5C 12.1957,28.0764 12.3624,25.7431 14.5,23.5 Z M 138.5,27.5 C 141.66,27.6623 144.16,28.9957 146,31.5C 146.265,33.1626 145.765,34.6626 144.5,36C 136.621,37.3483 134.621,34.5149 138.5,27.5 Z M 70.5,38.5 C 74.2433,39.5345 77.91,40.8678 81.5,42.5C 83.285,46.0055 84.1184,49.6722 84,53.5C 80.7939,51.4808 77.2939,50.4808 73.5,50.5C 71.9116,46.6536 70.9116,42.6536 70.5,38.5 Z M 113.5,38.5 C 114.725,39.1522 115.392,40.3189 115.5,42C 115.917,44.4979 116.251,46.9979 116.5,49.5C 113.572,49.8516 110.738,50.5183 108,51.5C 106.627,48.5875 105.127,45.7542 103.5,43C 107.061,41.7679 110.394,40.2679 113.5,38.5 Z M 22.5,41.5 C 25.4021,42.5778 28.4021,43.2444 31.5,43.5C 32.7019,47.578 34.2019,51.578 36,55.5C 38.7471,66.9335 36.9138,77.6002 30.5,87.5C 27.7971,86.4875 25.4638,84.9875 23.5,83C 29.9246,71.9042 30.0913,60.7375 24,49.5C 23.1785,46.8832 22.6785,44.2165 22.5,41.5 Z M 47.5,42.5 C 49.4926,44.8414 50.826,47.6748 51.5,51C 48.619,52.3578 45.7857,53.8578 43,55.5C 41.2019,51.578 39.7019,47.578 38.5,43.5C 41.7131,43.81 44.7131,43.4767 47.5,42.5 Z M 88.5,44.5 C 91.3035,43.3622 94.3035,43.1955 97.5,44C 103.064,53.0682 104.897,62.9015 103,73.5C 101.058,78.497 99.2243,83.497 97.5,88.5C 94.5,88.5 91.5,88.5 88.5,88.5C 91.4387,81.0173 93.772,73.3506 95.5,65.5C 94.5352,57.9387 92.2019,50.9387 88.5,44.5 Z M 58.5,55.5 C 63.1785,55.3342 67.8452,55.5008 72.5,56C 77.7493,58.127 83.0826,59.9603 88.5,61.5C 89.7978,64.6154 89.4645,67.6154 87.5,70.5C 82.7315,68.9499 78.0648,67.1166 73.5,65C 68.1667,64.3333 62.8333,64.3333 57.5,65C 53.2467,67.4183 48.7467,69.2516 44,70.5C 43.1786,67.4459 43.3452,64.4459 44.5,61.5C 49.1854,59.2806 53.8521,57.2806 58.5,55.5 Z M 114.5,55.5 C 125.26,54.5302 135.26,56.8636 144.5,62.5C 147.125,66.2578 146.125,68.5911 141.5,69.5C 137.191,68.8467 133.191,67.3467 129.5,65C 124.167,64.3333 118.833,64.3333 113.5,65C 112.234,65.3095 111.067,65.8095 110,66.5C 109.179,63.4459 109.345,60.4459 110.5,57.5C 112.026,57.0057 113.359,56.339 114.5,55.5 Z M 14.5,56.5 C 20.2559,55.2543 22.9226,57.5876 22.5,63.5C 22.1667,64.5 21.8333,65.5 21.5,66.5C 18.9433,65.5933 16.4433,64.5933 14,63.5C 12.1957,61.0764 12.3624,58.7431 14.5,56.5 Z M 61.5,70.5 C 64.5184,70.3354 67.5184,70.502 70.5,71C 67.1725,78.164 64.8392,85.664 63.5,93.5C 64.7011,100.765 66.7011,107.765 69.5,114.5C 66.5,114.5 63.5,114.5 60.5,114.5C 59.021,110.198 57.521,105.865 56,101.5C 55.3333,96.1667 55.3333,90.8333 56,85.5C 57.8537,80.4684 59.687,75.4684 61.5,70.5 Z M 115.5,70.5 C 117.527,70.3379 119.527,70.5045 121.5,71C 119.809,74.4009 118.309,77.9009 117,81.5C 113.283,83.0554 109.45,83.8888 105.5,84C 107.255,81.0699 108.422,77.9033 109,74.5C 111.314,73.2668 113.481,71.9334 115.5,70.5 Z M 127.5,71.5 C 130.514,72.2737 133.181,73.607 135.5,75.5C 130.897,83.2584 129.397,91.5918 131,100.5C 133.327,105.314 135.16,110.314 136.5,115.5C 136.167,116.167 135.833,116.833 135.5,117.5C 132.979,116.215 130.313,115.548 127.5,115.5C 126.298,111.422 124.798,107.422 123,103.5C 121,96.8333 121,90.1667 123,83.5C 124.798,79.578 126.298,75.578 127.5,71.5 Z M 52.5,73.5 C 53.0431,73.56 53.3764,73.8933 53.5,74.5C 51.8641,77.9109 50.5308,81.4109 49.5,85C 45.909,87.8046 41.909,88.8046 37.5,88C 39.1667,84.3333 40.8333,80.6667 42.5,77C 46.1632,76.4283 49.4965,75.2617 52.5,73.5 Z M 76.5,73.5 C 79.7886,74.3907 82.7886,75.724 85.5,77.5C 84.3297,80.2087 83.163,82.8754 82,85.5C 78.8991,84.5335 76.0657,83.2002 73.5,81.5C 74.8089,78.9168 75.8089,76.2501 76.5,73.5 Z M 16.5,88.5 C 21.2529,90.0404 25.9196,91.8738 30.5,94C 36.8319,94.9411 42.9985,94.4411 49,92.5C 49.8214,95.5541 49.6548,98.5541 48.5,101.5C 42.6514,103.466 36.6514,103.966 30.5,103C 25.1667,101 19.8333,99 14.5,97C 11.9667,93.5298 12.6334,90.6964 16.5,88.5 Z M 70.5,88.5 C 75.9076,90.0331 81.2409,91.8664 86.5,94C 91.1667,94.6667 95.8333,94.6667 100.5,94C 105.055,91.9621 109.721,90.1288 114.5,88.5C 115.833,91.5 115.833,94.5 114.5,97.5C 109.945,99.6105 105.278,101.444 100.5,103C 95.8333,103.667 91.1667,103.667 86.5,103C 81.2507,100.873 75.9174,99.0397 70.5,97.5C 69.4589,94.5422 69.4589,91.5422 70.5,88.5 Z M 136.5,92.5 C 140.897,92.8425 144.231,94.8425 146.5,98.5C 145.034,102.423 142.368,103.423 138.5,101.5C 136.87,98.7239 136.203,95.7239 136.5,92.5 Z M 115.5,103.5 C 117.263,106.864 118.93,110.364 120.5,114C 117.185,114.941 113.852,115.774 110.5,116.5C 109.42,113.674 108.42,110.841 107.5,108C 110.359,106.74 113.026,105.24 115.5,103.5 Z M 88.5,120.5 C 84.7567,119.466 81.09,118.132 77.5,116.5C 76.2616,112.95 74.9283,109.45 73.5,106C 77.1646,106.645 80.8313,107.645 84.5,109C 87.122,112.405 88.4553,116.239 88.5,120.5 Z M 50.5,107.5 C 52.2663,110.188 53.933,113.021 55.5,116C 51.7931,117.402 48.1264,118.902 44.5,120.5C 43.4614,116.895 42.7947,113.228 42.5,109.5C 45.3725,109.198 48.0392,108.531 50.5,107.5 Z M 25.5,109.5 C 25.9169,108.876 26.5836,108.543 27.5,108.5C 30.222,108.954 32.8886,109.62 35.5,110.5C 38.2198,118.542 38.0531,126.542 35,134.5C 33.0593,138.048 31.3926,141.714 30,145.5C 26.3185,147.399 23.8185,146.399 22.5,142.5C 24.0501,137.731 25.8834,133.065 28,128.5C 28.6667,123.833 28.6667,119.167 28,114.5C 27.6264,112.509 26.793,110.842 25.5,109.5 Z M 92.5,110.5 C 95.3035,109.362 98.3035,109.195 101.5,110C 105.146,122.111 103.646,133.611 97,144.5C 92.8571,147.671 90.3571,146.671 89.5,141.5C 92.5069,135.145 94.5069,128.478 95.5,121.5C 94.8114,117.634 93.8114,113.968 92.5,110.5 Z M 58.5,121.5 C 69.1457,119.941 78.8124,122.274 87.5,128.5C 86.8064,131.088 85.6398,133.421 84,135.5C 75.4452,130.067 66.2785,128.567 56.5,131C 52.0989,133.522 47.4322,135.356 42.5,136.5C 41.8627,133.365 42.5294,130.365 44.5,127.5C 49.0345,124.892 53.7011,122.892 58.5,121.5 Z M 114.5,121.5 C 120.577,121.196 126.577,121.696 132.5,123C 136.419,124.862 140.419,126.529 144.5,128C 147.318,131.878 146.318,134.378 141.5,135.5C 134.993,132.387 128.16,130.387 121,129.5C 116.934,129.641 113.1,130.641 109.5,132.5C 109.167,132.167 108.833,131.833 108.5,131.5C 109.23,128.891 109.73,126.224 110,123.5C 111.622,122.901 113.122,122.234 114.5,121.5 Z M 14.5,122.5 C 22.8645,121.876 24.5311,124.876 19.5,131.5C 13.5433,130.435 11.8766,127.435 14.5,122.5 Z M 59.5,136.5 C 61.924,136.192 64.2573,136.526 66.5,137.5C 65.5682,139.795 64.7348,142.129 64,144.5C 59.8571,147.671 57.3571,146.671 56.5,141.5C 56.3227,139.032 57.3227,137.365 59.5,136.5 Z M 123.5,136.5 C 126.647,136.737 129.647,137.57 132.5,139C 131.686,141.627 130.353,143.96 128.5,146C 126.299,146.825 124.466,146.325 123,144.5C 122.57,141.808 122.737,139.141 123.5,136.5 Z"/></g>
</svg>
