<?xml version="1.0" encoding="UTF-8"?>
<!DOCTYPE svg PUBLIC "-//W3C//DTD SVG 1.1//EN" "http://www.w3.org/Graphics/SVG/1.1/DTD/svg11.dtd">
<svg xmlns="http://www.w3.org/2000/svg" version="1.1" width="180px" height="180px" style="shape-rendering:geometricPrecision; text-rendering:geometricPrecision; image-rendering:optimizeQuality; fill-rule:evenodd; clip-rule:evenodd" xmlns:xlink="http://www.w3.org/1999/xlink">
<g><path style="opacity:0.85" fill="#000000" d="M 60.5,-0.5 C 67.1667,-0.5 73.8333,-0.5 80.5,-0.5C 82.807,0.977392 84.6403,2.97739 86,5.5C 86.3333,10.5 86.6667,15.5 87,20.5C 88.8434,23.1728 91.3434,24.3395 94.5,24C 97.5,21 100.5,18 103.5,15C 107.833,13 112.167,13 116.5,15C 120,18.5 123.5,22 127,25.5C 129.19,30.0277 128.856,34.3611 126,38.5C 123.333,41.1667 120.667,43.8333 118,46.5C 117.989,49.6592 117.155,52.4926 115.5,55C 110.717,55.6608 108.383,53.4941 108.5,48.5C 108.594,46.0772 109.094,43.7438 110,41.5C 113.349,38.318 116.516,34.9846 119.5,31.5C 117.191,27.3575 114.024,24.0242 110,21.5C 106.492,25.3405 102.659,28.8405 98.5,32C 90.6913,33.8415 84.1913,31.6749 79,25.5C 78.6667,20.1667 78.3333,14.8333 78,9.5C 77.5,9 77,8.5 76.5,8C 72.5,7.33333 68.5,7.33333 64.5,8C 63.6929,13.083 63.1929,18.2497 63,23.5C 62.3102,26.196 60.8102,28.3626 58.5,30C 52.8954,33.5053 47.2288,33.8386 41.5,31C 38.5,28 35.5,25 32.5,22C 31.8333,21.3333 31.1667,21.3333 30.5,22C 27.5,25 24.5,28 21.5,31C 24.2969,34.7988 27.4636,38.2988 31,41.5C 33.8386,47.2288 33.5053,52.8954 30,58.5C 28.3626,60.8102 26.196,62.3102 23.5,63C 18.2497,63.1929 13.083,63.6929 8,64.5C 7.33333,68.5 7.33333,72.5 8,76.5C 8.5,77 9,77.5 9.5,78C 23.038,74.5849 31.038,79.5849 33.5,93C 32.8963,95.5838 32.0629,98.0838 31,100.5C 27.8333,103.667 24.6667,106.833 21.5,110C 24.2022,113.741 27.3688,116.907 31,119.5C 35.2029,115.632 39.7029,112.132 44.5,109C 49.0717,108.113 53.405,108.78 57.5,111C 60.1873,112.875 62.0206,115.375 63,118.5C 63.4993,123.489 63.6659,128.489 63.5,133.5C 69.1915,133.626 70.8582,136.293 68.5,141.5C 63.313,143.492 59.1463,142.159 56,137.5C 54.7547,131.61 54.088,125.61 54,119.5C 52.2927,118.541 50.4594,117.875 48.5,117.5C 44,121.159 39.3333,124.659 34.5,128C 31.406,128.652 28.406,128.318 25.5,127C 22,123.5 18.5,120 15,116.5C 13,112.167 13,107.833 15,103.5C 18,100.5 21,97.5 24,94.5C 24.6667,93.5 24.6667,92.5 24,91.5C 23.1859,89.7183 22.0192,88.2183 20.5,87C 15.5,86.6667 10.5,86.3333 5.5,86C 2.97739,84.6403 0.977392,82.807 -0.5,80.5C -0.5,73.8333 -0.5,67.1667 -0.5,60.5C 1.04602,57.8001 3.37935,55.9668 6.5,55C 11.5,54.6667 16.5,54.3333 21.5,54C 22.627,52.2467 23.627,50.4134 24.5,48.5C 21.559,44.0559 18.059,40.0559 14,36.5C 13.1462,32.3749 13.4796,28.3749 15,24.5C 18.1667,21.3333 21.3333,18.1667 24.5,15C 28.3749,13.4796 32.3749,13.1462 36.5,14C 40.6481,17.3137 44.6481,20.8137 48.5,24.5C 50.1667,23.6667 51.8333,22.8333 53.5,22C 54.3071,16.917 54.8071,11.7503 55,6.5C 55.9668,3.37935 57.8001,1.04602 60.5,-0.5 Z"/></g>
<g><path style="opacity:0.834" fill="#000000" d="M 66.5,48.5 C 85.852,48.6828 94.352,58.3495 92,77.5C 85.1219,91.8531 74.2886,96.0198 59.5,90C 45.2184,77.7672 44.885,65.1005 58.5,52C 61.3093,50.9066 63.976,49.7399 66.5,48.5 Z M 67.5,57.5 C 77.1643,57.0001 82.831,61.5001 84.5,71C 81.3589,82.4021 74.3589,86.0687 63.5,82C 54.6562,72.064 55.9895,63.8974 67.5,57.5 Z"/></g>
<g><path style="opacity:0.834" fill="#000000" d="M 179.5,135.5 C 179.5,140.167 179.5,144.833 179.5,149.5C 176.216,159.428 172.883,169.428 169.5,179.5C 167.5,179.5 165.5,179.5 163.5,179.5C 162.847,178.193 162.18,176.86 161.5,175.5C 165.298,164.644 168.631,153.644 171.5,142.5C 171.032,135.867 167.699,131.367 161.5,129C 152.522,127.226 143.522,125.559 134.5,124C 131.304,123.604 128.47,122.438 126,120.5C 125.667,104.5 125.333,88.5 125,72.5C 121.157,68.2713 117.823,68.6046 115,73.5C 114.667,100.5 114.333,127.5 114,154.5C 112.192,156.396 110.025,156.896 107.5,156C 102.135,150.301 96.4685,144.967 90.5,140C 84.2423,139.298 81.7423,142.132 83,148.5C 91,156.5 99,164.5 107,172.5C 107.703,174.929 107.537,177.262 106.5,179.5C 104.5,179.5 102.5,179.5 100.5,179.5C 92.8691,171.368 85.0358,163.368 77,155.5C 70.8757,144.206 73.709,136.039 85.5,131C 88.594,130.348 91.594,130.682 94.5,132C 98.5214,134.237 102.021,137.07 105,140.5C 105.029,116.437 105.696,92.4371 107,68.5C 114.584,58.8488 122.917,58.1822 132,66.5C 132.862,68.087 133.529,69.7536 134,71.5C 134.5,86.1629 134.667,100.83 134.5,115.5C 144.947,116.686 155.28,118.519 165.5,121C 172.443,123.774 177.11,128.607 179.5,135.5 Z"/></g>
</svg>
