<svg width="48" height="48" viewBox="0 0 35 35" fill="none" xmlns="http://www.w3.org/2000/svg">
<path d="M17.062 0.264236L17.0619 0.263969C17.0723 0.260342 17.1085 0.252197 17.1815 0.244663C17.2497 0.237629 17.3373 0.232285 17.4414 0.228954C17.6493 0.222301 17.9147 0.223911 18.2057 0.234062L18.2058 0.234066C25.2784 0.477253 31.5843 5.21384 33.855 11.999C34.4971 13.9186 34.7196 15.3326 34.7196 17.5C34.7196 19.1961 34.6457 19.9126 34.3144 21.3798L34.3143 21.3802C32.8888 27.7509 27.7115 32.9282 21.3408 34.3537L21.3404 34.3537C19.8733 34.685 19.1568 34.759 17.4607 34.759C15.7645 34.759 15.048 34.685 13.5809 34.3537L13.5806 34.3537C8.85208 33.2931 4.62073 30.0894 2.29656 25.8127L2.29645 25.8125C0.943765 23.3303 0.221936 20.6281 0.201689 18.0454L17.062 0.264236ZM17.062 0.264236L17.0518 0.2672M17.062 0.264236L17.0518 0.2672M17.0518 0.2672C16.937 0.300682 16.7803 0.408394 16.6344 0.564621C16.4902 0.719028 16.3847 0.890694 16.3482 1.0225C16.2121 1.54541 16.423 2.09493 16.8485 2.35944L16.8489 2.3597M17.0518 0.2672L16.8489 2.3597M16.8489 2.3597C17.0156 2.46391 17.136 2.49283 17.9781 2.54155L17.9784 2.54157M16.8489 2.3597L17.9784 2.54157M17.9784 2.54157C22.0506 2.78355 25.29 4.19689 28.0269 6.93378C30.3404 9.24729 31.7542 12.0477 32.2666 15.3153C32.3511 15.8471 32.3921 16.6782 32.3921 17.5C32.3921 18.3218 32.3511 19.1529 32.2666 19.6847C31.7542 22.9523 30.3404 25.7527 28.0269 28.0662C25.7133 30.3798 22.9127 31.7937 19.645 32.306L19.6444 32.3061M17.9784 2.54157L19.6444 32.3061M19.6444 32.3061C19.0961 32.3904 18.4552 32.4246 17.4607 32.4246C14.9566 32.4246 12.8748 31.9464 10.7399 30.872C7.95348 29.4718 5.48876 27.0071 4.08861 24.2207L4.08856 24.2206M19.6444 32.3061L4.08856 24.2206M4.08856 24.2206C3.13838 22.3271 2.64723 20.3998 2.50225 18.0111L2.50218 18.0099M4.08856 24.2206L2.50218 18.0099M2.50218 18.0099C2.47806 17.5653 2.45969 17.3285 2.43021 17.1733C2.40373 17.034 2.37003 16.9678 2.30233 16.8647L2.30222 16.8646M2.50218 18.0099L2.30222 16.8646M2.30222 16.8646C2.18021 16.6785 2.05073 16.5586 1.90191 16.4828C1.75181 16.4064 1.5666 16.367 1.32103 16.367C1.13957 16.367 1.03766 16.3758 0.957431 16.3965C0.881936 16.416 0.814282 16.449 0.707179 16.5181C0.576186 16.608 0.400467 16.7857 0.328974 16.9012L0.328991 16.9012M2.30222 16.8646L0.328991 16.9012M0.328991 16.9012L0.32746 16.9036M0.328991 16.9012L0.32746 16.9036M0.32746 16.9036C0.258956 17.0108 0.232969 17.0627 0.217271 17.1896M0.32746 16.9036L0.217271 17.1896M0.217271 17.1896C0.198776 17.3391 0.198224 17.5741 0.201688 18.0453L0.217271 17.1896Z" fill="black" stroke="white" stroke-width="0.4"/>
<path d="M10.9257 1.47704C10.3276 1.72454 10.0048 1.86619 9.80266 1.98364C9.61603 2.09207 9.54067 2.17459 9.44205 2.3149C9.06452 2.87134 9.2769 3.67392 9.91568 4.00569C10.0967 4.09745 10.2679 4.13004 10.5355 4.08395C10.8179 4.03533 11.1985 3.90057 11.7903 3.65084C12.3661 3.40606 12.6724 3.2662 12.862 3.14213C13.0331 3.03017 13.103 2.93567 13.1942 2.75947C13.5846 1.98915 13.0304 1.08423 12.1723 1.0887C11.9486 1.09484 11.6674 1.17491 10.9257 1.47704Z" fill="black" stroke="white" stroke-width="0.4"/>
<path d="M6.36936 4.31835L6.36887 4.31852C6.25958 4.35677 6.04777 4.47927 5.91368 4.58098C5.72599 4.7336 5.36136 5.09252 5.02338 5.44839C4.85509 5.62558 4.69642 5.79883 4.5733 5.94088C4.51166 6.01201 4.46001 6.07406 4.42092 6.12416C4.37908 6.17777 4.35972 6.20753 4.35462 6.21743L4.3546 6.21746C3.86059 7.17609 4.84979 8.25047 5.80849 7.84862L5.80888 7.84845C5.82441 7.84198 5.86719 7.81676 5.9413 7.76087C6.01074 7.70851 6.09564 7.63857 6.19155 7.55506C6.38311 7.38829 6.61188 7.17329 6.83709 6.95019C7.06228 6.72712 7.28185 6.49799 7.45528 6.30331C7.54207 6.20588 7.61604 6.11849 7.67293 6.04568C7.73214 5.9699 7.7649 5.91987 7.77744 5.89441C7.99401 5.44953 7.87972 4.90993 7.46339 4.54713L7.4629 4.5467C7.12473 4.25006 6.76245 4.17961 6.36936 4.31835Z" fill="black" stroke="white" stroke-width="0.4"/>
<path d="M3.8457 9.45373C3.93457 9.53576 4.07129 9.72717 4.14648 9.87072C4.37207 10.3082 4.29688 10.7321 3.79785 11.9078C3.3125 13.0494 3.20996 13.2067 2.81348 13.4117C1.91797 13.8629 0.851562 13.2203 0.851562 12.2223C0.851562 11.9694 0.947266 11.6481 1.23438 10.9508L3.8457 9.45373ZM3.8457 9.45373C3.4834 9.11877 2.82715 8.99572 2.38965 9.18713L3.8457 9.45373ZM1.41927 11.0271C1.12973 11.7302 1.05156 12.0153 1.05156 12.2223C1.05156 13.067 1.95663 13.6187 2.72256 13.2336C2.8986 13.1425 2.99307 13.0725 3.10498 12.9015C3.22906 12.7118 3.36895 12.4055 3.6138 11.8296C3.86344 11.2414 3.99819 10.8607 4.0468 10.5785C4.09296 10.3105 4.06007 10.1398 3.96903 9.96298C3.90024 9.83184 3.77645 9.66199 3.71005 9.60069L3.70993 9.60059C3.56197 9.46379 3.3444 9.36304 3.10959 9.31972C2.87464 9.27638 2.64391 9.29444 2.47057 9.37003C2.25114 9.46846 2.00654 9.6961 1.89814 9.90643C1.84664 10.0099 1.63193 10.5126 1.41927 11.0271Z" fill="black" stroke="white" stroke-width="0.4"/>
<path d="M17.0518 10.9295L17.0487 10.9304C16.9454 10.9602 16.7907 11.0668 16.6423 11.2224C16.4951 11.3768 16.3902 11.5418 16.3585 11.654L16.3585 11.654L16.3574 11.6578C16.3574 11.6577 16.3574 11.6577 16.3573 11.6579C16.3571 11.6588 16.3559 11.6634 16.3542 11.6733C16.3522 11.6846 16.3499 11.6996 16.3476 11.719C16.3428 11.7576 16.3381 11.8087 16.3336 11.8723C16.3246 11.9992 16.3168 12.1692 16.3104 12.3765C16.2976 12.7907 16.2908 13.3473 16.2908 13.9922V16.125V16.3232L16.0926 16.325L13.8231 16.3455C12.6872 16.3558 12.1271 16.361 11.8166 16.3834C11.6623 16.3946 11.5842 16.4093 11.5337 16.4254C11.4872 16.4403 11.4567 16.4583 11.392 16.4992L11.3904 16.5001C11.2745 16.5719 11.0958 16.7488 11.0063 16.88C10.9345 16.9862 10.9023 17.0528 10.8837 17.1276C10.8636 17.2086 10.8563 17.3119 10.8563 17.499C10.8563 17.6862 10.8636 17.7894 10.8837 17.8704C10.9023 17.9453 10.9345 18.0119 11.0063 18.1181C11.0958 18.2492 11.2745 18.4261 11.3904 18.4979L11.3904 18.4979L11.392 18.4989C11.4567 18.5398 11.4873 18.5578 11.5337 18.5727C11.5841 18.5888 11.6619 18.6034 11.8157 18.6146C12.1254 18.6371 12.6838 18.6423 13.8163 18.6525L16.0858 18.6731L16.2822 18.6748L16.284 18.8712L16.3045 21.1408C16.3148 22.2732 16.3199 22.8316 16.3424 23.1413C16.3536 23.2951 16.3682 23.373 16.3844 23.4233C16.3992 23.4697 16.4173 23.5003 16.4582 23.5651L16.4591 23.5666C16.5309 23.6826 16.7078 23.8613 16.839 23.9508C16.9451 24.0226 17.0117 24.0548 17.0866 24.0733C17.1676 24.0934 17.2709 24.1008 17.458 24.1008C17.6452 24.1008 17.7484 24.0934 17.8294 24.0733C17.9043 24.0548 17.9709 24.0226 18.0771 23.9508C18.2082 23.8613 18.3851 23.6826 18.4569 23.5666L18.4569 23.5666L18.4579 23.5651C18.4987 23.5003 18.5168 23.4697 18.5316 23.4233C18.5478 23.373 18.5624 23.2951 18.5736 23.1413C18.5961 22.8316 18.6012 22.2732 18.6115 21.1408L18.632 18.8712L18.6338 18.6748L18.8302 18.6731L21.1066 18.6525L23.3228 18.6326L23.5463 18.4817L23.5463 18.4817L23.5491 18.4798C23.7434 18.3534 23.8661 18.2234 23.9429 18.0752C24.0203 17.9259 24.0598 17.7415 24.0598 17.4922C24.0598 17.3107 24.0509 17.2088 24.0302 17.1286C24.0107 17.0531 23.9778 16.9854 23.9086 16.8783C23.8188 16.7473 23.6411 16.5716 23.5256 16.5001L23.5256 16.5001L23.5241 16.4992C23.4593 16.4583 23.4287 16.4402 23.3823 16.4254C23.332 16.4093 23.2541 16.3946 23.1003 16.3834C22.7906 16.361 22.2322 16.3558 21.0997 16.3455L18.8302 16.325L18.6338 16.3232L18.632 16.1268L18.6115 13.8573C18.6012 12.7248 18.5961 12.1665 18.5736 11.8568C18.5624 11.7029 18.5478 11.6251 18.5316 11.5747C18.5168 11.5283 18.4987 11.4977 18.4579 11.433L18.4578 11.433L18.4569 11.4314C18.1861 10.9935 17.5714 10.7701 17.0518 10.9295ZM16.2891 23.6719C16.3779 23.8154 16.5762 24.0137 16.7266 24.1162C16.959 24.2734 17.082 24.3008 17.458 24.3008C17.834 24.3008 17.957 24.2734 18.1895 24.1162L16.2891 23.6719Z" fill="black" stroke="white" stroke-width="0.4"/>
</svg>
