<svg width="48" height="48" viewBox="0 0 166 120" fill="none" xmlns="http://www.w3.org/2000/svg" style="shape-rendering:geometricPrecision; text-rendering:geometricPrecision; image-rendering:optimizeQuality; fill-rule:evenodd; clip-rule:evenodd" xmlns:xlink="http://www.w3.org/1999/xlink">
<g><path style="opacity:0.873" fill="#000000" d="M 50.5,-0.5 C 53.1667,-0.5 55.8333,-0.5 58.5,-0.5C 59.7525,1.33883 59.7525,3.17216 58.5,5C 52.4932,5.83597 47.4932,8.50264 43.5,13C 36.9451,16.4272 29.9451,17.9272 22.5,17.5C 22.5,28.5 22.5,39.5 22.5,50.5C 26.1667,50.5 29.8333,50.5 33.5,50.5C 32.0816,31.8335 40.7483,24.1668 59.5,27.5C 64.5,27.6667 69.5,27.8333 74.5,28C 77.2966,29.2326 79.9632,30.7326 82.5,32.5C 84.4935,30.5014 86.8268,29.0014 89.5,28C 99.8333,27.3333 110.167,27.3333 120.5,28C 126,29.5 129.5,33 131,38.5C 131.499,42.4862 131.666,46.4862 131.5,50.5C 134.833,50.5 138.167,50.5 141.5,50.5C 141.5,39.5 141.5,28.5 141.5,17.5C 130.628,18.6018 121.628,15.1018 114.5,7C 112.833,6.66667 111.167,6.33333 109.5,6C 96.8333,5.66667 84.1667,5.33333 71.5,5C 70.2475,3.17216 70.2475,1.33883 71.5,-0.5C 85.8333,-0.5 100.167,-0.5 114.5,-0.5C 119.597,2.74761 124.597,6.24761 129.5,10C 135.748,10.1883 141.915,10.6883 148,11.5C 148.333,24.5 148.667,37.5 149,50.5C 157.275,52.6151 162.775,57.6151 165.5,65.5C 165.5,83.1667 165.5,100.833 165.5,118.5C 164.833,118.5 164.5,118.833 164.5,119.5C 157.167,119.5 149.833,119.5 142.5,119.5C 141.239,117.514 141.572,115.681 143.5,114C 148.823,113.501 154.156,113.334 159.5,113.5C 159.5,106.167 159.5,98.8333 159.5,91.5C 117.832,91.6667 76.1653,91.5 34.5,91C 33.0652,88.7328 33.3985,86.7328 35.5,85C 76.832,84.5 118.165,84.3333 159.5,84.5C 159.397,78.1392 158.897,71.8059 158,65.5C 156.167,62.3333 153.667,59.8333 150.5,58C 105.167,57.3333 59.8333,57.3333 14.5,58C 10.6119,60.2215 7.77857,63.3882 6,67.5C 5.50058,73.1569 5.33391,78.8236 5.5,84.5C 10.8437,84.334 16.1771,84.5006 21.5,85C 22.8333,87 22.8333,89 21.5,91C 16.1771,91.4994 10.8437,91.666 5.5,91.5C 5.5,98.8333 5.5,106.167 5.5,113.5C 47.168,113.333 88.8347,113.5 130.5,114C 131.752,115.828 131.752,117.661 130.5,119.5C 87.1667,119.5 43.8333,119.5 0.5,119.5C 0.5,118.833 0.166667,118.5 -0.5,118.5C -0.5,100.5 -0.5,82.5 -0.5,64.5C 2.60873,57.3971 7.94206,52.7304 15.5,50.5C 16.3327,37.5128 16.8327,24.5128 17,11.5C 22.7512,10.6896 28.5845,10.1896 34.5,10C 40.0091,6.63699 45.3424,3.13699 50.5,-0.5 Z M 44.5,34.5 C 54.5056,34.3335 64.5056,34.5002 74.5,35C 78.6928,39.2454 80.3594,44.4121 79.5,50.5C 66.1667,50.5 52.8333,50.5 39.5,50.5C 39.0606,44.3532 40.7273,39.0198 44.5,34.5 Z M 90.5,34.5 C 100.172,34.3335 109.839,34.5002 119.5,35C 121.667,35.8333 123.167,37.3333 124,39.5C 124.499,43.1516 124.665,46.8183 124.5,50.5C 111.5,50.5 98.5,50.5 85.5,50.5C 84.3137,44.1506 85.9803,38.8172 90.5,34.5 Z"/></g>
</svg>
