<svg width="48" height="48" viewBox="0 0 48 48" fill="none" xmlns="http://www.w3.org/2000/svg">
<path d="M16.8048 9.1C16.0551 9.23333 15.0556 9.76667 14.3059 10.4333C13.0047 11.575 12.7204 11.6667 10.2732 11.6667C8.57561 11.6667 8.567 11.6667 8.36019 11.875L8.14476 12.075V16.5833C8.14476 20.8667 8.13615 21.0833 7.98966 21.0833C7.67945 21.0833 6.75743 21.4417 6.24903 21.7583C5.30116 22.35 4.71521 23.0583 4.27574 24.1583L4.0517 24.7083L4.02585 30.65L4 36.5833L4.21542 36.7917L4.43085 37H19.8639H35.2969L35.5037 36.7917C35.788 36.525 35.788 36.1417 35.5037 35.875L35.2969 35.6667H20.3378H5.38733V33V30.3333H7.23998C9.10125 30.3333 9.10125 30.3333 9.30806 30.125C9.59242 29.8583 9.59242 29.475 9.30806 29.2083L9.10125 29H7.23998H5.3701L5.40457 26.9333L5.43042 24.875L5.70616 24.3167C6.08531 23.5417 6.56786 23.0583 7.352 22.6833L8.00689 22.375H24H39.9931L40.648 22.6833C41.4321 23.0583 41.9147 23.5417 42.2938 24.3167L42.5696 24.875L42.5954 26.9333L42.6299 29H27.6622H12.7031L12.4963 29.2083C12.212 29.475 12.212 29.8583 12.4963 30.125L12.7031 30.3333H27.6622H42.6127V33V35.6667H40.76C38.8988 35.6667 38.8988 35.6667 38.6919 35.875C38.4076 36.1417 38.4076 36.525 38.6919 36.7917L38.8988 37H41.234H43.5691L43.7846 36.7917L44 36.5833L43.9741 30.65L43.9483 24.7083L43.7243 24.1583C43.3968 23.3417 43.1125 22.9167 42.5179 22.3417C41.9233 21.775 41.0875 21.325 40.3292 21.1583L39.8552 21.0583V16.5833C39.8552 12.3 39.8466 12.0917 39.6915 11.9083C39.5278 11.7083 39.5019 11.7083 37.5545 11.6667L35.5898 11.625L35.0125 11.3583C34.642 11.1917 34.1939 10.8833 33.763 10.4833C33.3667 10.1333 32.8238 9.74167 32.4619 9.55833C31.402 9.01667 31.221 9 26.1715 9H21.6648L21.458 9.20833C21.3201 9.33333 21.2426 9.50833 21.2426 9.66667C21.2426 9.825 21.3201 10 21.458 10.125L21.6648 10.3333H26.1284C31.7122 10.3333 31.4968 10.2917 32.9186 11.5667C33.7027 12.2667 34.6592 12.7667 35.495 12.9083C35.7794 12.9583 36.5635 13 37.2443 13H38.4765V17V21H37.1064H35.7363L35.7105 19.6L35.676 18.2L35.3572 17.5667C34.9694 16.8083 34.4696 16.3417 33.6682 15.975L33.0909 15.7083H29.5149H25.9388L25.3701 15.9667C25.0599 16.1167 24.6204 16.4 24.3964 16.6L24 16.975L23.6036 16.6C23.3796 16.4 22.9401 16.1167 22.6299 15.9667L22.0612 15.7083H18.4851H14.9091L14.3318 15.975C13.5304 16.3417 13.0306 16.8083 12.6428 17.5667L12.324 18.2L12.2895 19.6L12.2637 21H10.8936H9.52348V17V13H10.7988C11.5657 13 12.2981 12.95 12.6514 12.875C13.4701 12.7083 14.3231 12.25 15.1331 11.525C15.9862 10.7667 16.6583 10.4333 17.5028 10.3583C17.9509 10.3167 18.1405 10.2583 18.2869 10.1167C18.5541 9.85833 18.5455 9.46667 18.2697 9.20833C18.0371 8.975 17.6234 8.95 16.8048 9.1ZM21.8802 17.1C22.3542 17.2333 23.0694 17.925 23.2072 18.3833C23.2676 18.5833 23.3106 19.2167 23.3106 19.8667V21H18.4851H13.6596V19.8667C13.6596 19.2167 13.7027 18.5833 13.763 18.3833C13.8923 17.9583 14.6161 17.2417 15.0383 17.1083C15.4778 16.975 21.4149 16.9667 21.8802 17.1ZM32.91 17.1C33.3839 17.2333 34.0991 17.925 34.237 18.3833C34.2973 18.5833 34.3404 19.2167 34.3404 19.8667V21H29.5149H24.6894V19.8667C24.6894 19.2167 24.7324 18.5833 24.7928 18.3833C24.922 17.9583 25.6458 17.2417 26.0681 17.1083C26.5075 16.975 32.4446 16.9667 32.91 17.1Z" fill="#333333"/>
</svg>
