<svg width="48" height="48" viewBox="0 0 48 48" fill="none" xmlns="http://www.w3.org/2000/svg">
<path d="M5.51896 10.1906C4.37821 10.7235 4.0266 12.2508 4.80013 13.2849C4.91733 13.452 6.15966 14.3111 8.08957 15.5679L11.1837 17.5963L8.2771 17.6361C4.98765 17.6838 5.03453 17.6759 4.47197 18.3202C4.01879 18.8452 3.89377 19.4498 4.08911 20.1339C4.21412 20.5714 4.86264 21.2316 5.29237 21.3589C5.51896 21.4225 6.39407 21.4543 8.17552 21.4543H10.7461L15.1998 23.4112C17.6532 24.493 19.6847 25.3919 19.7159 25.4237C19.7472 25.4476 17.8173 26.3146 15.4264 27.3408C12.7386 28.5022 11.043 29.2738 10.9805 29.3692C10.8946 29.4885 10.8711 29.9658 10.8711 31.6522V33.7761L10.6758 34.0704C9.57412 35.725 10.7696 38 12.7464 38C14.7232 38 15.9186 35.725 14.8169 34.0704C14.645 33.8079 14.6216 33.6965 14.6216 33.0283V32.2727H23.9977H33.3738V33.0283C33.3738 33.6965 33.3503 33.8079 33.1784 34.0704C32.0767 35.725 33.2722 38 35.249 38C37.2258 38 38.4212 35.725 37.3195 34.0704L37.1242 33.7761V31.6442C37.1242 29.7272 37.1086 29.4885 36.9836 29.3453C36.9054 29.2499 35.0458 28.3987 32.5221 27.309L28.1935 25.4476L28.4591 25.3282C28.6076 25.2646 30.6469 24.3657 32.9909 23.3316L37.2648 21.4543H39.8198C41.6013 21.4543 42.4764 21.4225 42.703 21.3589C43.3749 21.1521 44 20.277 44 19.5452C44 18.8691 43.5234 18.1213 42.9218 17.8429C42.6327 17.7077 42.6092 17.6759 42.6795 17.5009C42.8749 16.9679 42.6952 16.26 42.2264 15.727C41.6638 15.0827 41.695 15.0906 37.593 15.0906H34.0223L33.9832 14.3827C33.9051 13.094 33.3113 12.1633 32.2174 11.6065L31.6236 11.3122H24.0055H16.3796L15.8561 11.5667C14.8638 12.044 14.2231 12.8951 14.0434 13.9849L13.9574 14.5338L10.7149 12.4099C8.93342 11.2485 7.33167 10.2303 7.15978 10.1508C6.7066 9.93601 6.01121 9.95192 5.51896 10.1906ZM6.75348 11.3599C6.84724 11.4156 8.51931 12.4894 10.4649 13.7622L13.9965 16.069V16.8645V17.652L13.7387 17.6202C13.3558 17.5804 5.90182 12.6724 5.73774 12.3622C5.41739 11.7338 6.12841 11.0338 6.75348 11.3599ZM31.4517 12.6406C31.8814 12.7679 32.5299 13.4281 32.6549 13.8656C32.7174 14.0804 32.7487 14.7963 32.7487 15.9179V17.6361H32.4362H32.1236V16.2361C32.1236 14.5338 32.0689 14.319 31.5376 13.7781C31.0454 13.269 30.7563 13.1815 29.6311 13.1815C28.8107 13.1815 28.7482 13.1895 28.5685 13.3804C28.4435 13.4997 28.3732 13.6667 28.3732 13.8179C28.3732 13.969 28.4435 14.1361 28.5685 14.2554C28.7482 14.4463 28.8107 14.4542 29.6233 14.4542C30.4359 14.4542 30.4984 14.4622 30.6781 14.6531C30.7875 14.7565 30.8735 14.8997 30.8735 14.9713C30.8735 15.0747 30.1468 15.0906 23.9977 15.0906C17.8485 15.0906 17.1219 15.0747 17.1219 14.9713C17.1219 14.8997 17.2078 14.7565 17.3172 14.6531L17.5047 14.4542H22.1225H26.7402L26.9277 14.2554C27.0527 14.1361 27.123 13.969 27.123 13.8179C27.123 13.6667 27.0527 13.4997 26.9277 13.3804L26.7402 13.1815H22.1146C18.7158 13.1815 17.4032 13.2054 17.1688 13.277C16.9656 13.3406 16.7 13.5236 16.4577 13.7781C15.9264 14.319 15.8717 14.5338 15.8717 16.2361V17.6361H15.5592H15.2467V15.9179C15.2467 14.7963 15.2779 14.0804 15.3404 13.8656C15.4576 13.4599 16.1139 12.7758 16.4968 12.6485C16.9109 12.5213 31.0141 12.5133 31.4517 12.6406ZM30.8735 16.9997V17.6361H23.9977H17.1219V16.9997V16.3634H23.9977H30.8735V16.9997ZM41.3044 16.5622C41.4294 16.6815 41.4997 16.8486 41.4997 16.9997C41.4997 17.1509 41.4294 17.3179 41.3044 17.4372L41.1169 17.6361H37.5539H33.9988V16.9997V16.3634H37.5539H41.1169L41.3044 16.5622ZM42.5545 19.1077C42.8124 19.3623 42.8124 19.7282 42.5545 19.9827L42.367 20.1816H23.9977H5.62835L5.44083 19.9827C5.31582 19.8634 5.24549 19.6964 5.24549 19.5452C5.24549 19.3941 5.31582 19.227 5.44083 19.1077L5.62835 18.9088H23.9977H42.367L42.5545 19.1077ZM25.8104 25.7976L35.8741 30.1488V31.5488V32.9488H35.249H34.6239V31.867C34.6239 30.9442 34.6005 30.7533 34.4911 30.6181C34.4129 30.5226 32.6706 29.7113 30.5219 28.7647C28.4201 27.8419 25.2869 26.4658 23.5679 25.7101C15.6998 22.2498 14.0356 21.518 14.0043 21.4862C13.9887 21.4702 14.3716 21.4543 14.8638 21.4543H15.7467L25.8104 25.7976ZM26.6542 22.4884C25.3416 23.0612 24.2008 23.5464 24.1071 23.5703C24.0055 23.5941 23.0757 23.2362 21.5365 22.568C20.2082 21.9953 19.1065 21.51 19.083 21.4941C19.0674 21.4702 21.2942 21.4543 24.0446 21.4543H29.0373L26.6542 22.4884ZM33.991 21.4862C33.9285 21.5498 26.7011 24.7157 26.6152 24.7157C26.5605 24.7157 26.3183 24.6282 26.0604 24.5248C25.6151 24.3419 25.6072 24.326 25.7948 24.2464C25.9041 24.1987 27.3965 23.5464 29.1155 22.8066L32.2408 21.4543H33.1316C33.6238 21.4543 34.0067 21.4702 33.991 21.4862ZM21.8881 26.3624C22.1459 26.4737 22.3334 26.593 22.3022 26.6249C22.2709 26.6567 20.3097 27.5317 17.9423 28.5658C15.5358 29.6238 13.5824 30.5226 13.5121 30.6181C13.3949 30.7533 13.3714 30.9442 13.3714 31.867V32.9488H12.7464H12.1213V31.5488V30.1488L16.7156 28.1601C19.2393 27.0624 21.3255 26.1635 21.3567 26.1555C21.388 26.1555 21.6224 26.243 21.8881 26.3624ZM26.0604 28.1919L28.006 29.051L25.9979 29.0749C24.8962 29.0828 23.0991 29.0828 22.0053 29.0749L20.0128 29.051L21.9037 28.2078C22.9507 27.7385 23.8727 27.3567 23.9586 27.3487C24.0446 27.3408 24.99 27.7226 26.0604 28.1919ZM31.6939 30.6817L32.3971 30.992H23.9977H15.5983L16.3015 30.6817L17.0047 30.3715H23.9977H30.9907L31.6939 30.6817ZM13.2386 34.2931C14.0434 34.6352 14.2387 35.7011 13.6137 36.3375C13.1058 36.8545 12.3869 36.8545 11.8791 36.3375C10.9102 35.3591 11.9807 33.7522 13.2386 34.2931ZM35.7412 34.2931C36.546 34.6352 36.7413 35.7011 36.1163 36.3375C35.6084 36.8545 34.8896 36.8545 34.3817 36.3375C33.4128 35.3591 34.4833 33.7522 35.7412 34.2931Z" fill="#313131"/>
</svg>
