<svg width="48" height="48" viewBox="0 0 48 48" fill="none" xmlns="http://www.w3.org/2000/svg">
<path d="M24 8C20.8355 8 17.7421 8.93838 15.1109 10.6965C12.4797 12.4546 10.4289 14.9534 9.21793 17.8771C8.00693 20.8007 7.69008 24.0177 8.30744 27.1214C8.92481 30.2251 10.4487 33.0761 12.6863 35.3137C14.9239 37.5513 17.7749 39.0752 20.8786 39.6926C23.9823 40.3099 27.1993 39.9931 30.1229 38.7821C33.0466 37.5711 35.5454 35.5203 37.3035 32.8891C39.0616 30.2579 40 27.1645 40 24C40 19.7565 38.3143 15.6869 35.3137 12.6863C32.3131 9.68571 28.2435 8 24 8ZM24 38.5454C21.1232 38.5454 18.311 37.6924 15.919 36.0941C13.527 34.4958 11.6627 32.2241 10.5618 29.5663C9.46085 26.9085 9.1728 23.9839 9.73404 21.1623C10.2953 18.3408 11.6806 15.749 13.7148 13.7148C15.749 11.6806 18.3408 10.2953 21.1623 9.73403C23.9839 9.17279 26.9085 9.46084 29.5663 10.5618C32.2241 11.6627 34.4958 13.527 36.0941 15.919C37.6924 18.311 38.5455 21.1232 38.5455 24C38.5455 27.8577 37.013 31.5574 34.2852 34.2852C31.5574 37.013 27.8577 38.5454 24 38.5454ZM32 23.2727H24.7273V16C24.7273 15.8071 24.6507 15.6221 24.5143 15.4857C24.3779 15.3493 24.1929 15.2727 24 15.2727C23.8071 15.2727 23.6221 15.3493 23.4857 15.4857C23.3494 15.6221 23.2727 15.8071 23.2727 16V23.2727H16C15.8071 23.2727 15.6221 23.3493 15.4857 23.4857C15.3494 23.6221 15.2727 23.8071 15.2727 24C15.2727 24.1929 15.3494 24.3779 15.4857 24.5143C15.6221 24.6506 15.8071 24.7273 16 24.7273H23.2727V32C23.2727 32.1929 23.3494 32.3779 23.4857 32.5143C23.6221 32.6506 23.8071 32.7273 24 32.7273C24.1929 32.7273 24.3779 32.6506 24.5143 32.5143C24.6507 32.3779 24.7273 32.1929 24.7273 32V24.7273H32C32.1929 24.7273 32.3779 24.6506 32.5143 24.5143C32.6507 24.3779 32.7273 24.1929 32.7273 24C32.7273 23.8071 32.6507 23.6221 32.5143 23.4857C32.3779 23.3493 32.1929 23.2727 32 23.2727Z" fill="#313131"/>
</svg>
