<svg width="48" height="48" viewBox="0 0 48 48" fill="none" xmlns="http://www.w3.org/2000/svg">
<path d="M6.12187 4.1173C5.71562 4.26574 5.18437 4.82824 5.075 5.23449C5.0125 5.46105 4.98906 10.2345 5.00469 21.7892L5.02812 38.0235L5.20781 38.6485C5.45781 39.5314 6.075 40.7345 6.62969 41.4064C7.55156 42.5079 8.96562 43.4142 10.3406 43.7814C11.1922 44.0001 12.8094 44.0235 13.6766 43.8204C14.4344 43.6407 15.1219 43.3673 15.7312 43.0001C15.9891 42.8439 18.1531 41.3204 20.5359 39.6251C22.9187 37.922 28.6766 33.8204 33.325 30.5001C38.114 27.086 41.8562 24.3595 41.9656 24.2189C42.325 23.7345 42.4187 23.1407 42.2234 22.6095C42.0828 22.2189 40.45 19.9611 40.239 19.8673C39.5515 19.547 38.8719 20.2423 39.2234 20.8986C39.2703 20.9923 39.6453 21.5392 40.0437 22.1017C40.45 22.672 40.7703 23.172 40.7547 23.2189C40.7234 23.3126 36.0359 26.6564 35.9422 26.6564C35.8797 26.6564 30.1609 18.6954 29.8797 18.2267C29.8328 18.1642 29.9109 17.922 30.075 17.5782L30.3406 17.0314L32.3015 15.6329C33.3875 14.8673 34.3094 14.2345 34.3484 14.2345C34.3953 14.2345 34.7156 14.6407 35.0672 15.1329C35.8015 16.1642 36.0203 16.3282 36.4812 16.1954C36.825 16.0939 37.0203 15.8282 37.0203 15.4611C37.0203 15.2501 36.8875 15.0001 36.4265 14.3439C35.6844 13.2814 35.4265 13.0079 35.0281 12.8204C34.6531 12.6486 34.0672 12.6329 33.7078 12.7814C33.5672 12.8439 33.1297 13.1251 32.739 13.4064C32.3406 13.6876 32.0047 13.922 31.9812 13.922C31.9578 13.922 32.1531 13.5157 32.4109 13.0236C32.825 12.2267 32.8797 12.0782 32.8797 11.672C32.8797 11.1251 32.6531 10.6407 32.2547 10.3204C32.1062 10.2032 29.739 8.96105 26.9969 7.5548L22.0203 5.00012L21.4812 5.03137C20.8172 5.06262 20.3953 5.32043 20.0984 5.85949C19.9891 6.06262 19.7469 6.4923 19.575 6.81262L19.2469 7.39855L19.2078 6.25012C19.1687 5.13293 19.1609 5.10168 18.9344 4.76574C18.7781 4.54699 18.5516 4.35168 18.2781 4.21105L17.8484 4.00012H12.1453C7.42656 4.00793 6.37969 4.02355 6.12187 4.1173ZM17.6453 8.57043V11.5782H12.0984H6.55156V8.62511C6.55156 7.00012 6.575 5.64074 6.60625 5.6173C6.62969 5.58605 9.12969 5.56262 12.1531 5.56262H17.6453V8.57043ZM26.5437 9.07824C29.2547 10.4767 31.3172 11.5861 31.3172 11.6407C31.3172 11.7032 30.7078 12.922 29.9734 14.3595L28.6219 16.9611L27.7625 16.5079C27.2937 16.2579 25.1687 15.1642 23.0594 14.0782L19.2078 12.1017V11.5236V10.9454L20.1531 9.09386C21.4109 6.64074 21.4578 6.56262 21.6219 6.59387C21.7 6.60949 23.9109 7.72668 26.5437 9.07824ZM17.6453 16.1876V19.2345H12.0984H6.55156V16.1876V13.1407H12.0984H17.6453V16.1876ZM23.5828 16.1095C25.9187 17.3126 27.8406 18.3126 27.8641 18.3282C27.8875 18.3595 25.2781 23.5548 25.1766 23.6798C25.1609 23.6954 24.8797 23.5704 24.5437 23.3986C24.2078 23.2189 23.0203 22.6173 21.9031 22.0392C20.7859 21.4689 19.7312 20.922 19.5594 20.8282L19.2469 20.6564L19.2234 17.2892C19.2156 15.4376 19.2312 13.922 19.2703 13.922C19.3016 13.922 21.2469 14.9064 23.5828 16.1095ZM34.5984 27.6095C34.5984 27.6407 33.5047 28.4454 32.1687 29.4064C29.8484 31.0548 29.7312 31.1329 29.6219 30.9845C28.6453 29.672 25.9266 25.7892 25.9266 25.7189C25.9266 25.6251 26.8172 23.8595 28.3641 20.8907L28.9891 19.6954L31.7937 23.6251C33.3328 25.7892 34.5984 27.5782 34.5984 27.6095ZM17.6453 23.8048V26.8126H12.0984H6.55156V23.8048V20.797H12.0984H17.6453V23.8048ZM22.1141 23.9142L24.4344 25.1017L23.4578 26.9923C22.9187 28.0314 22.3016 29.2423 22.075 29.6798L21.6766 30.4767L20.4422 29.8439L19.2078 29.2032V25.8751C19.2078 24.0392 19.2312 22.5157 19.2625 22.4923C19.2859 22.4611 19.4187 22.5079 19.5516 22.5861C19.6844 22.6642 20.8406 23.2657 22.1141 23.9142ZM26.7469 29.6564C27.6375 30.8985 28.3797 31.9532 28.3953 32.0001C28.4266 32.086 23.6609 35.5235 23.5437 35.5001C23.5203 35.5001 23.1453 35.0079 22.7234 34.4142L21.9578 33.336L23.0828 31.1485C23.7078 29.9454 24.3953 28.6017 24.6219 28.1564C24.8406 27.7189 25.0516 27.3673 25.0828 27.3751C25.1141 27.3907 25.8641 28.4142 26.7469 29.6564ZM17.6453 33.0079C17.6453 37.3673 17.6375 37.6798 17.4891 38.2501C17.2469 39.211 16.7703 40.0314 16.0437 40.7579C15.3328 41.4689 14.6766 41.8829 13.7781 42.1798C13.2391 42.3595 13.0203 42.3907 12.1766 42.3907C11.4656 42.3907 11.0594 42.3517 10.7 42.2501C8.80937 41.7267 7.30937 40.2423 6.73906 38.3282C6.61406 37.9142 6.59844 37.3907 6.575 33.1173L6.54375 28.3751H12.0984H17.6453V33.0079ZM20.1219 31.4376C20.5437 31.6564 20.9031 31.8517 20.9187 31.8595C20.95 31.8907 19.3797 34.9454 19.2781 35.047C19.2391 35.0939 19.2078 34.3439 19.2078 33.0782C19.2078 31.797 19.2391 31.0314 19.2859 31.0314C19.325 31.0314 19.7 31.211 20.1219 31.4376ZM21.5906 35.5001C21.8094 35.8126 22.0437 36.1564 22.1141 36.2657L22.2547 36.4767L20.8172 37.5001C20.0203 38.0704 19.3484 38.5314 19.325 38.5314C19.3016 38.5314 19.6922 37.7267 20.2 36.7345C20.7078 35.7501 21.1375 34.9376 21.1609 34.9454C21.1844 34.9454 21.3797 35.1954 21.5906 35.5001Z" fill="black"/>
</svg>
