<svg width="11" height="12" viewBox="0 0 11 12" fill="none" xmlns="http://www.w3.org/2000/svg">
<path d="M10.4634 0.00571619C10.4464 0.00759119 10.3757 0.0141537 10.3067 0.0188412C9.69542 0.0675912 9.392 0.179154 8.86572 0.546654C8.57484 0.750091 8.41731 0.888841 8.3824 0.972279C8.34213 1.06603 8.25889 1.18228 7.98053 1.53384C7.4999 2.13853 6.61471 3.36478 5.6776 4.72509C4.89713 5.85853 4.48362 6.4904 4.28045 6.86259C4.18021 7.04728 4.10413 7.17103 4.01552 7.2929C3.93676 7.40165 3.75506 7.68665 3.54473 8.02978C3.18403 8.61853 3.03008 8.84259 2.85645 9.03103C2.77858 9.1154 2.74546 9.14072 2.71324 9.14072C2.68102 9.14072 2.59152 9.04322 2.53871 8.95884C2.47516 8.85853 2.43489 8.77228 2.32301 8.49947C2.12341 8.00915 1.88265 7.47759 1.80925 7.36228C1.75824 7.28353 1.68842 7.2179 1.62846 7.1954C1.58639 7.17947 1.55775 7.17665 1.40559 7.17665C1.25344 7.17665 1.21406 7.1804 1.15498 7.19353C0.934804 7.24322 0.683299 7.36228 0.447904 7.52915C0.191028 7.71197 0.0379771 7.89853 0.00844089 8.06728C-0.0291506 8.27728 0.0693033 8.71228 0.439849 9.97509C0.654657 10.7073 0.795178 11.0963 0.954495 11.401C1.02789 11.5426 1.21764 11.8585 1.23464 11.8679C1.27223 11.8895 1.46377 11.9335 1.6562 11.9673C1.92471 12.0132 2.24335 12.0095 2.53781 11.9579C2.68997 11.9307 2.80096 11.8979 2.89672 11.851C2.96117 11.8192 2.97549 11.807 3.03187 11.7367C3.16166 11.5726 3.37736 11.2585 3.65661 10.8235C4.11308 10.112 4.32431 9.79509 4.40218 9.69853C4.42813 9.66759 4.47915 9.58697 4.51674 9.5204C4.55433 9.4529 4.61251 9.34978 4.64563 9.29072C4.80226 9.01228 5.30169 8.2529 6.08216 7.10634C7.08281 5.63634 7.95279 4.40822 8.1658 4.16634C8.22488 4.09884 8.30006 3.99197 8.46296 3.7454C8.64465 3.47165 8.74758 3.32822 8.86125 3.19697C9.00266 3.03197 9.17093 2.81634 9.47256 2.40947C9.87443 1.86759 10.083 1.59572 10.27 1.37353C10.492 1.11009 10.8545 0.561654 10.9467 0.351654C11.0049 0.218529 11.0138 0.144466 10.978 0.0882162C10.9565 0.0525912 10.8813 0.0216537 10.7945 0.0104037C10.7256 0.00102869 10.5385 -0.000846314 10.4634 0.00571619Z" fill="white"/>
</svg>