<svg width="48" height="48" viewBox="0 0 48 48" fill="none" xmlns="http://www.w3.org/2000/svg">
<path d="M13.7951 17.0279C13.4513 16.6911 13.5705 16.1088 14.0196 15.9194C14.0967 15.8913 16.5384 15.8632 19.4361 15.8632L24.7193 15.8562L24.9438 16.0597C25.1332 16.2281 25.1753 16.3123 25.1753 16.5578C25.1753 16.8034 25.1332 16.8876 24.9438 17.056L24.7122 17.2595L19.3519 17.2454L13.9845 17.2244L13.7951 17.0279Z" fill="#313131"/>
<path d="M11.2133 15.9194C10.7783 16.1018 10.6449 16.6911 10.9747 17.0139C11.0729 17.1121 11.2694 17.2103 11.4097 17.2384C11.6342 17.2735 11.6974 17.2454 11.9219 17.0209C12.1534 16.7894 12.1745 16.7332 12.1394 16.5017C12.0622 16.0386 11.6132 15.758 11.2133 15.9194Z" fill="#313131"/>
<path fill-rule="evenodd" clip-rule="evenodd" d="M9.42533 24.1998H40.7353C41.3319 24.1339 41.4947 23.9882 41.8388 23.6441C42.5825 22.9004 42.6597 21.8269 42.0352 20.9359L41.7546 20.536L41.8949 20.3535C42.7158 19.238 42.6106 17.6734 41.6423 16.7051C41.4529 16.5157 41.1652 16.2912 41.0109 16.214C40.3092 15.8562 40.2882 15.8562 34.6402 15.8562H29.364L29.2728 15.5896C28.9781 14.6775 28.2625 13.8074 27.4977 13.4496L27.4798 13.4411C27.3614 13.3849 27.26 13.3367 27.1559 13.2954C26.5356 13.0497 25.8179 13.0497 20.8253 13.0497L15.4228 13.0427L13.9144 10.5098C12.2305 7.68232 11.9779 7.35957 11.2131 7.00877C10.6588 6.75618 9.859 6.68602 9.35384 6.83336C8.19617 7.17014 7.39632 8.11031 7.27705 9.26798C7.19285 10.0889 7.32616 10.4607 8.29439 12.0674L8.8627 13.0146L8.47682 13.0637C7.69802 13.169 7.04551 13.632 6.72978 14.3056C6.58946 14.6213 6.58245 14.7266 6.5614 17.8488C6.54736 19.9677 6.56841 21.1955 6.61753 21.434C6.821 22.4233 7.56471 23.4126 8.4277 23.8476C8.7883 24.0314 9.0634 24.1387 9.42533 24.1998ZM10.4975 8.22257C10.6518 8.27168 10.8764 8.40499 10.9956 8.52426C11.15 8.67862 13.2759 12.1236 13.753 12.9936C13.767 13.0287 13.0444 13.0497 12.1463 13.0497L10.5115 13.0427L9.64852 11.5973C8.6873 9.98363 8.57504 9.71 8.70835 9.21886C8.83464 8.75579 9.01706 8.53128 9.43803 8.32079C9.84497 8.11732 10.0765 8.09627 10.4975 8.22257ZM26.761 14.6354C27.182 14.8318 27.638 15.2879 27.8345 15.7088C27.9748 16.0175 27.9818 16.1649 28.0169 18.5364L28.052 21.0482L28.2484 21.2376L28.4379 21.434L40.646 21.5042L40.8355 21.7007C41.1021 21.9673 41.1021 22.3742 40.8355 22.6408L40.646 22.8373H9.52924L9.2065 22.6899C8.78553 22.4935 8.32948 22.0374 8.13302 21.6165C7.98568 21.3007 7.98568 21.2165 7.98568 18.0943C7.98568 14.9862 7.9927 14.8809 8.12601 14.7336C8.20318 14.6494 8.32948 14.5512 8.40665 14.5161C8.48383 14.488 12.5743 14.467 17.4926 14.474L26.4382 14.488L26.761 14.6354ZM40.2742 17.4348C40.8004 17.7014 41.0319 18.0733 41.0319 18.6697C41.0319 19.0626 41.0038 19.1748 40.8425 19.4064C40.7372 19.5537 40.5338 19.7572 40.3864 19.8554L40.1268 20.0308L34.7735 20.0519L29.4201 20.0659V17.2594H39.9163L40.2742 17.4348Z" fill="#313131"/>
<path fill-rule="evenodd" clip-rule="evenodd" d="M23.5697 28.3121L23.4581 28.2639C15.757 24.9372 14.123 24.2307 14.0922 24.1999H10.9337L15.2773 26.0745C17.7085 27.1275 19.7216 28.0024 19.7526 28.0334C19.7835 28.0566 17.8711 28.9005 15.5018 29.8993C12.8383 31.0298 11.1582 31.7808 11.0962 31.8737C11.0111 31.9899 10.9878 32.4544 10.9878 34.0959V36.1632L10.7943 36.4497C9.70254 38.0601 10.8872 40.2746 12.8461 40.2746C14.805 40.2746 15.9896 38.0601 14.8979 36.4497C14.7276 36.1942 14.7043 36.0858 14.7043 35.4354V34.6998H33.2868V35.4354C33.2868 36.0858 33.2635 36.1942 33.0932 36.4497C32.0015 38.0601 33.1861 40.2746 35.145 40.2746C37.1039 40.2746 38.2886 38.0601 37.1968 36.4497L37.0033 36.1632V34.0881C37.0033 32.2222 36.9878 31.9899 36.8639 31.8505C36.7865 31.7576 34.9437 30.9291 32.4428 29.8684L28.1534 28.0566L28.4166 27.9404C28.5637 27.8785 30.5846 27.0036 32.9074 25.997L37.0729 24.1999L33.8985 24.2007C33.8365 24.2627 26.6745 27.3443 26.5893 27.3443C26.5352 27.3443 26.2951 27.2591 26.0396 27.1584C25.5983 26.9804 25.5905 26.9649 25.7764 26.8874L25.8066 26.8745C26.0485 26.7707 27.4575 26.1664 29.067 25.486L32.0933 24.1999H28.919L26.6281 25.1763C25.3273 25.7338 24.1969 26.2061 24.1039 26.2293C24.0033 26.2525 23.0819 25.9041 21.5566 25.2537C20.2403 24.6963 19.1486 24.224 19.1254 24.2085C19.1234 24.2055 19.1587 24.2026 19.2275 24.1999H15.8903L35.7644 32.6325V35.3579H34.5256V34.3049C34.5256 33.4068 34.5024 33.221 34.394 33.0893C34.3166 32.9964 32.5899 32.2067 30.4607 31.2853C28.3779 30.3871 25.2731 29.0477 23.5697 28.3121ZM21.905 28.947C22.1605 29.0554 22.3464 29.1715 22.3154 29.2025C22.2844 29.2335 20.341 30.0852 17.995 31.0917C15.6102 32.1215 13.6745 32.9964 13.6049 33.0893C13.4887 33.221 13.4655 33.4068 13.4655 34.3049V35.3579H12.2267V32.6325L16.7794 30.6968C19.2803 29.6284 21.3476 28.7534 21.3785 28.7457C21.4095 28.7457 21.6418 28.8309 21.905 28.947ZM26.0396 30.7278L27.9675 31.564L25.9777 31.5873C24.886 31.595 23.1051 31.595 22.0212 31.5873L20.0468 31.564L21.9205 30.7433C22.958 30.2865 23.8717 29.9148 23.9568 29.9071C24.042 29.8993 24.9789 30.271 26.0396 30.7278ZM17.0658 32.8493H30.9253L32.3189 33.4532H15.6722L17.0658 32.8493ZM13.3339 36.6665C14.1314 36.9994 14.3249 38.0369 13.7055 38.6563C13.2022 39.1596 12.4899 39.1596 11.9866 38.6563C11.0265 37.704 12.0873 36.14 13.3339 36.6665ZM35.6328 36.6665C36.4303 36.9994 36.6239 38.0369 36.0045 38.6563C35.5012 39.1596 34.7889 39.1596 34.2856 38.6563C33.3255 37.704 34.3862 36.14 35.6328 36.6665Z" fill="#313131"/>
</svg>
