<svg width="48" height="48" viewBox="0 0 48 48" fill="none" xmlns="http://www.w3.org/2000/svg">
<rect width="48" height="48" fill="white"/>
<mask id="mask0_3582_14415" style="mask-type:alpha" maskUnits="userSpaceOnUse" x="0" y="3" width="48" height="23">
<path d="M48 3H0V25.2857H48V3Z" fill="white"/>
</mask>
<g mask="url(#mask0_3582_14415)">
<path d="M9.22192 7.85209C8.05384 8.19017 7.24676 9.13397 7.12641 10.2961C7.04146 11.1202 7.17597 11.4935 8.15296 13.1064L8.7264 14.0572L8.33696 14.1066C7.55118 14.2122 6.89278 14.6771 6.57422 15.3532C6.43262 15.6701 6.42554 15.7758 6.4043 18.9101C6.39014 21.0372 6.41138 22.2697 6.46094 22.5092C6.66625 23.5024 7.41666 24.4954 8.28744 24.9322C9.00952 25.2984 9.39184 25.3618 10.7936 25.3618L12.0891 25.3688C12.0891 27.51 12.0254 32.8277 11.99 32.8277C11.9546 32.8277 11.7634 32.9756 11.5652 33.1517C10.39 34.2012 10.3546 36.0747 11.4874 37.2016C12.5846 38.2933 14.3546 38.2933 15.4518 37.2016C15.8483 36.8072 16.0465 36.448 16.2022 35.8423C16.3438 35.3 16.3014 34.659 16.089 34.1871C16.0111 34.011 15.9474 33.856 15.9474 33.8419C15.9474 33.8279 19.7066 33.8138 24.3011 33.8138C28.8957 33.8138 32.6549 33.8279 32.6549 33.8419C32.6549 33.856 32.5912 34.011 32.5133 34.1871C32.3009 34.659 32.2584 35.3 32.4 35.8423C32.5558 36.448 32.754 36.8072 33.1505 37.2016C34.2478 38.2933 36.0176 38.2933 37.115 37.2016C38.2477 36.0747 38.2122 34.2012 37.037 33.1517C36.8388 32.9756 36.6477 32.8277 36.6123 32.8277C36.5769 32.8277 36.5486 31.2359 36.5486 29.1018V25.3688L38.7998 25.3477C41.3485 25.3265 41.4122 25.3125 41.9998 24.7279C42.7502 23.9813 42.8281 22.9037 42.198 22.0092L41.9148 21.6077L42.0564 21.4246C42.8847 20.3047 42.7785 18.734 41.8015 17.7621C41.6104 17.5719 41.3202 17.3465 41.1644 17.269C40.4564 16.9098 40.4352 16.9098 34.7362 16.9098H29.4125L29.3205 16.6421C29.0231 15.7265 28.301 14.8531 27.5294 14.4939C26.6798 14.0925 26.7223 14.0925 20.7968 14.0925L15.3457 14.0854L13.8236 11.5428C12.1245 8.70433 11.8696 8.38034 11.098 8.02817C10.5387 7.77461 9.73168 7.70417 9.22192 7.85209ZM10.3758 9.24666C10.5316 9.29597 10.7582 9.4298 10.8785 9.54953C11.0342 9.70448 13.1794 13.1628 13.6607 14.0361C13.6749 14.0713 12.9457 14.0925 12.0395 14.0925L10.39 14.0854L9.51928 12.6345C8.54936 11.0145 8.43608 10.7398 8.57064 10.2468C8.69808 9.78196 8.88208 9.55657 9.30688 9.34527C9.71752 9.14101 9.95112 9.11989 10.3758 9.24666ZM26.786 15.6842C27.2108 15.8815 27.671 16.3393 27.8692 16.7619C28.0108 17.0718 28.0178 17.2197 28.0533 19.6004L28.0886 22.1219L28.2869 22.312L28.478 22.5092L34.6371 22.5445L40.7962 22.5797L40.9874 22.7769C41.2564 23.0446 41.2564 23.453 40.9874 23.7207L40.7962 23.9179H25.094H9.39888L9.07328 23.77C8.64848 23.5728 8.18832 23.115 7.9901 22.6924C7.84143 22.3754 7.84143 22.2909 7.84143 19.1566C7.84143 16.0364 7.84851 15.9308 7.98302 15.7828C8.06088 15.6983 8.18832 15.5997 8.26624 15.5645C8.34408 15.5364 12.4714 15.5153 17.4341 15.5223L26.4604 15.5364L26.786 15.6842ZM40.421 18.4945C40.952 18.7622 41.1856 19.1355 41.1856 19.7342C41.1856 20.1286 41.1573 20.2413 40.9945 20.4738C40.8883 20.6216 40.683 20.8259 40.5343 20.9245L40.2724 21.1006L34.8707 21.1217L29.4691 21.1358V19.7271V18.3185H34.7646H40.06L40.421 18.4945ZM14.8855 27.4748V29.5878H14.1775H13.4696V27.4748V25.3618H14.1775H14.8855V27.4748ZM32.3009 27.4748V29.5878H24.3011H16.3014V27.4748V25.3618H24.3011H32.3009V27.4748ZM35.1327 27.4748V29.5878H34.4247H33.7168V27.4748V25.3618H34.4247H35.1327V27.4748ZM35.1327 31.7008V32.4051H24.3011H13.4696V31.7008V30.9964H24.3011H35.1327V31.7008ZM14.0855 33.9899C14.6165 34.2575 14.8501 34.6308 14.8501 35.2224C14.8501 35.7719 14.6731 36.117 14.2271 36.4057C13.9864 36.5607 13.859 36.5959 13.4766 36.5959C12.9174 36.5959 12.5705 36.4198 12.2802 35.9761C12.1174 35.7366 12.0891 35.6098 12.0891 35.2295C12.0891 34.8351 12.1245 34.7154 12.2944 34.4688C12.528 34.1237 13.0802 33.8138 13.4696 33.8138C13.6112 33.8138 13.8873 33.8913 14.0855 33.9899ZM35.7486 33.9899C36.2796 34.2575 36.5132 34.6308 36.5132 35.2224C36.5132 35.7719 36.3362 36.117 35.8902 36.4057C35.6495 36.5607 35.5221 36.5959 35.1398 36.5959C34.5805 36.5959 34.2336 36.4198 33.9434 35.9761C33.7806 35.7366 33.7522 35.6098 33.7522 35.2295C33.7522 34.8351 33.7876 34.7154 33.9575 34.4688C34.1911 34.1237 34.7434 33.8138 35.1327 33.8138C35.2743 33.8138 35.5504 33.8913 35.7486 33.9899Z" fill="#313131"/>
<path d="M11.098 16.9732C10.6591 17.1564 10.5246 17.748 10.8574 18.072C10.9565 18.1706 11.1546 18.2691 11.2962 18.2973C11.5228 18.3326 11.5865 18.3044 11.813 18.079C12.0466 17.8466 12.0679 17.7902 12.0325 17.5578C11.9546 17.0929 11.5015 16.8112 11.098 16.9732Z" fill="#313131"/>
<path d="M13.9298 16.9731C13.4766 17.1633 13.3563 17.7479 13.7032 18.086L13.8943 18.2832L19.3101 18.3043L24.7188 18.3184L24.9524 18.1142C25.1436 17.9451 25.1861 17.8606 25.1861 17.6141C25.1861 17.3676 25.1436 17.2831 24.9524 17.114L24.7259 16.9098L19.395 16.9168C16.4713 16.9168 14.0076 16.945 13.9298 16.9731Z" fill="#313131"/>
</g>
<mask id="mask1_3582_14415" style="mask-type:alpha" maskUnits="userSpaceOnUse" x="5" y="25" width="38" height="17">
<path d="M42.4 25.2857H5.6V42H42.4V25.2857Z" fill="#D9D9D9"/>
</mask>
<g mask="url(#mask1_3582_14415)">
<path d="M5.51878 14.2494C4.37816 14.7702 4.0266 16.2625 4.80004 17.273C4.91722 17.4362 6.15941 18.2757 8.08912 19.5038L11.1829 21.4858L8.27656 21.5246C4.98754 21.5712 5.03442 21.5635 4.47191 22.1931C4.01878 22.7061 3.89378 23.2968 4.0891 23.9652C4.2141 24.3928 4.86254 25.0379 5.29222 25.1622C5.51878 25.2244 6.39378 25.2555 8.17504 25.2555H10.7454L15.1985 27.1676C17.6516 28.2246 19.6829 29.1029 19.7141 29.1341C19.7454 29.1574 17.8157 30.0046 15.425 31.0073C12.7375 32.1421 11.0422 32.896 10.9798 32.9892C10.8938 33.1058 10.8703 33.5723 10.8703 35.22V37.2953L10.675 37.5829C9.57344 39.1996 10.7688 41.4226 12.7454 41.4226C14.7219 41.4226 15.9172 39.1996 14.8157 37.5829C14.6438 37.3264 14.6203 37.2176 14.6203 36.5647V35.8263H23.9954H33.3703V36.5647C33.3703 37.2176 33.3469 37.3264 33.175 37.5829C32.0734 39.1996 33.2688 41.4226 35.2454 41.4226C37.2219 41.4226 38.4172 39.1996 37.3157 37.5829L37.1203 37.2953V35.2122C37.1203 33.3391 37.1047 33.1059 36.9798 32.9659C36.9016 32.8726 35.0422 32.041 32.5188 30.9761L28.1906 29.1574L28.4563 29.0408C28.6047 28.9786 30.6438 28.1003 32.9875 27.0898L37.261 25.2555H39.8157C41.5969 25.2555 42.4719 25.2244 42.6985 25.1622C43.3703 24.9601 43.9954 24.1051 43.9954 23.3901C43.9954 22.7294 43.5188 21.9987 42.9172 21.7267C42.6282 21.5946 42.6047 21.5635 42.675 21.3925C42.8703 20.8717 42.6906 20.18 42.2219 19.6592C41.6594 19.0296 41.6906 19.0374 37.5891 19.0374H34.0188L33.9798 18.3456C33.9016 17.0865 33.3078 16.1771 32.2141 15.633L31.6203 15.3454H24.0032H16.3782L15.8547 15.5941C14.8626 16.0605 14.2219 16.8921 14.0422 17.957L13.9563 18.4933L10.7141 16.418C8.93288 15.2832 7.33129 14.2883 7.15942 14.2106C6.70629 14.0007 6.01098 14.0162 5.51878 14.2494ZM6.75316 15.3921C6.84691 15.4464 8.5188 16.4958 10.4641 17.7394L13.9954 19.9934V20.7707V21.5402L13.7375 21.5091C13.3547 21.4702 5.9016 16.6745 5.73754 16.3713C5.41722 15.7573 6.12816 15.0734 6.75316 15.3921ZM31.4485 16.6434C31.8782 16.7678 32.5266 17.4129 32.6516 17.8404C32.7141 18.0503 32.7454 18.7498 32.7454 19.8458V21.5246H32.4329H32.1203V20.1567C32.1203 18.4933 32.0657 18.2835 31.5344 17.7549C31.0422 17.2574 30.7532 17.172 29.6282 17.172C28.8078 17.172 28.7454 17.1798 28.5657 17.3662C28.4406 17.4828 28.3703 17.6461 28.3703 17.7937C28.3703 17.9415 28.4406 18.1047 28.5657 18.2212C28.7454 18.4078 28.8078 18.4156 29.6203 18.4156C30.4329 18.4156 30.4954 18.4234 30.675 18.6099C30.7844 18.711 30.8703 18.8509 30.8703 18.9208C30.8703 19.0218 30.1438 19.0374 23.9954 19.0374C17.8469 19.0374 17.1203 19.0218 17.1203 18.9208C17.1203 18.8509 17.2063 18.711 17.3157 18.6099L17.5032 18.4156H22.1203H26.7375L26.925 18.2212C27.05 18.1047 27.1203 17.9415 27.1203 17.7937C27.1203 17.6461 27.05 17.4828 26.925 17.3662L26.7375 17.172H22.1126C18.7141 17.172 17.4016 17.1953 17.1672 17.2652C16.9641 17.3274 16.6985 17.5062 16.4563 17.7549C15.925 18.2835 15.8703 18.4933 15.8703 20.1567V21.5246H15.5578H15.2454V19.8458C15.2454 18.7498 15.2766 18.0503 15.3391 17.8404C15.4563 17.444 16.1126 16.7755 16.4954 16.6512C16.9094 16.5268 31.011 16.5191 31.4485 16.6434ZM30.8703 20.9028V21.5246H23.9954H17.1203V20.9028V20.281H23.9954H30.8703V20.9028ZM41.3 20.4753C41.425 20.5919 41.4954 20.7551 41.4954 20.9028C41.4954 21.0505 41.425 21.2137 41.3 21.3303L41.1126 21.5246H37.55H33.9954V20.9028V20.281H37.55H41.1126L41.3 20.4753ZM42.55 22.9626C42.8078 23.2113 42.8078 23.5688 42.55 23.8176L42.3626 24.0118H23.9954H5.62816L5.44066 23.8176C5.31566 23.701 5.24535 23.5377 5.24535 23.3901C5.24535 23.2424 5.31566 23.0792 5.44066 22.9626L5.62816 22.7682H23.9954H42.3626L42.55 22.9626ZM25.8078 29.4994L35.8703 33.751V35.119V36.487H35.2454H34.6203V35.4299C34.6203 34.5282 34.5969 34.3418 34.4875 34.2096C34.4094 34.1163 32.6672 33.3235 30.5188 32.3985C28.4172 31.4969 25.2844 30.1523 23.5657 29.4138C15.6985 26.0328 14.0344 25.3177 14.0032 25.2866C13.9875 25.2711 14.3703 25.2555 14.8626 25.2555H15.7454L25.8078 29.4994ZM26.6516 26.266C25.3391 26.8256 24.1985 27.2997 24.1047 27.323C24.0032 27.3463 23.0734 26.9965 21.5344 26.3436C20.2063 25.784 19.1047 25.3099 19.0813 25.2944C19.0657 25.2711 21.2922 25.2555 24.0422 25.2555H29.0344L26.6516 26.266ZM33.9875 25.2866C33.925 25.3488 26.6985 28.4422 26.6126 28.4422C26.5578 28.4422 26.3157 28.3568 26.0578 28.2558C25.6126 28.077 25.6047 28.0614 25.7922 27.9837C25.9016 27.9371 27.3938 27.2997 29.1126 26.5769L32.2375 25.2555H33.1282C33.6203 25.2555 34.0032 25.2711 33.9875 25.2866ZM21.886 30.0512C22.1438 30.16 22.3313 30.2766 22.3 30.3077C22.2688 30.3388 20.3078 31.1938 17.9406 32.2042C15.5344 33.238 13.5813 34.1163 13.511 34.2096C13.3938 34.3418 13.3703 34.5282 13.3703 35.4299V36.487H12.7454H12.1203V35.119V33.751L16.7141 31.8079C19.2375 30.7352 21.3234 29.8569 21.3547 29.8491C21.386 29.8491 21.6203 29.9346 21.886 30.0512ZM26.0578 31.8389L28.0032 32.6784L25.9954 32.7017C24.8938 32.7095 23.0969 32.7095 22.0032 32.7017L20.011 32.6784L21.9016 31.8545C22.9485 31.3959 23.8703 31.0228 23.9563 31.0151C24.0422 31.0073 24.9875 31.3803 26.0578 31.8389ZM31.6906 34.2718L32.3938 34.5749H23.9954H15.5969L16.3 34.2718L17.0032 33.9686H23.9954H30.9875L31.6906 34.2718ZM13.2375 37.8006C14.0422 38.1348 14.2375 39.1763 13.6126 39.7981C13.1047 40.3033 12.386 40.3033 11.8782 39.7981C10.9094 38.842 11.9798 37.272 13.2375 37.8006ZM35.7375 37.8006C36.5422 38.1348 36.7375 39.1763 36.1126 39.7981C35.6047 40.3033 34.886 40.3033 34.3782 39.7981C33.4094 38.842 34.4798 37.272 35.7375 37.8006Z" fill="#313131"/>
</g>
</svg>
