<svg width="48" height="48" viewBox="0 0 240 197" fill="none" xmlns="http://www.w3.org/2000/svg" style="shape-rendering:geometricPrecision; text-rendering:geometricPrecision; image-rendering:optimizeQuality; fill-rule:evenodd; clip-rule:evenodd" xmlns:xlink="http://www.w3.org/1999/xlink">
<g><path style="opacity:0.885" fill="#313131" d="M 47.5,24.5 C 53.7311,23.8531 58.8978,25.8531 63,30.5C 68.2923,38.9167 73.4589,47.4167 78.5,56C 97.5,56.3333 116.5,56.6667 135.5,57C 142.762,58.7604 147.095,63.2604 148.5,70.5C 166.836,70.3334 185.17,70.5001 203.5,71C 214.631,75.4614 217.631,83.2948 212.5,94.5C 216.857,100.922 216.19,106.755 210.5,112C 202.603,113.27 194.603,113.937 186.5,114C 172.374,119.897 158.374,126.063 144.5,132.5C 158.799,138.544 172.966,144.877 187,151.5C 187.333,158.833 187.667,166.167 188,173.5C 192.091,180.942 190.924,187.442 184.5,193C 173.441,196.64 166.774,192.807 164.5,181.5C 166.882,176.783 167.882,171.783 167.5,166.5C 136.833,166.5 106.167,166.5 75.5,166.5C 75.1182,171.783 76.1182,176.783 78.5,181.5C 75.7491,193.542 68.7491,197.042 57.5,192C 51.9614,186.529 51.1281,180.362 55,173.5C 55.3333,166.167 55.6667,158.833 56,151.5C 70.184,144.996 84.3506,138.496 98.5,132C 85.3831,126.608 72.3831,120.942 59.5,115C 54.9174,113.855 50.2508,113.189 45.5,113C 39.6667,111.167 35.8333,107.333 34,101.5C 33.3333,88.5 33.3333,75.5 34,62.5C 36.412,58.7044 39.912,56.5377 44.5,56C 39.017,50.2109 36.517,43.3775 37,35.5C 38.6844,29.9845 42.1844,26.3178 47.5,24.5 Z M 49.5,32.5 C 51.9363,32.317 54.103,32.9837 56,34.5C 60.1667,41.5 64.3333,48.5 68.5,55.5C 63.5,56.8333 58.5,56.8333 53.5,55.5C 49.7186,50.2716 46.7186,44.6049 44.5,38.5C 45.4649,35.8724 47.1315,33.8724 49.5,32.5 Z M 42.5,64.5 C 73.1685,64.3334 103.835,64.5 134.5,65C 137.756,66.587 139.923,69.087 141,72.5C 141.333,80.8333 141.667,89.1667 142,97.5C 142.5,98 143,98.5 143.5,99C 164.167,99.3333 184.833,99.6667 205.5,100C 206.833,101.667 206.833,103.333 205.5,105C 152.833,105.667 100.167,105.667 47.5,105C 45,103.833 43.1667,102 42,99.5C 41.1894,87.7574 41.3561,76.0907 42.5,64.5 Z M 149.5,78.5 C 167.17,78.3334 184.836,78.5001 202.5,79C 206.292,81.0527 207.458,84.2194 206,88.5C 205.167,89.3333 204.333,90.1667 203.5,91C 185.503,91.4999 167.503,91.6666 149.5,91.5C 149.5,87.1667 149.5,82.8333 149.5,78.5 Z M 74.5,114.5 C 77.7402,113.258 81.0736,113.424 84.5,115C 116.167,128.5 147.833,142 179.5,155.5C 180.492,159.783 180.826,164.116 180.5,168.5C 178.833,168.5 177.167,168.5 175.5,168.5C 175.85,164.454 175.183,160.62 173.5,157C 140.7,142.264 107.7,128.097 74.5,114.5 Z M 100.5,114.5 C 114.327,113.339 128.327,113.173 142.5,114C 135.615,117.128 128.615,119.962 121.5,122.5C 114.482,119.828 107.482,117.161 100.5,114.5 Z M 161.5,113.5 C 169.108,113.259 169.108,114.426 161.5,117C 152.5,120.833 143.5,124.667 134.5,128.5C 133.205,127.902 131.872,127.402 130.5,127C 141.058,122.768 151.392,118.268 161.5,113.5 Z M 107.5,136.5 C 108.922,136.709 110.255,137.209 111.5,138C 97.5306,144.317 83.5306,150.65 69.5,157C 67.7098,160.583 67.0431,164.416 67.5,168.5C 65.8333,168.5 64.1667,168.5 62.5,168.5C 62.1744,164.116 62.5078,159.783 63.5,155.5C 78.2676,149.142 92.9343,142.809 107.5,136.5 Z M 119.5,142.5 C 125.777,143.801 131.777,145.967 137.5,149C 126.833,149.667 116.167,149.667 105.5,149C 110.377,147.058 115.044,144.892 119.5,142.5 Z M 84.5,157.5 C 109.923,157.019 135.256,157.519 160.5,159C 134.5,159.667 108.5,159.667 82.5,159C 83.4158,158.722 84.0825,158.222 84.5,157.5 Z M 63.5,175.5 C 69.3559,175.854 71.5226,178.854 70,184.5C 64.9951,188.888 61.4951,187.888 59.5,181.5C 59.8662,178.744 61.1995,176.744 63.5,175.5 Z M 176.5,175.5 C 182.771,176.374 184.604,179.707 182,185.5C 177.152,188.742 173.652,187.575 171.5,182C 172.269,179.074 173.935,176.907 176.5,175.5 Z"/></g>
<g><path style="opacity:0.739" fill="#313131" d="M 56.5,70.5 C 61.9421,70.8857 63.2755,73.3857 60.5,78C 54.4034,78.1475 53.0701,75.6475 56.5,70.5 Z"/></g>
<g><path style="opacity:0.874" fill="#313131" d="M 70.5,70.5 C 89.1696,70.3334 107.836,70.5001 126.5,71C 127.982,73.5918 127.648,75.9251 125.5,78C 107.167,78.6667 88.8333,78.6667 70.5,78C 67.9142,75.506 67.9142,73.006 70.5,70.5 Z"/></g>
</svg>
