<svg width="48" height="48" viewBox="0 0 150 160" fill="none" xmlns="http://www.w3.org/2000/svg" style="shape-rendering:geometricPrecision; text-rendering:geometricPrecision; image-rendering:optimizeQuality; fill-rule:evenodd; clip-rule:evenodd" xmlns:xlink="http://www.w3.org/1999/xlink">
<g><path style="opacity:0.881" fill="#000000" d="M 4.5,-0.5 C 21.1667,-0.5 37.8333,-0.5 54.5,-0.5C 57.2515,2.57237 58.7515,6.23903 59,10.5C 60.6974,4.45712 64.5308,2.29045 70.5,4C 84.8923,10.6103 98.7257,18.1103 112,26.5C 112.167,27.6667 112.333,28.8333 112.5,30C 112.075,32.6222 111.575,35.1222 111,37.5C 115.667,32.1667 120.333,32.1667 125,37.5C 126.333,39.5 127.667,41.5 129,43.5C 129.934,48.0833 128.1,49.5833 123.5,48C 122.024,45.3568 120.024,43.1901 117.5,41.5C 110.969,45.4158 105.302,50.2491 100.5,56C 108.544,67.2554 116.711,78.4221 125,89.5C 131.078,84.8777 137.245,80.3777 143.5,76C 140.795,72.758 138.461,69.258 136.5,65.5C 137.741,62.856 139.741,62.0226 142.5,63C 144.733,65.9958 147.066,68.8292 149.5,71.5C 149.5,74.5 149.5,77.5 149.5,80.5C 117.863,103.324 86.196,126.157 54.5,149C 48.8092,153.226 42.8092,156.726 36.5,159.5C 31.5,159.5 26.5,159.5 21.5,159.5C 11.1187,155.614 4.28532,148.281 1,137.5C 0.333333,92.8333 0.333333,48.1667 1,3.5C 1.68972,1.64977 2.85639,0.316435 4.5,-0.5 Z M 7.5,6.5 C 22.1667,6.5 36.8333,6.5 51.5,6.5C 51.5,14.1667 51.5,21.8333 51.5,29.5C 36.8333,29.5 22.1667,29.5 7.5,29.5C 7.5,21.8333 7.5,14.1667 7.5,6.5 Z M 66.5,10.5 C 79.9159,16.3745 92.9159,23.0412 105.5,30.5C 102.294,37.0782 98.961,43.5782 95.5,50C 83.5223,44.5133 71.5223,38.68 59.5,32.5C 58.3526,30.2351 58.1859,27.9018 59,25.5C 61.5266,20.4469 64.0266,15.4469 66.5,10.5 Z M 7.5,36.5 C 22.1667,36.5 36.8333,36.5 51.5,36.5C 51.5,44.1667 51.5,51.8333 51.5,59.5C 36.8333,59.5 22.1667,59.5 7.5,59.5C 7.5,51.8333 7.5,44.1667 7.5,36.5 Z M 58.5,40.5 C 69.9167,45.3749 80.9167,51.0416 91.5,57.5C 88.2944,64.0782 84.961,70.5782 81.5,77C 74.1894,73.8483 66.8561,70.3483 59.5,66.5C 58.502,57.8589 58.1686,49.1922 58.5,40.5 Z M 96.5,63.5 C 104.358,73.206 111.691,83.3726 118.5,94C 112.245,98.3777 106.078,102.878 100,107.5C 94.76,100.596 89.9267,93.4293 85.5,86C 89.0441,78.4122 92.7108,70.9122 96.5,63.5 Z M 7.5,67.5 C 22.1667,67.5 36.8333,67.5 51.5,67.5C 51.5,75.1667 51.5,82.8333 51.5,90.5C 36.8333,90.5 22.1667,90.5 7.5,90.5C 7.5,82.8333 7.5,75.1667 7.5,67.5 Z M 58.5,74.5 C 64.9376,77.553 71.2709,80.8863 77.5,84.5C 74.3252,91.5228 70.6586,98.1895 66.5,104.5C 64.0038,103.42 61.6705,102.086 59.5,100.5C 58.502,91.8589 58.1686,83.1922 58.5,74.5 Z M 80.5,94.5 C 85.5199,99.4891 89.8532,105.156 93.5,111.5C 87.5,115.833 81.5,120.167 75.5,124.5C 73.1468,122.14 71.1468,119.473 69.5,116.5C 73.1799,109.14 76.8466,101.807 80.5,94.5 Z M 7.5,97.5 C 22.1667,97.5 36.8333,97.5 51.5,97.5C 51.8499,111.932 51.0166,126.265 49,140.5C 40.1534,153.395 28.9868,155.895 15.5,148C 12.9426,145.108 10.776,141.941 9,138.5C 7.55416,124.907 7.05416,111.24 7.5,97.5 Z M 58.5,108.5 C 60.5176,109.175 62.1843,110.341 63.5,112C 58.8415,122.867 57.1748,121.701 58.5,108.5 Z M 65.5,124.5 C 66.6521,125.834 67.6521,127.334 68.5,129C 66.3853,131.229 64.052,133.229 61.5,135C 60.8333,135.667 60.1667,135.667 59.5,135C 61.3854,131.391 63.3854,127.891 65.5,124.5 Z M 28.5,126.5 C 34.6222,128.865 34.9555,131.865 29.5,135.5C 24.5843,132.937 24.251,129.937 28.5,126.5 Z"/></g>
<g><path style="opacity:0.864" fill="#000000" d="M 26.5,119.5 C 37.3742,119.536 41.8742,124.87 40,135.5C 33,144.833 26,144.833 19,135.5C 16.9839,127.871 19.4839,122.538 26.5,119.5 Z M 28.5,126.5 C 24.251,129.937 24.5843,132.937 29.5,135.5C 34.9555,131.865 34.6222,128.865 28.5,126.5 Z"/></g>
</svg>
