<svg width="48" height="48" viewBox="0 0 283.5 283.5" fill="none" xmlns="http://www.w3.org/2000/svg" style="enable-background:new 0 0 283.5 283.5;" xml:space="preserve">
	<style type="text/css">
		.st0{fill:none;stroke:#2B2B2B;stroke-width:4;stroke-miterlimit:10;}
	</style>
	<path class="st0" d="M180.5,154.6h-78.1c-0.8,0-1.5-0.7-1.5-1.5v-10.4c0-0.8,0.7-1.5,1.5-1.5h78.1c0.8,0,1.5,0.7,1.5,1.5v10.4
		C182,153.9,181.3,154.6,180.5,154.6z"/>
	<path class="st0" d="M165.4,138.8h-47.8c-0.8,0-1.4-0.6-1.4-1.4v-16.2c0-0.8,0.7-1.4,1.4-1.4h47.8c0.8,0,1.4,0.7,1.4,1.4v16.2
		C166.9,138.1,166.2,138.8,165.4,138.8z"/>
	<path class="st0" d="M165.5,117.2h-47.9c-0.8,0-1.4-0.6-1.4-1.4V100c0-0.8,0.6-1.4,1.4-1.4h47.9c0.8,0,1.4,0.6,1.4,1.4v15.8
		C166.9,116.6,166.2,117.2,165.5,117.2z"/>
	<path class="st0" d="M165.4,95.6h-47.8c-0.8,0-1.5-0.7-1.5-1.5V76.9c0-0.8,0.7-1.5,1.5-1.5h47.8c0.8,0,1.5,0.7,1.5,1.5v17.2
		C166.9,94.9,166.2,95.6,165.4,95.6z"/>
	<path class="st0" d="M114.5,76.6v60.8c0,0.7-0.6,1.4-1.3,1.4h-10.8c-0.7,0-1.3-0.6-1.3-1.4V76.6c0-0.7,0.6-1.3,1.3-1.3h10.8
		C113.9,75.2,114.5,75.8,114.5,76.6z"/>
	<path class="st0" d="M182.1,76.6v60.8c0,0.7-0.6,1.4-1.4,1.4H170c-0.7,0-1.4-0.6-1.4-1.4V76.6c0-0.7,0.6-1.3,1.4-1.3h10.8
		C181.5,75.2,182.1,75.8,182.1,76.6z"/>
	<path class="st0" d="M120.8,202.8c0,3.2-2.6,5.7-5.7,5.7s-5.7-2.6-5.7-5.7"/>
	<path class="st0" d="M173.3,202.8c0,3.2-2.6,5.7-5.7,5.7s-5.7-2.6-5.7-5.7"/>
	<path class="st0" d="M179.2,203.1h-75.5c-1.6,0-2.8-1.3-2.8-2.8v-40.8c0-1.6,1.3-2.8,2.8-2.8h75.5c1.6,0,2.8,1.3,2.8,2.8v40.8
		C182,201.8,180.8,203.1,179.2,203.1z"/>
</svg>
