<svg width="48" height="48" viewBox="0 0 160 160" xmlns="http://www.w3.org/2000/svg" style="enable-background:new 0 0 160 160;" xml:space="preserve">
<style type="text/css">
	.st0{opacity:0.812;fill-rule:evenodd;clip-rule:evenodd;enable-background:new    ;}
</style>
<g>
	<path class="st0" d="M27.5,6.5c12-1,17,4.4,15,16c3.5-2,7.1-3.5,11-4.5c2-9.4,7.7-13,17-11c4.1,2.3,5.8,5.8,5,10.5
		c3.5,0.7,6.6,2,9.5,4c1.7-3.7,3.3-7.3,5-11c5.4-4.9,11.1-5.2,17-1c1.3,2.5,2.2,5.2,2.5,8c3.6-0.6,7.3-1.1,11-1.5
		c3.9-10,10.4-12.1,19.5-6.5c2.5,3.4,3,7.1,1.5,11c5,1.3,8.5,4.3,10.5,9c1.4,6.7-1.1,11.2-7.5,13.5c-2.5,0.2-4.8,0.3-7,0.5
		c1.4,3.8,3.1,7.5,5,11c8.7,2.7,11.5,8.4,8.5,17c-2.3,2.6-5.1,4.2-8.5,5c-1.3,2.7-2.7,5.3-4,8c2.8,2.6,6.2,4.4,10,5.5
		c5.3,5.7,5.3,11.3,0,17c-2.2,1.2-4.5,1.7-7,1.5c0.8,4,1.7,8,2.5,12c8.3,3.9,10.3,9.9,6,18c-3.4,2.5-7.2,3.7-11.5,3.5
		c-2.3,8.4-7.7,11.7-16,10c-1.8-0.8-3.3-2-4.5-3.5c-1.4-4.1-1.9-8.1-1.5-12c-3.6,1.6-7.3,3.1-11,4.5c-2,9.3-7.7,13-17,11
		c-4.1-2.3-5.8-5.8-5-10.5c-3.3-1.2-6.7-2-10-2.5c-1.9,3-3.4,6.1-4.5,9.5c-3.7,3.8-8.2,4.9-13.5,3.5c-1.8-1.2-3.3-2.7-4.5-4.5
		c-0.1-2.5-1.1-4.5-3-6c-3.1,0.7-6.3,1.2-9.5,1.5c-3.9,10-10.4,12.1-19.5,6.5c-2.5-3.4-3-7.1-1.5-11c-9.2-2.8-12.4-8.8-9.5-18
		c3.7-4.2,8.2-5.9,13.5-5c-1.5-3.8-3.1-7.4-5-11c-9.4-3.1-11.9-9.1-7.5-18c2.1-2,4.6-3.3,7.5-4c1.5-2.8,2.8-5.6,4-8.5
		c-3.1-2.2-6.4-3.9-10-5c-5.3-5.7-5.3-11.3,0-17c2.2-1.2,4.5-1.7,7-1.5c-0.8-4-1.7-8-2.5-12C5.7,33.8,4.2,27.3,10.5,19
		c3.2-1.2,6.5-1.8,10-2C21.7,12.7,24.1,9.2,27.5,6.5z M30.5,12.5c6.3,0.8,7.7,3.9,4,9.5C25.7,21.7,24.4,18.6,30.5,12.5z M63.5,12.5
		c3.6-0.6,5.6,0.9,6,4.5c-0.8,4.1-2.3,7.9-4.5,11.5c-1.8,7-1.3,13.8,1.5,20.5c-3.3,0.8-6.4,0.6-9.5-0.5
		C53.5,35.4,55.6,23.4,63.5,12.5z M96.5,12.5c5.5,0,7.3,2.7,5.5,8c-3.3,1.9-6.8,2.4-10.5,1.5C92.9,18.7,94.6,15.5,96.5,12.5z
		 M129.5,12.5c3.4-0.5,5.7,0.9,7,4c-1.6,4.8-3.4,9.4-5.5,14c-0.7,4.7-0.7,9.3,0,14c0.4,2,1.3,3.9,2.5,5.5c-3.3,0-6.6-0.2-10-0.5
		C119.9,36.3,121.9,23.9,129.5,12.5z M115.5,22.5c0.9-0.1,1.5,0.2,2,1c-0.7,2.8-1.7,5.5-3,8c-14.8,8.4-29.1,7.9-43-1.5
		c0.7-2.6,2-4.8,4-6.5c8.1,4.7,16.7,6.2,26,4.5C106.2,25.8,110.8,24,115.5,22.5z M14.5,23.5c5.3,0.3,10.3,1.8,15,4.5
		c7.2,0.8,14.2,0.5,21-1c-0.8,2.7-1.3,5.6-1.5,8.5C41.6,38,34.1,38.1,26.5,36c-4.2-1.8-8.4-3.7-12.5-5.5
		C12.2,28.1,12.4,25.7,14.5,23.5z M138.5,27.5c3.2,0.2,5.7,1.5,7.5,4c0.3,1.7-0.2,3.2-1.5,4.5C136.6,37.3,134.6,34.5,138.5,27.5z
		 M70.5,38.5c3.7,1,7.4,2.4,11,4c1.8,3.5,2.6,7.2,2.5,11c-3.2-2-6.7-3-10.5-3C71.9,46.7,70.9,42.7,70.5,38.5z M113.5,38.5
		c1.2,0.7,1.9,1.8,2,3.5c0.4,2.5,0.8,5,1,7.5c-2.9,0.4-5.8,1-8.5,2c-1.4-2.9-2.9-5.7-4.5-8.5C107.1,41.8,110.4,40.3,113.5,38.5z
		 M22.5,41.5c2.9,1.1,5.9,1.7,9,2c1.2,4.1,2.7,8.1,4.5,12c2.7,11.4,0.9,22.1-5.5,32c-2.7-1-5-2.5-7-4.5c6.4-11.1,6.6-22.3,0.5-33.5
		C23.2,46.9,22.7,44.2,22.5,41.5z M47.5,42.5c2,2.3,3.3,5.2,4,8.5c-2.9,1.4-5.7,2.9-8.5,4.5c-1.8-3.9-3.3-7.9-4.5-12
		C41.7,43.8,44.7,43.5,47.5,42.5z M88.5,44.5c2.8-1.1,5.8-1.3,9-0.5c5.6,9.1,7.4,18.9,5.5,29.5c-1.9,5-3.8,10-5.5,15c-3,0-6,0-9,0
		c2.9-7.5,5.3-15.1,7-23C94.5,57.9,92.2,50.9,88.5,44.5z M58.5,55.5c4.7-0.2,9.3,0,14,0.5c5.2,2.1,10.6,4,16,5.5c1.3,3.1,1,6.1-1,9
		c-4.8-1.6-9.4-3.4-14-5.5c-5.3-0.7-10.7-0.7-16,0c-4.3,2.4-8.8,4.3-13.5,5.5c-0.8-3.1-0.7-6.1,0.5-9C49.2,59.3,53.9,57.3,58.5,55.5
		z M114.5,55.5c10.8-1,20.8,1.4,30,7c2.6,3.8,1.6,6.1-3,7c-4.3-0.7-8.3-2.2-12-4.5c-5.3-0.7-10.7-0.7-16,0c-1.3,0.3-2.4,0.8-3.5,1.5
		c-0.8-3.1-0.7-6.1,0.5-9C112,57,113.4,56.3,114.5,55.5z M14.5,56.5c5.8-1.2,8.4,1.1,8,7c-0.3,1-0.7,2-1,3c-2.6-0.9-5.1-1.9-7.5-3
		C12.2,61.1,12.4,58.7,14.5,56.5z M61.5,70.5c3-0.2,6,0,9,0.5c-3.3,7.2-5.7,14.7-7,22.5c1.2,7.3,3.2,14.3,6,21c-3,0-6,0-9,0
		c-1.5-4.3-3-8.6-4.5-13c-0.7-5.3-0.7-10.7,0-16C57.9,80.5,59.7,75.5,61.5,70.5z M115.5,70.5c2-0.2,4,0,6,0.5
		c-1.7,3.4-3.2,6.9-4.5,10.5c-3.7,1.6-7.6,2.4-11.5,2.5c1.8-2.9,2.9-6.1,3.5-9.5C111.3,73.3,113.5,71.9,115.5,70.5z M127.5,71.5
		c3,0.8,5.7,2.1,8,4c-4.6,7.8-6.1,16.1-4.5,25c2.3,4.8,4.2,9.8,5.5,15c-0.3,0.7-0.7,1.3-1,2c-2.5-1.3-5.2-2-8-2
		c-1.2-4.1-2.7-8.1-4.5-12c-2-6.7-2-13.3,0-20C124.8,79.6,126.3,75.6,127.5,71.5z M52.5,73.5c0.5,0.1,0.9,0.4,1,1
		c-1.6,3.4-3,6.9-4,10.5c-3.6,2.8-7.6,3.8-12,3c1.7-3.7,3.3-7.3,5-11C46.2,76.4,49.5,75.3,52.5,73.5z M76.5,73.5
		c3.3,0.9,6.3,2.2,9,4c-1.2,2.7-2.3,5.4-3.5,8c-3.1-1-5.9-2.3-8.5-4C74.8,78.9,75.8,76.3,76.5,73.5z M16.5,88.5
		c4.8,1.5,9.4,3.4,14,5.5c6.3,0.9,12.5,0.4,18.5-1.5c0.8,3.1,0.7,6.1-0.5,9c-5.8,2-11.8,2.5-18,1.5c-5.3-2-10.7-4-16-6
		C12,93.5,12.6,90.7,16.5,88.5z M70.5,88.5c5.4,1.5,10.7,3.4,16,5.5c4.7,0.7,9.3,0.7,14,0c4.6-2,9.2-3.9,14-5.5c1.3,3,1.3,6,0,9
		c-4.6,2.1-9.2,3.9-14,5.5c-4.7,0.7-9.3,0.7-14,0c-5.2-2.1-10.6-4-16-5.5C69.5,94.5,69.5,91.5,70.5,88.5z M136.5,92.5
		c4.4,0.3,7.7,2.3,10,6c-1.5,3.9-4.1,4.9-8,3C136.9,98.7,136.2,95.7,136.5,92.5z M115.5,103.5c1.8,3.4,3.4,6.9,5,10.5
		c-3.3,0.9-6.6,1.8-10,2.5c-1.1-2.8-2.1-5.7-3-8.5C110.4,106.7,113,105.2,115.5,103.5z M88.5,120.5c-3.7-1-7.4-2.4-11-4
		c-1.2-3.6-2.6-7.1-4-10.5c3.7,0.6,7.3,1.6,11,3C87.1,112.4,88.5,116.2,88.5,120.5z M50.5,107.5c1.8,2.7,3.4,5.5,5,8.5
		c-3.7,1.4-7.4,2.9-11,4.5c-1-3.6-1.7-7.3-2-11C45.4,109.2,48,108.5,50.5,107.5z M25.5,109.5c0.4-0.6,1.1-1,2-1c2.7,0.5,5.4,1.1,8,2
		c2.7,8,2.6,16-0.5,24c-1.9,3.5-3.6,7.2-5,11c-3.7,1.9-6.2,0.9-7.5-3c1.6-4.8,3.4-9.4,5.5-14c0.7-4.7,0.7-9.3,0-14
		C27.6,112.5,26.8,110.8,25.5,109.5z M92.5,110.5c2.8-1.1,5.8-1.3,9-0.5c3.6,12.1,2.1,23.6-4.5,34.5c-4.1,3.2-6.6,2.2-7.5-3
		c3-6.4,5-13,6-20C94.8,117.6,93.8,114,92.5,110.5z M58.5,121.5c10.6-1.6,20.3,0.8,29,7c-0.7,2.6-1.9,4.9-3.5,7
		c-8.6-5.4-17.7-6.9-27.5-4.5c-4.4,2.5-9.1,4.4-14,5.5c-0.6-3.1,0-6.1,2-9C49,124.9,53.7,122.9,58.5,121.5z M114.5,121.5
		c6.1-0.3,12.1,0.2,18,1.5c3.9,1.9,7.9,3.5,12,5c2.8,3.9,1.8,6.4-3,7.5c-6.5-3.1-13.3-5.1-20.5-6c-4.1,0.1-7.9,1.1-11.5,3
		c-0.3-0.3-0.7-0.7-1-1c0.7-2.6,1.2-5.3,1.5-8C111.6,122.9,113.1,122.2,114.5,121.5z M14.5,122.5c8.4-0.6,10,2.4,5,9
		C13.5,130.4,11.9,127.4,14.5,122.5z M59.5,136.5c2.4-0.3,4.8,0,7,1c-0.9,2.3-1.8,4.6-2.5,7c-4.1,3.2-6.6,2.2-7.5-3
		C56.3,139,57.3,137.4,59.5,136.5z M123.5,136.5c3.1,0.2,6.1,1.1,9,2.5c-0.8,2.6-2.1,5-4,7c-2.2,0.8-4,0.3-5.5-1.5
		C122.6,141.8,122.7,139.1,123.5,136.5z"/>
</g>
</svg>
