<svg width="48" height="48" viewBox="0 0 160 160" fill="none" xmlns="http://www.w3.org/2000/svg" style="shape-rendering:geometricPrecision; text-rendering:geometricPrecision; image-rendering:optimizeQuality; fill-rule:evenodd; clip-rule:evenodd" xmlns:xlink="http://www.w3.org/1999/xlink">
<g><path style="opacity:0.829" fill="#000000" d="M 45.5,-0.5 C 49.1667,-0.5 52.8333,-0.5 56.5,-0.5C 59.475,2.66105 63.1417,4.82772 67.5,6C 68.5762,7.72609 68.7429,9.55942 68,11.5C 67.1074,12.0814 66.1074,12.4148 65,12.5C 60.0333,11.4309 55.5333,9.43093 51.5,6.5C 47.4754,7.21657 45.9754,9.54991 47,13.5C 51.3879,18.2824 53.5545,23.949 53.5,30.5C 52.7035,34.7985 52.3701,39.1318 52.5,43.5C 66.174,44.1915 79.8407,44.6915 93.5,45C 97.9176,41.9183 102.751,39.7516 108,38.5C 117.802,40.7719 121.468,46.7719 119,56.5C 116.938,58.9007 115.271,61.5674 114,64.5C 113.472,74.1884 113.805,83.8551 115,93.5C 117.508,95.1742 120.342,96.1742 123.5,96.5C 124.91,98.9492 124.576,101.116 122.5,103C 120.19,103.497 117.857,103.663 115.5,103.5C 115.5,104.5 115.5,105.5 115.5,106.5C 122.559,105.477 129.559,105.644 136.5,107C 140.482,108.324 144.149,110.158 147.5,112.5C 151.525,111.783 153.025,109.45 152,105.5C 147.479,100.581 145.312,94.7474 145.5,88C 148.154,69.1661 148.154,50.3328 145.5,31.5C 145.599,24.6988 147.766,18.6988 152,13.5C 153.025,9.54991 151.525,7.21657 147.5,6.5C 141.803,10.9255 135.303,13.2589 128,13.5C 113.876,12.0133 99.7098,11.18 85.5,11C 84.4238,9.27391 84.2571,7.44058 85,5.5C 89.8895,4.34677 94.8895,3.6801 100,3.5C 111.157,4.5775 122.324,5.0775 133.5,5C 137.181,4.12779 140.181,2.29446 142.5,-0.5C 146.167,-0.5 149.833,-0.5 153.5,-0.5C 156.2,1.23438 158.2,3.56772 159.5,6.5C 159.5,9.83333 159.5,13.1667 159.5,16.5C 154.441,20.976 152.441,26.6427 153.5,33.5C 154.016,42.3442 154.683,51.1775 155.5,60C 154.141,71.4744 153.641,82.9744 154,94.5C 155.276,97.5994 157.11,100.266 159.5,102.5C 159.5,105.833 159.5,109.167 159.5,112.5C 155.476,119.085 149.81,121.252 142.5,119C 140.099,116.938 137.433,115.271 134.5,114C 127.797,113.287 121.13,113.454 114.5,114.5C 113.502,121.138 113.335,127.805 114,134.5C 115.271,137.433 116.938,140.099 119,142.5C 121.252,149.81 119.085,155.476 112.5,159.5C 109.167,159.5 105.833,159.5 102.5,159.5C 98.024,154.441 92.3573,152.441 85.5,153.5C 76.6558,154.016 67.8225,154.683 59,155.5C 47.5256,154.141 36.0256,153.641 24.5,154C 21.3793,155.306 18.7126,157.14 16.5,159.5C 13.1667,159.5 9.83333,159.5 6.5,159.5C 3.98045,157.737 1.64712,155.737 -0.5,153.5C -0.5,149.833 -0.5,146.167 -0.5,142.5C 3.91956,138.21 5.91956,132.877 5.5,126.5C 4.81122,117.335 4.14456,108.168 3.5,99C 4.5775,87.8428 5.0775,76.6762 5,65.5C 4.12779,61.8193 2.29446,58.8193 -0.5,56.5C -0.5,52.8333 -0.5,49.1667 -0.5,45.5C 2.42563,41.7537 6.25896,39.4204 11,38.5C 16.3675,40.2042 21.5341,42.3708 26.5,45C 32.5161,45.4988 38.5161,45.3321 44.5,44.5C 45.277,38.1784 45.4437,31.8451 45,25.5C 42.1766,21.1649 40.0099,16.4983 38.5,11.5C 39.2142,6.47529 41.5476,2.47529 45.5,-0.5 Z M 9.5,46.5 C 10.8734,46.3433 12.2068,46.51 13.5,47C 18.8475,51.3389 25.0141,53.5056 32,53.5C 50.8305,50.8455 69.6638,50.8455 88.5,53.5C 95.5496,52.9299 101.883,50.5966 107.5,46.5C 111.525,47.2166 113.025,49.5499 112,53.5C 107.765,58.7016 105.598,64.7016 105.5,71.5C 108.131,90.332 108.131,109.165 105.5,128C 105.967,135.238 108.3,141.738 112.5,147.5C 111.783,151.525 109.45,153.025 105.5,152C 100.153,147.661 93.9866,145.495 87,145.5C 68.3333,148.167 49.6667,148.167 31,145.5C 23.6967,145.741 17.1967,148.074 11.5,152.5C 7.47544,151.783 5.97544,149.45 7,145.5C 11.2342,140.301 13.4009,134.301 13.5,127.5C 10.869,108.666 10.869,89.8322 13.5,71C 13.2589,63.6967 10.9255,57.1967 6.5,51.5C 6.75732,49.3076 7.75732,47.6409 9.5,46.5 Z"/></g>
<g><path style="opacity:0.696" fill="#000000" d="M 72.5,5.5 C 77.663,5.10677 79.3297,7.27344 77.5,12C 71.741,13.1387 70.0744,10.972 72.5,5.5 Z"/></g>
<g><path style="opacity:0.751" fill="#000000" d="M 37.5,70.5 C 41.3491,70.0193 43.3491,71.686 43.5,75.5C 48.3773,75.9626 49.544,78.296 47,82.5C 44.1768,83.3287 42.3435,85.1621 41.5,88C 39.7111,88.5205 38.0444,88.1871 36.5,87C 34.9359,84.2363 32.9359,81.9029 30.5,80C 33.0083,77.0283 35.3416,73.8617 37.5,70.5 Z"/></g>
<g><path style="opacity:0.751" fill="#000000" d="M 77.5,70.5 C 81.3491,70.0193 83.3491,71.686 83.5,75.5C 88.3773,75.9626 89.544,78.296 87,82.5C 84.1768,83.3287 82.3435,85.1621 81.5,88C 79.7111,88.5205 78.0444,88.1871 76.5,87C 74.9359,84.2363 72.9359,81.9029 70.5,80C 73.0083,77.0283 75.3416,73.8617 77.5,70.5 Z"/></g>
<g><path style="opacity:0.68" fill="#000000" d="M 128.5,95.5 C 132.605,95.4962 134.105,97.4962 133,101.5C 129.828,104.388 127.661,103.722 126.5,99.5C 126.752,97.9271 127.418,96.5938 128.5,95.5 Z"/></g>
<g><path style="opacity:0.751" fill="#000000" d="M 37.5,110.5 C 41.3491,110.019 43.3491,111.686 43.5,115.5C 48.3773,115.963 49.544,118.296 47,122.5C 44.1768,123.329 42.3435,125.162 41.5,128C 39.7111,128.52 38.0444,128.187 36.5,127C 34.9359,124.236 32.9359,121.903 30.5,120C 33.0083,117.028 35.3416,113.862 37.5,110.5 Z"/></g>
<g><path style="opacity:0.751" fill="#000000" d="M 77.5,110.5 C 81.3491,110.019 83.3491,111.686 83.5,115.5C 88.3773,115.963 89.544,118.296 87,122.5C 84.1768,123.329 82.3435,125.162 81.5,128C 79.7111,128.52 78.0444,128.187 76.5,127C 74.9359,124.236 72.9359,121.903 70.5,120C 73.0083,117.028 75.3416,113.862 77.5,110.5 Z"/></g>
</svg>
