<svg width="48" height="48" viewBox="0 0 512 512" fill="none" xmlns="http://www.w3.org/2000/svg" style="enable-background:new 0 0 512 512;" xml:space="preserve">
	<style type="text/css">
		.st0{fill:none;stroke:#2B2B2B;stroke-width:12;stroke-miterlimit:10;}
	</style>
	<path class="st0" d="M389.5,295.4h-276c-3,0-5.4-2.4-5.4-5.4v-36.8c0-3,2.4-5.4,5.4-5.4h276c3,0,5.4,2.4,5.4,5.4V290
		C394.9,293,392.5,295.4,389.5,295.4z"/>
	<path class="st0" d="M336.3,239.5h-169c-2.8,0-5.1-2.3-5.1-5.1v-57.1c0-2.8,2.3-5.1,5.1-5.1h169c2.8,0,5.1,2.3,5.1,5.1v57.1
		C341.4,237.2,339.1,239.5,336.3,239.5z"/>
	<path class="st0" d="M336.4,163.3H167.3c-2.8,0-5-2.3-5-5v-55.9c0-2.8,2.3-5,5-5h169.1c2.8,0,5,2.3,5,5v55.9
		C341.4,161.1,339.2,163.3,336.4,163.3z"/>
	<path class="st0" d="M336.2,86.9H167.5c-2.9,0-5.2-2.3-5.2-5.2V20.8c0-2.9,2.3-5.2,5.2-5.2h168.7c2.9,0,5.2,2.3,5.2,5.2v60.8
		C341.4,84.5,339.1,86.9,336.2,86.9z"/>
	<path class="st0" d="M156.3,19.8v215c0,2.6-2.2,4.8-4.8,4.8h-38c-2.6,0-4.8-2.2-4.8-4.8v-215c0-2.6,2.2-4.8,4.8-4.8h38
		C154.1,15,156.3,17.2,156.3,19.8z"/>
	<path class="st0" d="M395.1,19.8v215c0,2.6-2.2,4.8-4.8,4.8h-38c-2.6,0-4.8-2.2-4.8-4.8v-215c0-2.6,2.2-4.8,4.8-4.8h38
		C392.9,15,395.1,17.2,395.1,19.8z"/>
	<path class="st0" d="M178.5,465.7c0,11.2-9.1,20.3-20.3,20.3s-20.3-9.1-20.3-20.3"/>
	<path class="st0" d="M364.1,465.7c0,11.2-9.1,20.3-20.3,20.3s-20.3-9.1-20.3-20.3"/>
	<path class="st0" d="M384.9,466.7H118.2c-5.5,0-10-4.5-10-10V312.4c0-5.5,4.5-10,10-10h266.7c5.5,0,10,4.5,10,10v144.3
		C394.9,462.2,390.4,466.7,384.9,466.7z"/>
</svg>
