<svg width="48" height="48" viewBox="0 0 160 160" fill="none" xmlns="http://www.w3.org/2000/svg" style="shape-rendering:geometricPrecision; text-rendering:geometricPrecision; image-rendering:optimizeQuality; fill-rule:evenodd; clip-rule:evenodd" xmlns:xlink="http://www.w3.org/1999/xlink">
<g><path style="opacity:0.818" fill="#000000" d="M 34.5,-0.5 C 37.5,-0.5 40.5,-0.5 43.5,-0.5C 45.475,0.646381 46.975,2.31305 48,4.5C 50.0486,23.3687 53.382,42.0354 58,60.5C 58.3333,65.1667 58.6667,69.8333 59,74.5C 62.2161,68.9999 63.3828,62.9999 62.5,56.5C 74.5046,56.3335 86.5046,56.5001 98.5,57C 104.406,60.4271 107.072,65.5938 106.5,72.5C 93.4957,72.3334 80.4957,72.5001 67.5,73C 65.4129,76.5082 63.0796,79.8416 60.5,83C 80.5,83.3333 100.5,83.6667 120.5,84C 127.543,88.8885 128.21,94.5552 122.5,101C 115.914,102.091 109.247,102.925 102.5,103.5C 99.7059,110.068 94.7059,113.402 87.5,113.5C 87.5,115.833 87.5,118.167 87.5,120.5C 88.8333,120.5 90.1667,120.5 91.5,120.5C 91.5,125.167 91.5,129.833 91.5,134.5C 104.146,136.629 116.813,138.629 129.5,140.5C 131.74,143.963 133.407,147.797 134.5,152C 134.57,155.366 133.237,157.866 130.5,159.5C 127.833,159.5 125.167,159.5 122.5,159.5C 118.214,155.733 117.547,151.4 120.5,146.5C 107.95,143.657 95.2833,141.324 82.5,139.5C 84.2843,143.508 85.9509,147.675 87.5,152C 87.5698,155.366 86.2365,157.866 83.5,159.5C 80.8333,159.5 78.1667,159.5 75.5,159.5C 73.1099,157.598 71.7766,155.098 71.5,152C 73.0491,147.675 74.7157,143.508 76.5,139.5C 63.6952,141.328 51.0286,143.662 38.5,146.5C 41.453,151.4 40.7863,155.733 36.5,159.5C 33.8333,159.5 31.1667,159.5 28.5,159.5C 24.6847,156.893 23.518,153.226 25,148.5C 25.6368,146.697 26.8035,145.364 28.5,144.5C 29.4287,143.311 29.762,141.978 29.5,140.5C 42.1872,138.629 54.8538,136.629 67.5,134.5C 67.5,129.833 67.5,125.167 67.5,120.5C 68.8333,120.5 70.1667,120.5 71.5,120.5C 71.5,118.167 71.5,115.833 71.5,113.5C 65.1531,112.164 59.8198,113.998 55.5,119C 56.5472,120.578 56.5472,122.078 55.5,123.5C 51.8282,126.338 47.8282,128.671 43.5,130.5C 40.1411,126.295 37.1411,121.795 34.5,117C 39.3333,114.167 44.1667,111.333 49,108.5C 49.6152,110.116 50.6152,111.449 52,112.5C 54.4583,111.36 56.625,109.86 58.5,108C 57.9706,106.441 57.304,104.941 56.5,103.5C 52.5408,102.673 48.5408,102.173 44.5,102C 42.6217,100.457 41.1217,98.6238 40,96.5C 39.6667,85.8333 39.3333,75.1667 39,64.5C 36,50.8333 33,37.1667 30,23.5C 29.3333,17.1667 29.3333,10.8333 30,4.5C 31.0591,2.34079 32.5591,0.674125 34.5,-0.5 Z M 36.5,5.5 C 38.4672,5.26057 40.3005,5.59391 42,6.5C 43.7324,25.4346 47.0657,44.1012 52,62.5C 52.8406,71.6532 52.5073,80.6532 51,89.5C 53.635,92.5055 55.635,92.1722 57,88.5C 77.427,89.3272 97.927,89.8272 118.5,90C 119.833,92 119.833,94 118.5,96C 94.8333,96.6667 71.1667,96.6667 47.5,96C 47,95.5 46.5,95 46,94.5C 45.6667,84.1667 45.3333,73.8333 45,63.5C 42.1277,49.472 39.1277,35.472 36,21.5C 35.2665,16.1149 35.4332,10.7815 36.5,5.5 Z M 68.5,62.5 C 77.5062,62.3336 86.5062,62.5002 95.5,63C 96.91,63.3678 97.91,64.2011 98.5,65.5C 88.5222,66.4985 78.5222,66.8319 68.5,66.5C 68.5,65.1667 68.5,63.8333 68.5,62.5 Z M 63.5,102.5 C 74.1719,102.333 84.8385,102.5 95.5,103C 94.4495,104.385 93.1161,105.385 91.5,106C 83.1667,106.667 74.8333,106.667 66.5,106C 64.5743,105.578 63.5743,104.411 63.5,102.5 Z M 77.5,113.5 C 78.8333,113.5 80.1667,113.5 81.5,113.5C 81.5,115.833 81.5,118.167 81.5,120.5C 80.1667,120.5 78.8333,120.5 77.5,120.5C 77.5,118.167 77.5,115.833 77.5,113.5 Z M 45.5,117.5 C 48.7387,118.814 48.9054,120.147 46,121.5C 43.2643,120.067 43.0977,118.734 45.5,117.5 Z M 74.5,126.5 C 77.8333,126.5 81.1667,126.5 84.5,126.5C 84.5,128.833 84.5,131.167 84.5,133.5C 81.1667,133.5 77.8333,133.5 74.5,133.5C 74.5,131.167 74.5,128.833 74.5,126.5 Z M 30.5,150.5 C 35.8333,151.5 35.8333,152.5 30.5,153.5C 30.5,152.5 30.5,151.5 30.5,150.5 Z M 77.5,150.5 C 81.1611,150.426 81.8277,151.426 79.5,153.5C 78.0815,152.995 77.4148,151.995 77.5,150.5 Z M 125.5,150.5 C 126.5,150.5 127.5,150.5 128.5,150.5C 128.5,151.5 128.5,152.5 128.5,153.5C 125.506,153.854 124.506,152.854 125.5,150.5 Z"/></g>
</svg>
