<svg width="48" height="48" viewBox="0 0 512 512" fill="none" xmlns="http://www.w3.org/2000/svg" style="enable-background:new 0 0 512 512;" xml:space="preserve">
	<style type="text/css">
		.st0{fill:none;stroke:#2B2B2B;stroke-width:15;stroke-miterlimit:10;}
	</style>
	<path class="st0" d="M169.5,481.2c0,12-9.8,21.8-21.8,21.8s-21.8-9.8-21.8-21.8"/>
	<path class="st0" d="M369.1,481.2c0,12-9.8,21.8-21.8,21.8s-21.8-9.8-21.8-21.8"/>
	<path class="st0" d="M392.1,482.1H108.2c-5.9,0-10.8-4.9-10.8-10.8V310.5c0-5.9,4.9-10.8,10.8-10.8h283.9c5.9,0,10.8,4.9,10.8,10.8
		v160.9C402.9,477.3,398.1,482.1,392.1,482.1z"/>
	<path class="st0" d="M441.5,482.1h-14.9c-5.9,0-10.8-4.9-10.8-10.8V284c0-5.9,4.9-10.8,10.8-10.8h14.9c5.9,0,10.8,4.9,10.8,10.8
		v187.4C452.3,477.3,447.5,482.1,441.5,482.1z"/>
	<path class="st0" d="M392.9,288.1H169c-5.9,0-10.8-4.9-10.8-10.8v-15.7c0-5.9,4.9-10.8,10.8-10.8h223.9c5.9,0,10.8,4.9,10.8,10.8
		v15.7C403.6,283.2,398.8,288.1,392.9,288.1z"/>
	<path class="st0" d="M89,285.4L57.8,24.2c-0.5-4.3,2.6-8.2,6.9-8.8l53.4-6.4c4.3-0.5,8.2,2.6,8.8,6.9l31.2,261.1
		c0.5,4.3-2.6,8.2-6.9,8.8l-53.4,6.4C93.5,292.8,89.5,289.7,89,285.4z"/>
</svg>
