<svg width="48" height="48" viewBox="0 0 168 168" fill="none" xmlns="http://www.w3.org/2000/svg" style="shape-rendering:geometricPrecision; text-rendering:geometricPrecision; image-rendering:optimizeQuality; fill-rule:evenodd; clip-rule:evenodd" xmlns:xlink="http://www.w3.org/1999/xlink">
<g><path style="opacity:0.825" fill="#000000" d="M 71.5,-0.5 C 79.5,-0.5 87.5,-0.5 95.5,-0.5C 100.07,1.25711 104.403,3.59044 108.5,6.5C 109.466,8.39605 109.799,10.396 109.5,12.5C 107.801,12.6602 106.134,12.4935 104.5,12C 90.482,3.33569 76.482,3.33569 62.5,12C 58.123,16.043 54.9564,20.8763 53,26.5C 52.3333,37.5 52.3333,48.5 53,59.5C 54.1667,62 56,63.8333 58.5,65C 75.1667,65.6667 91.8333,65.6667 108.5,65C 111,63.8333 112.833,62 114,59.5C 114.667,48.8333 114.667,38.1667 114,27.5C 112.93,24.1235 111.764,20.7902 110.5,17.5C 111.582,13.2066 113.749,12.5399 117,15.5C 118.725,18.674 120.058,22.0073 121,25.5C 121.941,38.2372 121.607,50.9039 120,63.5C 113.122,71.8847 104.288,74.8847 93.5,72.5C 93.5,75.5 93.5,78.5 93.5,81.5C 102.915,81.0828 112.248,81.5828 121.5,83C 126.437,86.1418 128.937,90.6418 129,96.5C 130.462,89.3417 130.962,82.0084 130.5,74.5C 127.956,74.8957 125.789,74.229 124,72.5C 121.514,63.4312 124.848,58.7645 134,58.5C 139.124,57.7217 142.457,59.7217 144,64.5C 144.667,67.1667 144.667,69.8333 144,72.5C 142.211,74.229 140.044,74.8957 137.5,74.5C 137.666,81.8409 137.5,89.1742 137,96.5C 136.31,99.196 134.81,101.363 132.5,103C 118.932,104.464 105.265,104.964 91.5,104.5C 91.5,114.5 91.5,124.5 91.5,134.5C 95.1817,134.335 98.8484,134.501 102.5,135C 105.473,136.224 106.14,138.224 104.5,141C 90.8333,141.333 77.1667,141.667 63.5,142C 60.329,142.506 57.9957,144.172 56.5,147C 74.5,147.667 92.5,147.667 110.5,147C 107.773,144.759 107.106,142.093 108.5,139C 111.789,138.254 114.289,139.42 116,142.5C 119.191,147.424 118.691,151.59 114.5,155C 116.069,160.461 114.402,164.628 109.5,167.5C 106.5,167.5 103.5,167.5 100.5,167.5C 95.8346,164.544 93.8346,160.211 94.5,154.5C 87.1667,154.5 79.8333,154.5 72.5,154.5C 73.1654,160.211 71.1654,164.544 66.5,167.5C 63.5,167.5 60.5,167.5 57.5,167.5C 52.8959,164.465 51.2292,160.298 52.5,155C 50.8333,154 49.5,152.667 48.5,151C 51.9423,136.927 60.9423,131.427 75.5,134.5C 75.3336,125.494 75.5002,116.494 76,107.5C 78,104.833 80,104.833 82,107.5C 82.168,116.518 82.668,125.518 83.5,134.5C 84.4985,124.522 84.8319,114.522 84.5,104.5C 67.7384,104.971 51.0718,104.471 34.5,103C 32.1898,101.363 30.6898,99.196 30,96.5C 29.5003,89.1742 29.3337,81.8409 29.5,74.5C 26.9556,74.8957 24.7889,74.229 23,72.5C 21.2045,60.3037 26.3712,55.8037 38.5,59C 40.6667,59.8333 42.1667,61.3333 43,63.5C 43.6667,66.5 43.6667,69.5 43,72.5C 41.2111,74.229 39.0444,74.8957 36.5,74.5C 36.0378,82.0084 36.5378,89.3417 38,96.5C 38.0632,90.6418 40.5632,86.1418 45.5,83C 54.7521,81.5828 64.0854,81.0828 73.5,81.5C 73.5,78.5 73.5,75.5 73.5,72.5C 51.269,75.2691 41.9356,65.6025 45.5,43.5C 42.9397,21.9246 51.6064,7.25789 71.5,-0.5 Z M 30.5,64.5 C 32.9775,64.0508 34.9775,64.7175 36.5,66.5C 34.1667,67.8333 31.8333,67.8333 29.5,66.5C 29.8627,65.8165 30.1961,65.1499 30.5,64.5 Z M 131.5,64.5 C 133.977,64.0508 135.977,64.7175 137.5,66.5C 135.167,67.8333 132.833,67.8333 130.5,66.5C 130.863,65.8165 131.196,65.1499 131.5,64.5 Z M 80.5,72.5 C 82.5,72.5 84.5,72.5 86.5,72.5C 86.5,75.5 86.5,78.5 86.5,81.5C 84.5,81.5 82.5,81.5 80.5,81.5C 80.5,78.5 80.5,75.5 80.5,72.5 Z M 51.5,87.5 C 72.8359,87.3334 94.1693,87.5 115.5,88C 120.666,89.6649 122.333,92.9982 120.5,98C 95.8333,98.6667 71.1667,98.6667 46.5,98C 44.7978,92.9043 46.4644,89.4043 51.5,87.5 Z M 60.5,154.5 C 65.7473,154.64 66.7473,156.806 63.5,161C 58.3823,160.824 57.3823,158.658 60.5,154.5 Z M 102.5,154.5 C 108.016,154.473 109.349,156.64 106.5,161C 101.791,161.082 100.458,158.915 102.5,154.5 Z"/></g>
<g><path style="opacity:0.647" fill="#000000" d="M 69.5,23.5 C 75.2093,22.6779 76.5427,24.5112 73.5,29C 68.7282,29.8104 67.3948,27.9771 69.5,23.5 Z"/></g>
<g><path style="opacity:0.617" fill="#000000" d="M 92.5,23.5 C 97.1225,22.4082 98.9558,24.0748 98,28.5C 92.4205,30.7516 90.5871,29.0849 92.5,23.5 Z"/></g>
<g><path style="opacity:0.597" fill="#000000" d="M 70.5,42.5 C 75.4928,42.997 76.4928,45.1637 73.5,49C 68.1483,49.1754 67.1483,47.0087 70.5,42.5 Z"/></g>
<g><path style="opacity:0.631" fill="#000000" d="M 93.5,42.5 C 98.4928,42.997 99.4928,45.1637 96.5,49C 91.3823,48.8242 90.3823,46.6576 93.5,42.5 Z"/></g>
</svg>
