<svg width="48" height="48" viewBox="0 0 140 140" fill="none" xmlns="http://www.w3.org/2000/svg" style="shape-rendering:geometricPrecision; text-rendering:geometricPrecision; image-rendering:optimizeQuality; fill-rule:evenodd; clip-rule:evenodd" xmlns:xlink="http://www.w3.org/1999/xlink">
<g><path style="opacity:0.688" fill="#ebebeb" d="M 66.5,-0.5 C 71.1667,-0.5 75.8333,-0.5 80.5,-0.5C 112.049,6.71553 131.716,26.0489 139.5,57.5C 139.5,65.5 139.5,73.5 139.5,81.5C 131.829,112.504 112.496,131.837 81.5,139.5C 73.5,139.5 65.5,139.5 57.5,139.5C 26.4961,131.829 7.16281,112.496 -0.5,81.5C -0.5,76.5 -0.5,71.5 -0.5,66.5C 3.00401,62.5654 6.50401,62.5654 10,66.5C 11.8101,98.3329 27.9767,118.5 58.5,127C 90.4307,130.791 112.597,117.958 125,88.5C 133.185,55.0435 122.018,30.5435 91.5,15C 83.3511,12.4393 75.0177,10.7726 66.5,10C 62.5654,6.50401 62.5654,3.00401 66.5,-0.5 Z"/></g>
<g><path style="opacity:1" fill="#080808" d="M 67.5,1.5 C 103.99,2.99526 127.157,21.3286 137,56.5C 141.054,89.8924 128.554,114.726 99.5,131C 67.3449,143.838 39.5115,137.671 16,112.5C 5.90378,99.2102 1.23712,84.2102 2,67.5C 4,64.8333 6,64.8333 8,67.5C 9.83348,97.3205 24.6668,117.487 52.5,128C 89.0983,134.697 114.265,120.864 128,86.5C 134.94,50.8752 121.773,26.0419 88.5,12C 81.6497,9.9137 74.6497,8.58037 67.5,8C 64.9387,5.8441 64.9387,3.67743 67.5,1.5 Z"/></g>
<g><path style="opacity:0.647" fill="#f1f1f1" d="M 46.5,2.5 C 53.4632,2.76468 55.6298,6.09802 53,12.5C 48.1834,16.0117 43.0168,17.1783 37.5,16C 35.718,13.7569 35.218,11.2569 36,8.5C 39.1013,5.6482 42.6013,3.6482 46.5,2.5 Z"/></g>
<g><path style="opacity:1" fill="#0f0f0f" d="M 46.5,4.5 C 51.0374,4.27331 52.7041,6.27331 51.5,10.5C 47.6392,13.7918 43.3059,14.7918 38.5,13.5C 37.5721,12.2322 37.4054,10.8989 38,9.5C 40.7465,7.54457 43.5798,5.87791 46.5,4.5 Z"/></g>
<g><path style="opacity:0.678" fill="#f1f1f1" d="M 23.5,15.5 C 29.8302,14.6662 32.6635,17.3329 32,23.5C 29.188,29.309 24.688,32.1423 18.5,32C 15.7104,29.7897 14.877,26.9563 16,23.5C 18.705,20.9638 21.205,18.2971 23.5,15.5 Z"/></g>
<g><path style="opacity:1" fill="#0c0c0c" d="M 24.5,17.5 C 30.8016,17.9032 31.9683,20.5699 28,25.5C 26.0016,27.6632 23.6682,29.3298 21,30.5C 17.9277,29.5527 16.9277,27.5527 18,24.5C 20.3722,22.2968 22.5389,19.9635 24.5,17.5 Z"/></g>
<g><path style="opacity:0.66" fill="#f5f5f5" d="M 8.5,35.5 C 13.1361,34.8122 16.1361,36.6455 17.5,41C 16.1386,44.8892 14.6386,48.7225 13,52.5C 7.73316,55.7828 4.23316,54.4495 2.5,48.5C 3.72372,43.7243 5.72372,39.391 8.5,35.5 Z"/></g>
<g><path style="opacity:1" fill="#141414" d="M 9.5,37.5 C 12.5715,36.9245 14.5715,38.0912 15.5,41C 14.0288,44.1091 12.6954,47.2757 11.5,50.5C 8.12287,53.4854 5.78953,52.8187 4.5,48.5C 5.59841,44.5224 7.26507,40.8557 9.5,37.5 Z"/></g>
<g><path style="opacity:0.695" fill="#fefefe" d="M 67.5,41.5 C 70.9612,41.1459 73.4612,42.4792 75,45.5C 75.4995,51.4908 75.6662,57.4908 75.5,63.5C 81.5092,63.3338 87.5092,63.5005 93.5,64C 98.8333,67.6667 98.8333,71.3333 93.5,75C 87.5092,75.4995 81.5092,75.6662 75.5,75.5C 75.6662,81.5092 75.4995,87.5092 75,93.5C 71.3333,98.8333 67.6667,98.8333 64,93.5C 63.5005,87.5092 63.3338,81.5092 63.5,75.5C 57.4908,75.6662 51.4908,75.4995 45.5,75C 40.1667,71.3333 40.1667,67.6667 45.5,64C 51.4908,63.5005 57.4908,63.3338 63.5,63.5C 63.3338,57.4908 63.5005,51.4908 64,45.5C 64.6897,43.6498 65.8564,42.3164 67.5,41.5 Z"/></g>
<g><path style="opacity:1" fill="#111111" d="M 67.5,43.5 C 69.7224,43.178 71.5557,43.8446 73,45.5C 73.4996,52.1583 73.6663,58.825 73.5,65.5C 80.175,65.3337 86.8417,65.5004 93.5,66C 96.1667,68.3333 96.1667,70.6667 93.5,73C 86.8417,73.4996 80.175,73.6663 73.5,73.5C 73.6663,80.175 73.4996,86.8417 73,93.5C 70.6667,96.1667 68.3333,96.1667 66,93.5C 65.5004,86.8417 65.3337,80.175 65.5,73.5C 58.825,73.6663 52.1583,73.4996 45.5,73C 42.8333,70.6667 42.8333,68.3333 45.5,66C 52.1583,65.5004 58.825,65.3337 65.5,65.5C 65.3337,58.825 65.5004,52.1583 66,45.5C 66.7172,44.9558 67.2172,44.2891 67.5,43.5 Z"/></g>
</svg>
