<?xml version="1.0" encoding="UTF-8"?><svg width="48px" height="48px" id="Layer_1" xmlns="http://www.w3.org/2000/svg" viewBox="0 0 45.37 13.48"><defs><style>.cls-1{fill:none;stroke:#333233;stroke-miterlimit:10;stroke-width:1.5px;}.cls-2{fill:#000;}.cls-2,.cls-3{stroke-width:0px;}.cls-3{fill:#fff;}</style></defs><path class="cls-1" d="M.8,8.73l-.04,3.73c0,.28.26.26.26.26,0,0,42.86.02,43.32-.01.21-.02.23-.1.23-.24l.03-3.75"/><path class="cls-1" d="M.85,8.26L6.32.98s.15-.19.68-.19c.75,0,31.5-.04,31.5-.04,0,0,.53,0,.71.24.26.34,5.22,7.16,5.25,7.22.06.11.38.51-.08.58s-43.27.01-43.27.01c0,0-.59,0-.27-.55Z"/><path class="cls-3" d="M17.79,7.73h-6.62V1.86h6.62v5.87ZM14.53,5.98s-.06,0-.08.01c-.15.04-.3.09-.45.13-.42.12-.84.23-1.26.35-.14.04-.21.13-.23.27-.01.1,0,.11.09.13.25.07.5.14.75.21.26.07.52.15.78.22.05.01.07,0,.08-.04.01-.07.03-.14.05-.2.01-.04,0-.05-.04-.06-.1-.03-.2-.06-.3-.08-.06-.01-.07-.04-.05-.09.03-.12.07-.24.09-.37.01-.05.04-.07.09-.08.11-.03.23-.06.34-.09.02,0,.05-.03.06-.05.03-.08.04-.16.07-.26ZM14.28,4.82s0-.05.01-.06c.03-.13.06-.25.1-.38.03-.11.03-.11-.08-.11-.03,0-.06,0-.1,0-.21.02-.41.07-.53.26-.17.26-.06.48.17.53.13.03.27.04.4.03.2-.01.38-.08.51-.23.11-.12.16-.27.14-.43,0-.08-.06-.14-.12-.14-.08,0-.15.03-.22.08.09.09.1.19.04.29-.07.12-.19.16-.34.17ZM15.41,2.33s-.04,0-.06,0c-.21,0-.42.01-.63.02-.08,0-.17,0-.25.02-.27.06-.35.34-.31.52.02.1.07.12.18.09q.09-.03.05-.14s0,0,0-.01c-.03-.12.03-.23.14-.25.09-.02.1-.01.08.08,0,.02,0,.05,0,.07-.02.19.09.32.28.32.03,0,.06,0,.1,0,.22-.02.46-.23.29-.49.1-.04.15-.1.13-.22ZM14.62,5.64s-.03,0-.05,0c-.54,0-1.09.02-1.63.03-.13,0-.21.07-.25.19-.03.08-.02.09.07.09.42,0,.84-.02,1.26-.03.14,0,.28,0,.41-.02.13-.01.21-.13.19-.27ZM14.68,3.82s0,0,0,.01c-.03,0-.06.02-.09.03-.21.04-.42.08-.63.13-.12.03-.17.09-.19.2-.01.07,0,.08.07.07.32-.08.65-.17.97-.25.21-.05.21-.05.25-.26,0-.04,0-.06-.04-.07-.32-.08-.63-.16-.95-.25-.02,0-.06,0-.08,0-.09.07-.07.19.04.23.02,0,.04.01.06.02.19.04.38.08.58.13ZM14.73,5.2s-.08,0-.12,0c-.5,0-1,.01-1.5.02-.16,0-.26.07-.29.21-.01.05,0,.08.06.08.39,0,.79-.02,1.18-.02.14,0,.29,0,.43,0,.16-.01.23-.09.24-.27ZM14.54,3.37s0-.01,0-.02c.17,0,.34,0,.51,0,.09,0,.16-.08.17-.17,0-.03,0-.06-.05-.06-.32,0-.64,0-.96.01-.1,0-.17.06-.19.16-.01.05,0,.07.06.07.15,0,.31,0,.46,0ZM13.61,3.39c.1,0,.18-.04.21-.09.04-.06.02-.13-.05-.15-.09-.03-.21,0-.26.08-.04.05-.03.12.03.15.03.01.06.01.07.02Z"/><path class="cls-2" d="M14.53,5.98c-.02.1-.04.18-.07.26,0,.02-.04.04-.06.05-.11.03-.23.06-.34.09-.04.01-.08.03-.09.08-.03.12-.06.25-.09.37-.01.05,0,.08.05.09.1.02.2.05.3.08.04,0,.05.02.04.06-.02.07-.03.13-.05.2,0,.05-.03.06-.08.04-.26-.08-.52-.15-.78-.22-.25-.07-.5-.14-.75-.21-.1-.03-.1-.03-.09-.13.02-.14.09-.23.23-.27.42-.12.84-.23,1.26-.35.15-.04.3-.09.45-.13.02,0,.04,0,.08-.01ZM13.69,6.48c-.25.06-.49.12-.74.18v.02s.09.02.13.03c.15.04.3.08.45.11.04,0,.06,0,.07-.04.02-.1.05-.2.08-.31Z"/><path class="cls-2" d="M14.28,4.82c.15-.01.27-.05.34-.17.06-.1.05-.2-.04-.29.07-.05.14-.08.22-.08.06,0,.11.07.12.14.02.16-.03.31-.14.43-.14.15-.32.22-.51.23-.13,0-.27,0-.4-.03-.23-.05-.34-.27-.17-.53.12-.19.32-.24.53-.26.03,0,.06,0,.1,0,.11,0,.11,0,.08.11-.03.13-.07.25-.1.38,0,.02,0,.03-.01.06ZM14.15,4.51c-.1,0-.17.02-.24.07-.05.04-.07.12-.04.17.02.04.14.09.18.07.01,0,.02-.02.03-.04.02-.09.05-.18.07-.27Z"/><path class="cls-2" d="M15.41,2.33c.02.12-.04.18-.13.22.17.26-.07.47-.29.49-.03,0-.06,0-.1,0-.19,0-.3-.13-.28-.32,0-.02,0-.05,0-.07.01-.09.01-.1-.08-.08-.11.02-.17.13-.14.25,0,0,0,0,0,.01q.03.11-.05.14c-.1.03-.16,0-.18-.09-.04-.18.04-.46.31-.52.08-.02.16-.02.25-.02.21,0,.42-.02.63-.02.02,0,.04,0,.06,0ZM14.94,2.57s0,0,0,0c-.04,0-.09,0-.12.03-.05.05,0,.21.06.22.06,0,.12,0,.17-.02.06-.02.08-.07.06-.14-.01-.06-.05-.09-.12-.08-.02,0-.04,0-.06,0Z"/><path class="cls-2" d="M14.62,5.64c.02.14-.06.25-.19.27-.14.01-.28.01-.41.02-.42,0-.84.02-1.26.03-.09,0-.09,0-.07-.09.04-.13.12-.19.25-.19.54-.01,1.09-.02,1.63-.03.02,0,.03,0,.05,0Z"/><path class="cls-2" d="M14.68,3.82c-.19-.04-.38-.08-.58-.13-.02,0-.04,0-.06-.02-.1-.04-.12-.16-.04-.23.02-.01.05-.02.08,0,.32.08.63.16.95.25.04.01.05.03.04.07-.05.21-.05.21-.25.26-.32.08-.65.16-.97.25-.07.02-.08,0-.07-.07.02-.12.07-.18.19-.2.21-.05.42-.09.63-.13.03,0,.06-.02.09-.03,0,0,0,0,0-.01Z"/><path class="cls-2" d="M14.73,5.2c0,.17-.08.26-.24.27-.14,0-.29,0-.43,0-.39,0-.79.01-1.18.02-.06,0-.07-.03-.06-.08.03-.13.13-.2.29-.21.5,0,1-.01,1.5-.02.04,0,.08,0,.12,0Z"/><path class="cls-2" d="M14.54,3.37c-.15,0-.31,0-.46,0-.06,0-.07-.02-.06-.07.02-.1.09-.16.19-.16.32,0,.64,0,.96-.01.04,0,.05.02.05.06,0,.09-.07.17-.17.17-.17,0-.34,0-.51,0,0,0,0,.01,0,.02Z"/><path class="cls-2" d="M13.61,3.39s-.04,0-.07-.02c-.06-.03-.08-.09-.03-.15.06-.07.18-.11.26-.08.07.02.1.09.05.15-.04.06-.11.09-.21.09Z"/><path class="cls-3" d="M13.69,6.48c-.03.12-.06.21-.08.31-.01.04-.04.05-.07.04-.15-.04-.3-.08-.45-.11-.04-.01-.09-.02-.13-.03v-.02c.24-.06.48-.12.74-.18Z"/><path class="cls-3" d="M14.15,4.51c-.03.1-.05.19-.07.27,0,.01-.01.03-.03.04-.03.02-.16-.04-.18-.07-.03-.05-.01-.13.04-.17.07-.06.14-.08.24-.07Z"/><path class="cls-3" d="M14.94,2.57s.04,0,.06,0c.06,0,.1.02.12.08.01.06,0,.12-.06.14-.05.02-.12.03-.17.02-.07-.01-.12-.17-.06-.22.03-.02.08-.02.12-.03,0,0,0,0,0,0Z"/></svg>