<?xml version="1.0" encoding="UTF-8"?>
<svg width="48" height="48" id="Layer_1" data-name="Layer 1" xmlns="http://www.w3.org/2000/svg" version="1.1" viewBox="0 0 792 612">
  <defs>
    <style>
      .cls-1 {
        fill: #000;
      }

      .cls-1, .cls-2 {
        stroke-width: 0px;
      }

      .cls-3 {
        fill: none;
        stroke: #000;
        stroke-miterlimit: 10;
        stroke-width: 3px;
      }

      .cls-2 {
        fill: #fff;
      }
    </style>
  </defs>
  <path class="cls-3" d="M183,310.9l-.4,36.2c0,2.7,2.6,2.6,2.6,2.6,0,0,417.1.2,421.5-.1,2.1-.1,2.2-1,2.2-2.3l.2-36.5"/>
  <path class="cls-3" d="M183.5,306.3l53.2-70.9s1.5-1.8,6.6-1.8c7.3,0,306.5-.4,306.5-.4,0,0,5.1,0,6.9,2.4,2.6,3.3,50.8,69.6,51.1,70.3.5,1.1,3.7,4.9-.7,5.7s-421.1.1-421.1.1c0,0-5.7,0-2.6-5.4h.1Z"/>
  <g id="Allevia_distort_green.psd" data-name="Allevia distort green.psd">
    <g>
      <path class="cls-1" d="M304.7,284.5c-5-1.4-9.8-2.8-14.5-4.1-.7-.2-.9-.5-.8-1.2.2-1,.6-1.9,1.6-2.1,5.5-1.6,10.9-3.1,16.4-4.6,0,2-.2,2.6-2,2.9-2.1.4-3.2,1.4-3.5,3.5-.3,2.1-.5,2.1,1.5,2.6.6.2,1.1.3,1.8.5-.2.9-.4,1.7-.6,2.6ZM300.4,276.5c-2.7.7-5.1,1.3-7.6,1.9,0,.1,0,.2,0,.3,2,.5,4,1,6,1.5.2,0,.6-.3.6-.5.3-1,.5-2,.9-3.3Z"/>
      <path class="cls-1" d="M308.5,257c.4-.2.7-.3,1-.4,1.1-.3,1.6,0,1.8,1.1.3,1.9-.9,4.2-2.8,5.1-2.1,1-4.3,1.2-6.5.7-2.4-.5-3.2-2.8-1.8-4.9,1.1-1.7,2.9-2.1,4.8-2.3.5,0,1,0,1.7,0-.4,1.7-.8,3.3-1.2,5.1,1.4,0,2.5-.4,3.3-1.4.7-1,.8-2-.1-3.1ZM304.5,258.5c-1.5-.3-2.7.3-3,1.3-.3.8.1,1.4,1,1.6.8.2,1.4.2,1.5-.8.1-.7.3-1.4.5-2.2Z"/>
      <path class="cls-1" d="M315.8,238.7c.3.9-.6,1.2-1.2,1.6.7,1.4.6,2.5-.2,3.3-1.2,1.1-2.7,1.4-4.3.9-.9-.3-1.3-.9-1.4-1.8,0-.8,0-1.5.1-2.3-1.9-.5-2.8.8-2.1,3.5-.5,0-1.2.3-1.6.1-.3-.2-.6-.9-.6-1.3-.1-2.4,1.3-4,3.7-4.1,2.5,0,4.9,0,7.5,0ZM311.7,240.3c-1.4,0-1.6.1-1.6,1.1,0,1.1.6,1.6,1.6,1.6,1,0,1.8-.7,1.8-1.6,0-.8-.6-1.2-1.8-1.2Z"/>
      <path class="cls-1" d="M308.5,269.2c-.2,1.6-.7,2.2-2,2.2-5,.1-10,.2-15,.3-.2,0-.4,0-.6-.1.1-1.3.6-1.9,1.7-2.1.2,0,.5,0,.7,0,4.8,0,9.7-.2,14.5-.2.2,0,.4,0,.6,0Z"/>
      <path class="cls-1" d="M292.2,267.5c0-1.3.6-2,1.7-2.1,1.2-.1,2.3-.1,3.5-.2,3.7,0,7.4-.1,11.1-.2.3,0,.6,0,.9,0,.2,1.5-.5,2.2-2.1,2.3-4.3,0-8.5.1-12.8.2-.8,0-1.5,0-2.3,0Z"/>
      <path class="cls-1" d="M301.1,256.1c0-1.5.4-2.1,1.7-2.4,1.9-.4,3.8-.8,5.8-1.2.3,0,.6-.2.9-.5-.3,0-.5-.2-.8-.2-1.7-.4-3.4-.7-5.1-1.1-.6-.1-1.1-.4-.9-1.2.2-.9.7-.9,1.4-.7,2.5.7,5.1,1.3,7.6,2,.4,0,1,.5.9.6-.1.7-.3,1.7-.7,1.8-3.6,1-7.2,1.9-10.9,2.9Z"/>
      <path class="cls-1" d="M314,245.9c0,1.1-.4,1.8-1.3,1.8-3.1,0-6.2,0-9.3,0,0-1.3.6-1.8,2-1.8,2,0,4.1,0,6.1,0,.8,0,1.7,0,2.6,0Z"/>
      <path class="cls-1" d="M299.5,248.3c-.5-.4-1.1-.6-1.2-.9,0-.3.4-1,.7-1.1.6-.2,1.3,0,2,0,0,0,.3.6.1.7-.5.5-1,.8-1.6,1.3Z"/>
      <path class="cls-2" d="M300.4,276.5c-.4,1.3-.6,2.3-.9,3.3,0,.2-.4.5-.6.5-2-.5-4-1-6-1.5,0-.1,0-.2,0-.3,2.4-.6,4.8-1.2,7.6-1.9Z"/>
      <path class="cls-2" d="M304.5,258.5c-.2.8-.4,1.5-.5,2.2-.2,1-.8,1-1.5.8-.9-.3-1.2-.9-1-1.6.3-1,1.6-1.6,3-1.3Z"/>
      <path class="cls-2" d="M311.7,240.3c1.2,0,1.8.4,1.8,1.2,0,.9-.8,1.6-1.8,1.6-1,0-1.6-.6-1.6-1.6,0-1,.2-1.1,1.6-1.1Z"/>
    </g>
  </g>
</svg>