<svg width="48" height="48" viewBox="0 0 140 140" fill="none" xmlns="http://www.w3.org/2000/svg" style="shape-rendering:geometricPrecision; text-rendering:geometricPrecision; image-rendering:optimizeQuality; fill-rule:evenodd; clip-rule:evenodd" xmlns:xlink="http://www.w3.org/1999/xlink">
<g><path style="opacity:0.83" fill="#000000" d="M 65.5,-0.5 C 68.1667,-0.5 70.8333,-0.5 73.5,-0.5C 91.7361,5.46698 110.069,11.467 128.5,17.5C 129.666,37.8251 129.833,58.1585 129,78.5C 122.713,109.142 104.879,129.475 75.5,139.5C 71.8333,139.5 68.1667,139.5 64.5,139.5C 41.6559,132.49 25.1559,118.157 15,96.5C 12.7228,90.6685 11.0561,84.6685 10,78.5C 9.16694,58.1585 9.3336,37.8251 10.5,17.5C 28.9415,11.4633 47.2749,5.46327 65.5,-0.5 Z M 68.5,5.5 C 86.4768,11.1585 104.477,16.8252 122.5,22.5C 123.822,41.5139 123.655,60.5139 122,79.5C 115.491,108.176 97.991,126.176 69.5,133.5C 41.009,126.176 23.509,108.176 17,79.5C 15.3448,60.5139 15.1781,41.5139 16.5,22.5C 34.0537,17.1204 51.387,11.4537 68.5,5.5 Z M 82.5,55.5 C 85.3228,56.1476 86.8228,57.8142 87,60.5C 79.6523,68.0146 72.1523,75.3479 64.5,82.5C 60.1667,78.1667 55.8333,73.8333 51.5,69.5C 52.5403,67.6251 54.0403,66.2918 56,65.5C 58.6926,68.028 61.5259,70.3613 64.5,72.5C 71.151,67.5155 77.151,61.8488 82.5,55.5 Z"/></g>
<g><path style="opacity:0.793" fill="#000000" d="M 68.5,14.5 C 83.8325,18.9997 98.9992,23.9997 114,29.5C 114.893,46.5351 114.56,63.5351 113,80.5C 111.994,86.1947 109.827,91.3614 106.5,96C 103.763,97.0798 102.096,96.2464 101.5,93.5C 104.031,88.072 105.865,82.4054 107,76.5C 107.5,62.1705 107.667,47.8372 107.5,33.5C 94.884,29.8872 82.384,25.8872 70,21.5C 57.2345,25.7328 44.4012,29.7328 31.5,33.5C 31.3334,47.8372 31.5001,62.1705 32,76.5C 36.4091,96.5719 48.2424,110.072 67.5,117C 74.5773,116.3 80.9107,113.633 86.5,109C 89.5309,107.925 91.5309,108.925 92.5,112C 83.0484,122.602 71.715,125.602 58.5,121C 41.38,112.617 30.5466,99.1173 26,80.5C 24.4402,63.5351 24.1069,46.5351 25,29.5C 39.5438,24.3752 54.0438,19.3752 68.5,14.5 Z M 82.5,55.5 C 77.151,61.8488 71.151,67.5155 64.5,72.5C 61.5259,70.3613 58.6926,68.028 56,65.5C 54.0403,66.2918 52.5403,67.6251 51.5,69.5C 55.8333,73.8333 60.1667,78.1667 64.5,82.5C 72.1523,75.3479 79.6523,68.0146 87,60.5C 86.8228,57.8142 85.3228,56.1476 82.5,55.5 Z"/></g>
<g><path style="opacity:0.812" fill="#000000" d="M 81.5,46.5 C 82.8734,46.3433 84.2068,46.51 85.5,47C 89.5352,50.7002 93.2019,54.7002 96.5,59C 86.8635,69.6373 76.8635,79.9706 66.5,90C 65.1667,90.6667 63.8333,90.6667 62.5,90C 55.4683,83.3028 48.8016,76.3028 42.5,69C 45.7981,64.7002 49.4648,60.7002 53.5,57C 54.8333,56.3333 56.1667,56.3333 57.5,57C 59.727,59.9349 62.3936,61.9349 65.5,63C 71.0363,57.6314 76.3697,52.1314 81.5,46.5 Z M 82.5,55.5 C 77.151,61.8488 71.151,67.5155 64.5,72.5C 61.5259,70.3613 58.6926,68.028 56,65.5C 54.0403,66.2918 52.5403,67.6251 51.5,69.5C 55.8333,73.8333 60.1667,78.1667 64.5,82.5C 72.1523,75.3479 79.6523,68.0146 87,60.5C 86.8228,57.8142 85.3228,56.1476 82.5,55.5 Z"/></g>
<g><path style="opacity:0.642" fill="#000000" d="M 95.5,100.5 C 102.103,101.022 102.937,103.356 98,107.5C 94.5637,106.086 93.7304,103.753 95.5,100.5 Z"/></g>
</svg>
