<svg width="48" height="48" viewBox="0 0 140 140" fill="none" xmlns="http://www.w3.org/2000/svg">
<g><path style="opacity:1" fill="#313131" d="M 67.5,1.5 C 103.99,2.99526 127.157,21.3286 137,56.5C 141.054,89.8924 128.554,114.726 99.5,131C 67.3449,143.838 39.5115,137.671 16,112.5C 5.90378,99.2102 1.23712,84.2102 2,67.5C 4,64.8333 6,64.8333 8,67.5C 9.83348,97.3205 24.6668,117.487 52.5,128C 89.0983,134.697 114.265,120.864 128,86.5C 134.94,50.8752 121.773,26.0419 88.5,12C 81.6497,9.9137 74.6497,8.58037 67.5,8C 64.9387,5.8441 64.9387,3.67743 67.5,1.5 Z"/></g>
<g><path style="opacity:1" fill="#313131" d="M 46.5,4.5 C 51.0374,4.27331 52.7041,6.27331 51.5,10.5C 47.6392,13.7918 43.3059,14.7918 38.5,13.5C 37.5721,12.2322 37.4054,10.8989 38,9.5C 40.7465,7.54457 43.5798,5.87791 46.5,4.5 Z"/></g>
<g><path style="opacity:1" fill="#313131" d="M 24.5,17.5 C 30.8016,17.9032 31.9683,20.5699 28,25.5C 26.0016,27.6632 23.6682,29.3298 21,30.5C 17.9277,29.5527 16.9277,27.5527 18,24.5C 20.3722,22.2968 22.5389,19.9635 24.5,17.5 Z"/></g>
<g><path style="opacity:1" fill="#313131" d="M 9.5,37.5 C 12.5715,36.9245 14.5715,38.0912 15.5,41C 14.0288,44.1091 12.6954,47.2757 11.5,50.5C 8.12287,53.4854 5.78953,52.8187 4.5,48.5C 5.59841,44.5224 7.26507,40.8557 9.5,37.5 Z"/></g>
<g><path style="opacity:1" fill="#313131" d="M 67.5,43.5 C 69.7224,43.178 71.5557,43.8446 73,45.5C 73.4996,52.1583 73.6663,58.825 73.5,65.5C 80.175,65.3337 86.8417,65.5004 93.5,66C 96.1667,68.3333 96.1667,70.6667 93.5,73C 86.8417,73.4996 80.175,73.6663 73.5,73.5C 73.6663,80.175 73.4996,86.8417 73,93.5C 70.6667,96.1667 68.3333,96.1667 66,93.5C 65.5004,86.8417 65.3337,80.175 65.5,73.5C 58.825,73.6663 52.1583,73.4996 45.5,73C 42.8333,70.6667 42.8333,68.3333 45.5,66C 52.1583,65.5004 58.825,65.3337 65.5,65.5C 65.3337,58.825 65.5004,52.1583 66,45.5C 66.7172,44.9558 67.2172,44.2891 67.5,43.5 Z"/></g>
</svg>