<?xml version="1.0" encoding="UTF-8"?>
<svg width="48" height="48" viewBox="0 0 140 140" fill="none" xmlns="http://www.w3.org/2000/svg" style="shape-rendering:geometricPrecision; text-rendering:geometricPrecision; image-rendering:optimizeQuality; fill-rule:evenodd; clip-rule:evenodd" xmlns:xlink="http://www.w3.org/1999/xlink">
<g><path style="opacity:0.87" fill="#000000" d="M 66.5,3.5 C 68.5273,3.33788 70.5273,3.50454 72.5,4C 78.2941,9.11739 83.2941,14.7841 87.5,21C 87.3999,24.2664 85.7333,26.0997 82.5,26.5C 79.5463,25.1016 77.0463,23.1016 75,20.5C 74.6667,31.8333 74.3333,43.1667 74,54.5C 71,57.1667 68,57.1667 65,54.5C 64.6667,43.1667 64.3333,31.8333 64,20.5C 61.9065,23.1026 59.4065,25.1026 56.5,26.5C 52.1637,25.4985 50.6637,22.8319 52,18.5C 57.0365,13.6313 61.8698,8.63128 66.5,3.5 Z"/></g>
<g><path style="opacity:0.87" fill="#000000" d="M 18.5,51.5 C 22.841,50.6634 25.5076,52.33 26.5,56.5C 25.1016,59.4537 23.1016,61.9537 20.5,64C 31.8333,64.3333 43.1667,64.6667 54.5,65C 57.1667,68 57.1667,71 54.5,74C 43.1667,74.3333 31.8333,74.6667 20.5,75C 23.1026,77.0935 25.1026,79.5935 26.5,82.5C 25.4985,86.8363 22.8319,88.3363 18.5,87C 13.6667,82.1667 8.83333,77.3333 4,72.5C 3.33333,70.5 3.33333,68.5 4,66.5C 9.03651,61.6313 13.8698,56.6313 18.5,51.5 Z"/></g>
<g><path style="opacity:0.87" fill="#000000" d="M 115.5,51.5 C 117.199,51.3398 118.866,51.5065 120.5,52C 125.333,56.8333 130.167,61.6667 135,66.5C 135.667,68.5 135.667,70.5 135,72.5C 130.167,77.3333 125.333,82.1667 120.5,87C 116.168,88.3363 113.501,86.8363 112.5,82.5C 113.898,79.5463 115.898,77.0463 118.5,75C 107.167,74.6667 95.8333,74.3333 84.5,74C 81.8333,71 81.8333,68 84.5,65C 95.8333,64.6667 107.167,64.3333 118.5,64C 115.897,61.9065 113.897,59.4065 112.5,56.5C 112.757,54.3076 113.757,52.6409 115.5,51.5 Z"/></g>
<g><path style="opacity:0.869" fill="#000000" d="M 66.5,82.5 C 69.3646,82.0548 71.8646,82.7215 74,84.5C 74.3333,95.8333 74.6667,107.167 75,118.5C 77.0935,115.897 79.5935,113.897 82.5,112.5C 86.8363,113.501 88.3363,116.168 87,120.5C 82.1667,125.333 77.3333,130.167 72.5,135C 70.5,135.667 68.5,135.667 66.5,135C 60.7059,129.883 55.7059,124.216 51.5,118C 51.6001,114.734 53.2667,112.9 56.5,112.5C 59.4537,113.898 61.9537,115.898 64,118.5C 64.3333,107.167 64.6667,95.8333 65,84.5C 65.7172,83.9558 66.2172,83.2891 66.5,82.5 Z"/></g>
</svg>
